M48
; DRILL file {KiCad 7.0.8} date Tue Apr  9 21:17:03 2024
; FORMAT={3:3/ absolute / metric / suppress leading zeros}
; #@! TF.CreationDate,2024-04-09T21:17:03-04:00
; #@! TF.GenerationSoftware,Kicad,Pcbnew,7.0.8
; #@! TF.FileFunction,MixedPlating,1,2
FMAT,2
METRIC,TZ
; #@! TA.AperFunction,Plated,PTH,ViaDrill
T1C0.254
; #@! TA.AperFunction,Plated,PTH,ComponentDrill
T2C0.800
; #@! TA.AperFunction,Plated,PTH,ComponentDrill
T3C1.016
; #@! TA.AperFunction,Plated,PTH,ComponentDrill
T4C2.330
%
G90
G05
T1
X12764Y24447
X16408Y20472
T2
X1778Y2921
X3778Y2667
X5778Y2921
X7778Y2667
X9778Y2921
X11778Y2667
T3
X5715Y19939
X5715Y17399
X5715Y14859
X8001Y31877
X8021Y29159
X8021Y27159
X10521Y29159
X10521Y27159
X10541Y31877
X16307Y5461
X16307Y2921
X18847Y5715
X18847Y3175
X21387Y5461
X21387Y2921
X21590Y28067
X21590Y25527
X21590Y22987
X21590Y20447
X21590Y17907
X23927Y5715
X23927Y3175
X24130Y28067
X24130Y25527
X24130Y22987
X24130Y20447
X24130Y17907
X26467Y5461
X26467Y2921
T4
X3251Y31869
X15291Y31869
T0
M30
