%TF.GenerationSoftware,KiCad,Pcbnew,7.0.8*%
%TF.CreationDate,2024-04-09T21:16:55-04:00*%
%TF.ProjectId,petit-jtag,70657469-742d-46a7-9461-672e6b696361,1.1*%
%TF.SameCoordinates,PX8aadb58PY72b28c8*%
%TF.FileFunction,Copper,L1,Top*%
%TF.FilePolarity,Positive*%
%FSLAX46Y46*%
G04 Gerber Fmt 4.6, Leading zero omitted, Abs format (unit mm)*
G04 Created by KiCad (PCBNEW 7.0.8) date 2024-04-09 21:16:55*
%MOMM*%
%LPD*%
G01*
G04 APERTURE LIST*
%TA.AperFunction,ComponentPad*%
%ADD10C,1.524000*%
%TD*%
%TA.AperFunction,ComponentPad*%
%ADD11C,3.000000*%
%TD*%
%TA.AperFunction,SMDPad,CuDef*%
%ADD12R,1.016000X1.270000*%
%TD*%
%TA.AperFunction,SMDPad,CuDef*%
%ADD13R,1.200000X2.200000*%
%TD*%
%TA.AperFunction,SMDPad,CuDef*%
%ADD14R,3.500000X2.200000*%
%TD*%
%TA.AperFunction,ComponentPad*%
%ADD15C,1.200000*%
%TD*%
%TA.AperFunction,ViaPad*%
%ADD16C,0.508000*%
%TD*%
%TA.AperFunction,Conductor*%
%ADD17C,0.304800*%
%TD*%
%TA.AperFunction,Conductor*%
%ADD18C,0.177800*%
%TD*%
G04 APERTURE END LIST*
D10*
X8021000Y27159000D03*
X10521000Y27159000D03*
X10521000Y29159000D03*
X8021000Y29159000D03*
D11*
X3251000Y31869000D03*
X15291000Y31869000D03*
D10*
X5715000Y14859000D03*
X5715000Y17399000D03*
X5715000Y19939000D03*
D12*
X12763500Y23114000D03*
X14922500Y23114000D03*
D13*
X15000000Y20447000D03*
D14*
X12700000Y14247000D03*
D13*
X12700000Y20447000D03*
X10400000Y20447000D03*
D12*
X6032500Y23241000D03*
X3873500Y23241000D03*
D10*
X16306800Y2921000D03*
X16306800Y5461000D03*
X18846800Y3175000D03*
X18846800Y5715000D03*
X21386800Y2921000D03*
X21386800Y5461000D03*
X23926800Y3175000D03*
X23926800Y5715000D03*
X26466800Y2921000D03*
X26466800Y5461000D03*
D15*
X1778000Y2921000D03*
X3778000Y2667000D03*
X5778000Y2921000D03*
X7778000Y2667000D03*
X9778000Y2921000D03*
X11778000Y2667000D03*
D10*
X21590000Y28067000D03*
X24130000Y28067000D03*
X21590000Y25527000D03*
X24130000Y25527000D03*
X21590000Y22987000D03*
X24130000Y22987000D03*
X21590000Y20447000D03*
X24130000Y20447000D03*
X21590000Y17907000D03*
X24130000Y17907000D03*
X8001000Y31877000D03*
X10541000Y31877000D03*
D16*
X16408400Y20472400D03*
X12763500Y24447500D03*
D17*
X8021000Y27159000D02*
X6477000Y28703000D01*
X6477000Y28703000D02*
X6477000Y30353000D01*
X6032500Y23241000D02*
X9906000Y23241000D01*
X6477000Y30353000D02*
X8001000Y31877000D01*
X8021000Y27159000D02*
X6032500Y25170500D01*
X9906000Y23241000D02*
X10400000Y22747000D01*
X6032500Y20256500D02*
X5715000Y19939000D01*
X6032500Y23241000D02*
X6032500Y20256500D01*
X6032500Y25170500D02*
X6032500Y23241000D01*
X10400000Y22747000D02*
X10400000Y20447000D01*
X16408400Y20447000D02*
X16433800Y20421600D01*
X12700000Y14247000D02*
X9375000Y14247000D01*
X12763500Y24447500D02*
X12763500Y23114000D01*
X12763500Y23114000D02*
X12763500Y20510500D01*
X9375000Y14247000D02*
X8763000Y14859000D01*
X12700000Y20447000D02*
X12700000Y14247000D01*
X8763000Y14859000D02*
X5715000Y14859000D01*
X12763500Y20510500D02*
X12700000Y20447000D01*
D18*
X5181600Y3911600D02*
X4749800Y3479800D01*
X4165600Y1625600D02*
X3073400Y1625600D01*
X18846800Y3175000D02*
X17449800Y1778000D01*
X18846800Y3175000D02*
X20116800Y4445000D01*
X17449800Y1778000D02*
X14554200Y1778000D01*
X12420600Y3911600D02*
X5181600Y3911600D01*
X4749800Y2209800D02*
X4165600Y1625600D01*
X3073400Y1625600D02*
X1778000Y2921000D01*
X20116800Y24053800D02*
X21590000Y25527000D01*
X20116800Y4445000D02*
X20116800Y24053800D01*
X14554200Y1778000D02*
X12420600Y3911600D01*
X4749800Y3479800D02*
X4749800Y2209800D01*
X16306800Y2921000D02*
X14960600Y4267200D01*
X19710400Y8483600D02*
X17602200Y6375400D01*
X4529672Y4267200D02*
X3778000Y3515528D01*
X17602200Y6375400D02*
X17602200Y4216400D01*
X14960600Y4267200D02*
X4529672Y4267200D01*
X3778000Y3515528D02*
X3778000Y2667000D01*
X21590000Y28067000D02*
X19710400Y26187400D01*
X19710400Y26187400D02*
X19710400Y8483600D01*
X17602200Y4216400D02*
X16306800Y2921000D01*
X21590000Y17907000D02*
X21590000Y9880600D01*
X25247600Y6223000D02*
X25247600Y4140200D01*
X7632200Y1066800D02*
X5778000Y2921000D01*
X25247600Y4140200D02*
X26466800Y2921000D01*
X26466800Y2921000D02*
X24612600Y1066800D01*
X24612600Y1066800D02*
X7632200Y1066800D01*
X21590000Y9880600D02*
X25247600Y6223000D01*
X19888200Y1422400D02*
X9022600Y1422400D01*
X9022600Y1422400D02*
X7778000Y2667000D01*
X21386800Y2921000D02*
X19888200Y1422400D01*
X20472400Y8382000D02*
X22656800Y6197600D01*
X21590000Y22987000D02*
X20472400Y21869400D01*
X22656800Y6197600D02*
X22656800Y4191000D01*
X22656800Y4191000D02*
X21386800Y2921000D01*
X20472400Y21869400D02*
X20472400Y8382000D01*
%TA.AperFunction,Conductor*%
G36*
X27908101Y33887935D02*
G01*
X27938165Y33835864D01*
X27939500Y33820600D01*
X27939500Y723400D01*
X27918935Y666899D01*
X27866864Y636835D01*
X27851600Y635500D01*
X24950992Y635500D01*
X24894491Y656065D01*
X24864427Y708136D01*
X24874868Y767350D01*
X24888838Y785555D01*
X24935491Y832207D01*
X25769421Y1666139D01*
X26001538Y1898257D01*
X26056031Y1923667D01*
X26089206Y1920217D01*
X26257573Y1869143D01*
X26466800Y1848536D01*
X26676027Y1869143D01*
X26877214Y1930172D01*
X27062629Y2029279D01*
X27225147Y2162653D01*
X27358521Y2325171D01*
X27457628Y2510586D01*
X27518657Y2711773D01*
X27539264Y2921000D01*
X27518657Y3130227D01*
X27457628Y3331414D01*
X27358521Y3516829D01*
X27225147Y3679347D01*
X27062629Y3812721D01*
X26877214Y3911828D01*
X26877213Y3911829D01*
X26877210Y3911830D01*
X26676033Y3972856D01*
X26676028Y3972857D01*
X26676027Y3972857D01*
X26466800Y3993464D01*
X26257573Y3972857D01*
X26257571Y3972857D01*
X26257566Y3972856D01*
X26089209Y3921785D01*
X26029171Y3925063D01*
X26001538Y3943745D01*
X25667545Y4277738D01*
X25642134Y4332232D01*
X25641800Y4339893D01*
X25641800Y4815117D01*
X25662365Y4871618D01*
X25667545Y4877272D01*
X26014867Y5224595D01*
X26078931Y5124910D01*
X26189330Y5029248D01*
X26231373Y5010048D01*
X25863279Y4641954D01*
X25899608Y4612140D01*
X26076113Y4517797D01*
X26267622Y4459703D01*
X26466800Y4440085D01*
X26665977Y4459703D01*
X26857486Y4517797D01*
X27033994Y4612142D01*
X27070319Y4641954D01*
X26702226Y5010048D01*
X26744270Y5029248D01*
X26854669Y5124910D01*
X26918732Y5224595D01*
X27285846Y4857481D01*
X27315658Y4893806D01*
X27410003Y5070314D01*
X27468097Y5261823D01*
X27487715Y5461000D01*
X27468097Y5660178D01*
X27410003Y5851687D01*
X27315660Y6028192D01*
X27285846Y6064521D01*
X26918731Y5697407D01*
X26854669Y5797090D01*
X26744270Y5892752D01*
X26702224Y5911954D01*
X27070319Y6280048D01*
X27033991Y6309861D01*
X26857486Y6404204D01*
X26665977Y6462298D01*
X26466800Y6481916D01*
X26267622Y6462298D01*
X26076113Y6404204D01*
X26076109Y6404203D01*
X25899613Y6309865D01*
X25863279Y6280048D01*
X26231374Y5911953D01*
X26189330Y5892752D01*
X26078931Y5797090D01*
X26014867Y5697407D01*
X25667545Y6044729D01*
X25642134Y6099223D01*
X25641800Y6106884D01*
X25641800Y6285433D01*
X25641800Y6285435D01*
X25634227Y6308739D01*
X25631010Y6322146D01*
X25627180Y6346331D01*
X25627180Y6346332D01*
X25627180Y6346333D01*
X25616059Y6368160D01*
X25610782Y6380900D01*
X25608172Y6388933D01*
X25603214Y6404194D01*
X25588810Y6424018D01*
X25581608Y6435773D01*
X25570492Y6457591D01*
X22009945Y10018138D01*
X21984534Y10072632D01*
X21984200Y10080293D01*
X21984200Y16854821D01*
X22004765Y16911322D01*
X22030660Y16932340D01*
X22185829Y17015279D01*
X22348347Y17148653D01*
X22481721Y17311171D01*
X22580828Y17496586D01*
X22641857Y17697773D01*
X22662464Y17907000D01*
X23109084Y17907000D01*
X23128702Y17707823D01*
X23186796Y17516314D01*
X23281139Y17339809D01*
X23310952Y17303481D01*
X23678066Y17670596D01*
X23742131Y17570910D01*
X23852530Y17475248D01*
X23894573Y17456048D01*
X23526479Y17087954D01*
X23562808Y17058140D01*
X23739313Y16963797D01*
X23930822Y16905703D01*
X24130000Y16886085D01*
X24329177Y16905703D01*
X24520686Y16963797D01*
X24697194Y17058142D01*
X24733519Y17087954D01*
X24365426Y17456048D01*
X24407470Y17475248D01*
X24517869Y17570910D01*
X24581932Y17670595D01*
X24949046Y17303481D01*
X24978858Y17339806D01*
X25073203Y17516314D01*
X25131297Y17707823D01*
X25150915Y17907000D01*
X25131297Y18106178D01*
X25073203Y18297687D01*
X24978860Y18474192D01*
X24949046Y18510521D01*
X24581931Y18143407D01*
X24517869Y18243090D01*
X24407470Y18338752D01*
X24365424Y18357954D01*
X24733519Y18726048D01*
X24697191Y18755861D01*
X24520686Y18850204D01*
X24329177Y18908298D01*
X24130000Y18927916D01*
X23930822Y18908298D01*
X23739313Y18850204D01*
X23739309Y18850203D01*
X23562813Y18755865D01*
X23526479Y18726048D01*
X23894574Y18357953D01*
X23852530Y18338752D01*
X23742131Y18243090D01*
X23678067Y18143406D01*
X23310952Y18510521D01*
X23281135Y18474187D01*
X23186797Y18297691D01*
X23186796Y18297687D01*
X23128702Y18106178D01*
X23109084Y17907000D01*
X22662464Y17907000D01*
X22641857Y18116227D01*
X22629383Y18157347D01*
X22580829Y18317410D01*
X22580829Y18317411D01*
X22580828Y18317412D01*
X22580828Y18317414D01*
X22481721Y18502829D01*
X22348347Y18665347D01*
X22185829Y18798721D01*
X22000414Y18897828D01*
X22000413Y18897829D01*
X22000410Y18897830D01*
X21799233Y18958856D01*
X21799228Y18958857D01*
X21799227Y18958857D01*
X21590000Y18979464D01*
X21380773Y18958857D01*
X21380771Y18958857D01*
X21380766Y18958856D01*
X21179590Y18897830D01*
X21179588Y18897830D01*
X21090488Y18850204D01*
X20995934Y18799664D01*
X20936412Y18791166D01*
X20885352Y18822917D01*
X20866600Y18877185D01*
X20866600Y19476816D01*
X20887165Y19533317D01*
X20939236Y19563381D01*
X20995932Y19554338D01*
X21179586Y19456172D01*
X21380773Y19395143D01*
X21590000Y19374536D01*
X21799227Y19395143D01*
X22000414Y19456172D01*
X22185829Y19555279D01*
X22348347Y19688653D01*
X22481721Y19851171D01*
X22580828Y20036586D01*
X22641857Y20237773D01*
X22662464Y20447000D01*
X23057536Y20447000D01*
X23067147Y20349414D01*
X23078144Y20237767D01*
X23139170Y20036591D01*
X23139170Y20036590D01*
X23139171Y20036587D01*
X23139172Y20036586D01*
X23238279Y19851171D01*
X23371653Y19688653D01*
X23534171Y19555279D01*
X23719586Y19456172D01*
X23920773Y19395143D01*
X24130000Y19374536D01*
X24339227Y19395143D01*
X24540414Y19456172D01*
X24725829Y19555279D01*
X24888347Y19688653D01*
X25021721Y19851171D01*
X25120828Y20036586D01*
X25181857Y20237773D01*
X25202464Y20447000D01*
X25181857Y20656227D01*
X25169383Y20697347D01*
X25120829Y20857410D01*
X25120829Y20857411D01*
X25120828Y20857412D01*
X25120828Y20857414D01*
X25021721Y21042829D01*
X24888347Y21205347D01*
X24725829Y21338721D01*
X24540414Y21437828D01*
X24540413Y21437829D01*
X24540410Y21437830D01*
X24339233Y21498856D01*
X24339228Y21498857D01*
X24339227Y21498857D01*
X24130000Y21519464D01*
X23920773Y21498857D01*
X23920771Y21498857D01*
X23920766Y21498856D01*
X23719590Y21437830D01*
X23719589Y21437830D01*
X23534170Y21338721D01*
X23371655Y21205349D01*
X23371651Y21205345D01*
X23238279Y21042830D01*
X23139170Y20857411D01*
X23139170Y20857410D01*
X23078144Y20656234D01*
X23078143Y20656229D01*
X23078143Y20656227D01*
X23057536Y20447000D01*
X22662464Y20447000D01*
X22641857Y20656227D01*
X22629383Y20697347D01*
X22580829Y20857410D01*
X22580829Y20857411D01*
X22580828Y20857412D01*
X22580828Y20857414D01*
X22481721Y21042829D01*
X22348347Y21205347D01*
X22185829Y21338721D01*
X22000414Y21437828D01*
X22000413Y21437829D01*
X22000410Y21437830D01*
X21799233Y21498856D01*
X21799228Y21498857D01*
X21799227Y21498857D01*
X21590000Y21519464D01*
X21380773Y21498857D01*
X21380771Y21498857D01*
X21380766Y21498856D01*
X21179590Y21437830D01*
X21179588Y21437830D01*
X21052846Y21370085D01*
X20995934Y21339664D01*
X20936412Y21331166D01*
X20885352Y21362917D01*
X20866600Y21417185D01*
X20866600Y21669708D01*
X20887165Y21726209D01*
X20892335Y21731853D01*
X21124739Y21964257D01*
X21179231Y21989666D01*
X21212406Y21986217D01*
X21380773Y21935143D01*
X21590000Y21914536D01*
X21799227Y21935143D01*
X22000414Y21996172D01*
X22185829Y22095279D01*
X22348347Y22228653D01*
X22481721Y22391171D01*
X22580828Y22576586D01*
X22641857Y22777773D01*
X22662464Y22987000D01*
X23057536Y22987000D01*
X23077730Y22781965D01*
X23078144Y22777767D01*
X23139170Y22576591D01*
X23139170Y22576590D01*
X23139171Y22576587D01*
X23139172Y22576586D01*
X23238279Y22391171D01*
X23371653Y22228653D01*
X23534171Y22095279D01*
X23719586Y21996172D01*
X23719588Y21996172D01*
X23719589Y21996171D01*
X23824799Y21964256D01*
X23920773Y21935143D01*
X24130000Y21914536D01*
X24339227Y21935143D01*
X24540414Y21996172D01*
X24725829Y22095279D01*
X24888347Y22228653D01*
X25021721Y22391171D01*
X25120828Y22576586D01*
X25181857Y22777773D01*
X25202464Y22987000D01*
X25181857Y23196227D01*
X25120828Y23397414D01*
X25021721Y23582829D01*
X24888347Y23745347D01*
X24725829Y23878721D01*
X24540414Y23977828D01*
X24540413Y23977829D01*
X24540410Y23977830D01*
X24339233Y24038856D01*
X24339228Y24038857D01*
X24339227Y24038857D01*
X24130000Y24059464D01*
X23920773Y24038857D01*
X23920771Y24038857D01*
X23920766Y24038856D01*
X23719590Y23977830D01*
X23719589Y23977830D01*
X23534170Y23878721D01*
X23371655Y23745349D01*
X23371651Y23745345D01*
X23238279Y23582830D01*
X23139170Y23397411D01*
X23139170Y23397410D01*
X23078144Y23196234D01*
X23078143Y23196229D01*
X23078143Y23196227D01*
X23057536Y22987000D01*
X22662464Y22987000D01*
X22641857Y23196227D01*
X22580828Y23397414D01*
X22481721Y23582829D01*
X22348347Y23745347D01*
X22185829Y23878721D01*
X22000414Y23977828D01*
X22000413Y23977829D01*
X22000410Y23977830D01*
X21799233Y24038856D01*
X21799228Y24038857D01*
X21799227Y24038857D01*
X21590000Y24059464D01*
X21380773Y24038857D01*
X21380771Y24038857D01*
X21380766Y24038856D01*
X21179590Y23977830D01*
X21179589Y23977830D01*
X20994170Y23878721D01*
X20831655Y23745349D01*
X20831651Y23745345D01*
X20698279Y23582830D01*
X20696933Y23580311D01*
X20677911Y23544722D01*
X20676421Y23541935D01*
X20631650Y23501800D01*
X20571555Y23499833D01*
X20524255Y23536954D01*
X20511000Y23583371D01*
X20511000Y23854108D01*
X20531565Y23910609D01*
X20536734Y23916252D01*
X21124738Y24504257D01*
X21179231Y24529667D01*
X21212406Y24526217D01*
X21380773Y24475143D01*
X21590000Y24454536D01*
X21799227Y24475143D01*
X22000414Y24536172D01*
X22185829Y24635279D01*
X22348347Y24768653D01*
X22481721Y24931171D01*
X22580828Y25116586D01*
X22641857Y25317773D01*
X22662464Y25527000D01*
X23057536Y25527000D01*
X23072157Y25378546D01*
X23078144Y25317767D01*
X23139170Y25116591D01*
X23139170Y25116590D01*
X23139171Y25116587D01*
X23139172Y25116586D01*
X23238279Y24931171D01*
X23371653Y24768653D01*
X23534171Y24635279D01*
X23719586Y24536172D01*
X23719588Y24536172D01*
X23719589Y24536171D01*
X23824799Y24504256D01*
X23920773Y24475143D01*
X24130000Y24454536D01*
X24339227Y24475143D01*
X24540414Y24536172D01*
X24725829Y24635279D01*
X24888347Y24768653D01*
X25021721Y24931171D01*
X25120828Y25116586D01*
X25181857Y25317773D01*
X25202464Y25527000D01*
X25181857Y25736227D01*
X25120828Y25937414D01*
X25021721Y26122829D01*
X24888347Y26285347D01*
X24725829Y26418721D01*
X24540414Y26517828D01*
X24540413Y26517829D01*
X24540410Y26517830D01*
X24339233Y26578856D01*
X24339228Y26578857D01*
X24339227Y26578857D01*
X24130000Y26599464D01*
X23920773Y26578857D01*
X23920771Y26578857D01*
X23920766Y26578856D01*
X23719590Y26517830D01*
X23719589Y26517830D01*
X23534170Y26418721D01*
X23371655Y26285349D01*
X23371651Y26285345D01*
X23238279Y26122830D01*
X23139170Y25937411D01*
X23139170Y25937410D01*
X23078144Y25736234D01*
X23078143Y25736229D01*
X23078143Y25736227D01*
X23057536Y25527000D01*
X22662464Y25527000D01*
X22641857Y25736227D01*
X22580828Y25937414D01*
X22481721Y26122829D01*
X22348347Y26285347D01*
X22185829Y26418721D01*
X22000414Y26517828D01*
X22000413Y26517829D01*
X22000410Y26517830D01*
X21799233Y26578856D01*
X21799228Y26578857D01*
X21799227Y26578857D01*
X21590000Y26599464D01*
X21380773Y26578857D01*
X21380771Y26578857D01*
X21380766Y26578856D01*
X21179590Y26517830D01*
X21179589Y26517830D01*
X20994170Y26418721D01*
X20831655Y26285349D01*
X20831651Y26285345D01*
X20698279Y26122830D01*
X20599170Y25937411D01*
X20599170Y25937410D01*
X20538144Y25736234D01*
X20538143Y25736229D01*
X20538143Y25736227D01*
X20517536Y25527000D01*
X20532157Y25378546D01*
X20538144Y25317767D01*
X20589214Y25149410D01*
X20585936Y25089372D01*
X20567254Y25061739D01*
X20254655Y24749139D01*
X20200161Y24723728D01*
X20142083Y24739290D01*
X20107595Y24788544D01*
X20104600Y24811294D01*
X20104600Y25987708D01*
X20125165Y26044209D01*
X20130334Y26049852D01*
X21124738Y27044257D01*
X21179231Y27069667D01*
X21212406Y27066217D01*
X21380773Y27015143D01*
X21590000Y26994536D01*
X21799227Y27015143D01*
X22000414Y27076172D01*
X22185829Y27175279D01*
X22348347Y27308653D01*
X22481721Y27471171D01*
X22580828Y27656586D01*
X22641857Y27857773D01*
X22662464Y28067000D01*
X23109084Y28067000D01*
X23128702Y27867823D01*
X23186796Y27676314D01*
X23281139Y27499809D01*
X23310952Y27463481D01*
X23678066Y27830596D01*
X23742131Y27730910D01*
X23852530Y27635248D01*
X23894573Y27616048D01*
X23526479Y27247954D01*
X23562808Y27218140D01*
X23739313Y27123797D01*
X23930822Y27065703D01*
X24130000Y27046085D01*
X24329177Y27065703D01*
X24520686Y27123797D01*
X24697194Y27218142D01*
X24733519Y27247954D01*
X24365426Y27616048D01*
X24407470Y27635248D01*
X24517869Y27730910D01*
X24581932Y27830595D01*
X24949046Y27463481D01*
X24978858Y27499806D01*
X25073203Y27676314D01*
X25131297Y27867823D01*
X25150915Y28067000D01*
X25131297Y28266178D01*
X25073203Y28457687D01*
X24978860Y28634192D01*
X24949046Y28670521D01*
X24581931Y28303407D01*
X24517869Y28403090D01*
X24407470Y28498752D01*
X24365424Y28517954D01*
X24733519Y28886048D01*
X24697191Y28915861D01*
X24520686Y29010204D01*
X24329177Y29068298D01*
X24130000Y29087916D01*
X23930822Y29068298D01*
X23739313Y29010204D01*
X23739309Y29010203D01*
X23562813Y28915865D01*
X23526479Y28886048D01*
X23894574Y28517953D01*
X23852530Y28498752D01*
X23742131Y28403090D01*
X23678067Y28303406D01*
X23310952Y28670521D01*
X23281135Y28634187D01*
X23186797Y28457691D01*
X23186796Y28457687D01*
X23128702Y28266178D01*
X23109084Y28067000D01*
X22662464Y28067000D01*
X22641857Y28276227D01*
X22580828Y28477414D01*
X22481721Y28662829D01*
X22348347Y28825347D01*
X22185829Y28958721D01*
X22000414Y29057828D01*
X22000413Y29057829D01*
X22000410Y29057830D01*
X21799233Y29118856D01*
X21799228Y29118857D01*
X21799227Y29118857D01*
X21590000Y29139464D01*
X21380773Y29118857D01*
X21380771Y29118857D01*
X21380766Y29118856D01*
X21179590Y29057830D01*
X21179589Y29057830D01*
X20994170Y28958721D01*
X20831655Y28825349D01*
X20831651Y28825345D01*
X20698279Y28662830D01*
X20599170Y28477411D01*
X20599170Y28477410D01*
X20538144Y28276234D01*
X20538143Y28276229D01*
X20538143Y28276227D01*
X20517536Y28067000D01*
X20537153Y27867823D01*
X20538144Y27857767D01*
X20589214Y27689410D01*
X20585936Y27629372D01*
X20567254Y27601739D01*
X19475807Y26510290D01*
X19387510Y26421994D01*
X19376387Y26400166D01*
X19369185Y26388414D01*
X19354786Y26368594D01*
X19347217Y26345300D01*
X19341941Y26332562D01*
X19330820Y26310735D01*
X19330819Y26310734D01*
X19326987Y26286540D01*
X19323769Y26273136D01*
X19316200Y26249839D01*
X19316200Y8683293D01*
X19295635Y8626792D01*
X19290455Y8621138D01*
X17279310Y6609994D01*
X17268187Y6588166D01*
X17260985Y6576414D01*
X17246586Y6556594D01*
X17239017Y6533300D01*
X17233741Y6520562D01*
X17222620Y6498735D01*
X17222619Y6498734D01*
X17218787Y6474540D01*
X17215569Y6461136D01*
X17208000Y6437839D01*
X17208000Y6152810D01*
X17187435Y6096309D01*
X17135364Y6066245D01*
X17127048Y6065723D01*
X16758731Y5697407D01*
X16694669Y5797090D01*
X16584270Y5892752D01*
X16542224Y5911954D01*
X16910319Y6280048D01*
X16873991Y6309861D01*
X16697486Y6404204D01*
X16505977Y6462298D01*
X16306800Y6481916D01*
X16107622Y6462298D01*
X15916113Y6404204D01*
X15916109Y6404203D01*
X15739613Y6309865D01*
X15703279Y6280048D01*
X16071374Y5911953D01*
X16029330Y5892752D01*
X15918931Y5797090D01*
X15854867Y5697406D01*
X15487752Y6064521D01*
X15457935Y6028187D01*
X15363597Y5851691D01*
X15363596Y5851687D01*
X15305502Y5660178D01*
X15285884Y5461000D01*
X15305502Y5261823D01*
X15363596Y5070314D01*
X15457939Y4893809D01*
X15487752Y4857481D01*
X15854866Y5224596D01*
X15918931Y5124910D01*
X16029330Y5029248D01*
X16071373Y5010048D01*
X15703279Y4641954D01*
X15739608Y4612140D01*
X15916113Y4517797D01*
X16107622Y4459703D01*
X16306800Y4440085D01*
X16505977Y4459703D01*
X16697486Y4517797D01*
X16873994Y4612142D01*
X16910319Y4641954D01*
X16542226Y5010048D01*
X16584270Y5029248D01*
X16694669Y5124910D01*
X16758732Y5224594D01*
X17131066Y4852260D01*
X17173228Y4839219D01*
X17205811Y4788686D01*
X17208000Y4769192D01*
X17208000Y4416094D01*
X17187435Y4359593D01*
X17182255Y4353939D01*
X16772061Y3943746D01*
X16717567Y3918335D01*
X16684390Y3921786D01*
X16516033Y3972856D01*
X16516028Y3972857D01*
X16516027Y3972857D01*
X16306800Y3993464D01*
X16097573Y3972857D01*
X16097571Y3972857D01*
X16097566Y3972856D01*
X15929209Y3921785D01*
X15869171Y3925063D01*
X15841538Y3943745D01*
X15217404Y4567880D01*
X15195192Y4590091D01*
X15185146Y4595210D01*
X15173365Y4601213D01*
X15161614Y4608414D01*
X15141794Y4622813D01*
X15141791Y4622814D01*
X15118493Y4630385D01*
X15105758Y4635660D01*
X15083934Y4646780D01*
X15080307Y4647355D01*
X15059726Y4650615D01*
X15046335Y4653830D01*
X15023035Y4661400D01*
X14991626Y4661400D01*
X4592108Y4661400D01*
X4467237Y4661400D01*
X4467233Y4661400D01*
X4443936Y4653831D01*
X4430532Y4650613D01*
X4406338Y4646781D01*
X4406337Y4646780D01*
X4384510Y4635659D01*
X4371772Y4630383D01*
X4348478Y4622814D01*
X4328658Y4608415D01*
X4316906Y4601213D01*
X4295078Y4590090D01*
X3455110Y3750122D01*
X3443987Y3728294D01*
X3436785Y3716542D01*
X3422386Y3696722D01*
X3414817Y3673428D01*
X3409541Y3660690D01*
X3398420Y3638863D01*
X3398419Y3638862D01*
X3394587Y3614668D01*
X3391369Y3601264D01*
X3383800Y3577967D01*
X3383800Y3539549D01*
X3363235Y3483048D01*
X3331653Y3459249D01*
X3322859Y3455334D01*
X3168898Y3343475D01*
X3041563Y3202055D01*
X2946411Y3037248D01*
X2923188Y2965773D01*
X2903457Y2905045D01*
X2887604Y2856255D01*
X2867713Y2667005D01*
X2867713Y2667004D01*
X2867713Y2667000D01*
X2870580Y2639723D01*
X2874444Y2602955D01*
X2859897Y2544614D01*
X2811253Y2509273D01*
X2751272Y2513468D01*
X2724870Y2531613D01*
X2671254Y2585229D01*
X2645843Y2639723D01*
X2649811Y2674546D01*
X2668395Y2731741D01*
X2681482Y2856255D01*
X2688287Y2920996D01*
X2688287Y2921005D01*
X2668395Y3110255D01*
X2668395Y3110259D01*
X2609589Y3291247D01*
X2514438Y3456053D01*
X2387101Y3597475D01*
X2366243Y3612629D01*
X2233147Y3709330D01*
X2233145Y3709331D01*
X2233144Y3709332D01*
X2059294Y3786734D01*
X2059291Y3786735D01*
X2059290Y3786735D01*
X1873151Y3826300D01*
X1682849Y3826300D01*
X1496708Y3786735D01*
X1496704Y3786733D01*
X1322858Y3709333D01*
X1168898Y3597475D01*
X1041563Y3456055D01*
X946411Y3291248D01*
X887604Y3110255D01*
X867713Y2921005D01*
X867713Y2920996D01*
X884152Y2764586D01*
X887605Y2731741D01*
X946411Y2550753D01*
X1041562Y2385947D01*
X1168899Y2244525D01*
X1322856Y2132668D01*
X1496706Y2055266D01*
X1682849Y2015700D01*
X1873151Y2015700D01*
X2034842Y2050069D01*
X2094383Y2041701D01*
X2115272Y2026245D01*
X2750510Y1391007D01*
X2838807Y1302710D01*
X2856132Y1293883D01*
X2860634Y1291588D01*
X2872387Y1284386D01*
X2892206Y1269987D01*
X2892207Y1269987D01*
X2892208Y1269986D01*
X2892210Y1269985D01*
X2915497Y1262419D01*
X2928238Y1257143D01*
X2950067Y1246020D01*
X2969256Y1242982D01*
X2974258Y1242189D01*
X2987673Y1238968D01*
X3010963Y1231400D01*
X3010964Y1231400D01*
X4228034Y1231400D01*
X4228035Y1231400D01*
X4251329Y1238970D01*
X4264738Y1242189D01*
X4288933Y1246020D01*
X4310759Y1257142D01*
X4323501Y1262419D01*
X4346794Y1269987D01*
X4366615Y1284389D01*
X4378361Y1291587D01*
X4400193Y1302710D01*
X4488490Y1391007D01*
X4488490Y1391008D01*
X4972029Y1874549D01*
X4972032Y1874550D01*
X4984392Y1886910D01*
X4984393Y1886910D01*
X5072690Y1975207D01*
X5083809Y1997031D01*
X5091010Y2008784D01*
X5105414Y2028606D01*
X5112982Y2051903D01*
X5118261Y2064646D01*
X5129380Y2086467D01*
X5133213Y2110675D01*
X5136438Y2124096D01*
X5136920Y2125580D01*
X5173958Y2172943D01*
X5232776Y2185419D01*
X5272171Y2169493D01*
X5322856Y2132668D01*
X5496706Y2055266D01*
X5682849Y2015700D01*
X5873151Y2015700D01*
X6034842Y2050069D01*
X6094383Y2041701D01*
X6115272Y2026245D01*
X7309309Y832207D01*
X7355962Y785555D01*
X7381373Y731062D01*
X7365812Y672983D01*
X7316559Y638495D01*
X7293808Y635500D01*
X723400Y635500D01*
X666899Y656065D01*
X636835Y708136D01*
X635500Y723400D01*
X635500Y14859000D01*
X4642536Y14859000D01*
X4663144Y14649767D01*
X4724170Y14448591D01*
X4724170Y14448590D01*
X4724171Y14448587D01*
X4724172Y14448586D01*
X4823279Y14263171D01*
X4956653Y14100653D01*
X5119171Y13967279D01*
X5304586Y13868172D01*
X5304588Y13868172D01*
X5304589Y13868171D01*
X5489230Y13812161D01*
X5505773Y13807143D01*
X5715000Y13786536D01*
X5924227Y13807143D01*
X6125414Y13868172D01*
X6310829Y13967279D01*
X6473347Y14100653D01*
X6606721Y14263171D01*
X6655717Y14354837D01*
X6700488Y14394971D01*
X6733238Y14401300D01*
X8537004Y14401300D01*
X8593505Y14380735D01*
X8599159Y14375555D01*
X9031435Y13943280D01*
X9034719Y13939605D01*
X9060168Y13907692D01*
X9110105Y13873646D01*
X9158715Y13837770D01*
X9158720Y13837769D01*
X9164543Y13834690D01*
X9164426Y13834470D01*
X9168124Y13832604D01*
X9168233Y13832828D01*
X9174163Y13829973D01*
X9174168Y13829969D01*
X9231900Y13812161D01*
X9288947Y13792199D01*
X9288948Y13792199D01*
X9295425Y13790973D01*
X9295378Y13790728D01*
X9299458Y13790035D01*
X9299496Y13790282D01*
X9306011Y13789300D01*
X9366425Y13789300D01*
X9426825Y13787040D01*
X9426828Y13787042D01*
X9426830Y13787041D01*
X9433372Y13787777D01*
X9433399Y13787532D01*
X9446833Y13789300D01*
X10556801Y13789300D01*
X10613302Y13768735D01*
X10643366Y13716664D01*
X10644701Y13701400D01*
X10644701Y13101422D01*
X10647662Y13075891D01*
X10693766Y12971475D01*
X10774475Y12890766D01*
X10878891Y12844662D01*
X10904421Y12841700D01*
X14495578Y12841701D01*
X14521109Y12844662D01*
X14625525Y12890766D01*
X14706234Y12971475D01*
X14752338Y13075891D01*
X14755300Y13101421D01*
X14755299Y15392578D01*
X14752338Y15418109D01*
X14706234Y15522525D01*
X14625525Y15603234D01*
X14593562Y15617347D01*
X14521110Y15649338D01*
X14521107Y15649339D01*
X14495590Y15652299D01*
X14495585Y15652300D01*
X14495579Y15652300D01*
X14495572Y15652300D01*
X13245600Y15652300D01*
X13189099Y15672865D01*
X13159035Y15724936D01*
X13157700Y15740200D01*
X13157700Y18953801D01*
X13178265Y19010302D01*
X13230336Y19040366D01*
X13245600Y19041701D01*
X13345575Y19041701D01*
X13345578Y19041701D01*
X13371109Y19044662D01*
X13475525Y19090766D01*
X13556234Y19171475D01*
X13602338Y19275891D01*
X13605300Y19301421D01*
X13605300Y19321982D01*
X14146001Y19321982D01*
X14160737Y19247894D01*
X14216875Y19163878D01*
X14216877Y19163876D01*
X14300894Y19107738D01*
X14374981Y19093001D01*
X14847600Y19093001D01*
X14847600Y19093002D01*
X15152400Y19093002D01*
X15152401Y19093001D01*
X15625018Y19093001D01*
X15699106Y19107738D01*
X15783122Y19163876D01*
X15783124Y19163878D01*
X15839262Y19247895D01*
X15854000Y19321985D01*
X15854000Y20294599D01*
X15853999Y20294600D01*
X15152401Y20294600D01*
X15152400Y20294599D01*
X15152400Y19093002D01*
X14847600Y19093002D01*
X14847600Y20294599D01*
X14847599Y20294600D01*
X14146002Y20294600D01*
X14146001Y20294599D01*
X14146001Y19321982D01*
X13605300Y19321982D01*
X13605299Y20599401D01*
X14146000Y20599401D01*
X14146001Y20599400D01*
X14847599Y20599400D01*
X14847600Y20599401D01*
X15152400Y20599401D01*
X15152401Y20599400D01*
X15853998Y20599400D01*
X15853999Y20599401D01*
X15853999Y21572019D01*
X15839262Y21646107D01*
X15783124Y21730123D01*
X15783122Y21730125D01*
X15699105Y21786263D01*
X15625015Y21801000D01*
X15152401Y21801000D01*
X15152400Y21800999D01*
X15152400Y20599401D01*
X14847600Y20599401D01*
X14847600Y21800999D01*
X14847599Y21801000D01*
X14374981Y21801000D01*
X14300893Y21786263D01*
X14216877Y21730125D01*
X14216875Y21730123D01*
X14160737Y21646106D01*
X14146000Y21572016D01*
X14146000Y20599401D01*
X13605299Y20599401D01*
X13605299Y21592578D01*
X13602338Y21618109D01*
X13556234Y21722525D01*
X13475525Y21803234D01*
X13475523Y21803235D01*
X13371110Y21849338D01*
X13371107Y21849339D01*
X13345590Y21852299D01*
X13345585Y21852300D01*
X13345579Y21852300D01*
X13345572Y21852300D01*
X13309100Y21852300D01*
X13252599Y21872865D01*
X13222535Y21924936D01*
X13221200Y21940200D01*
X13221200Y22085801D01*
X13241765Y22142302D01*
X13293836Y22172366D01*
X13309100Y22173701D01*
X13317075Y22173701D01*
X13317078Y22173701D01*
X13342609Y22176662D01*
X13447025Y22222766D01*
X13527734Y22303475D01*
X13573838Y22407891D01*
X13576800Y22433421D01*
X13576800Y22453982D01*
X14160501Y22453982D01*
X14175237Y22379894D01*
X14231375Y22295878D01*
X14231377Y22295876D01*
X14315394Y22239738D01*
X14389481Y22225001D01*
X14770100Y22225001D01*
X14770100Y22225002D01*
X15074900Y22225002D01*
X15074901Y22225001D01*
X15455518Y22225001D01*
X15529606Y22239738D01*
X15613622Y22295876D01*
X15613624Y22295878D01*
X15669762Y22379895D01*
X15684500Y22453985D01*
X15684500Y22961599D01*
X15684499Y22961600D01*
X15074901Y22961600D01*
X15074900Y22961599D01*
X15074900Y22225002D01*
X14770100Y22225002D01*
X14770100Y22961599D01*
X14770099Y22961600D01*
X14160502Y22961600D01*
X14160501Y22961599D01*
X14160501Y22453982D01*
X13576800Y22453982D01*
X13576799Y23266401D01*
X14160500Y23266401D01*
X14160501Y23266400D01*
X14770099Y23266400D01*
X14770100Y23266401D01*
X15074900Y23266401D01*
X15074901Y23266400D01*
X15684498Y23266400D01*
X15684499Y23266401D01*
X15684499Y23774019D01*
X15669762Y23848107D01*
X15613624Y23932123D01*
X15613622Y23932125D01*
X15529605Y23988263D01*
X15455515Y24003000D01*
X15074901Y24003000D01*
X15074900Y24002999D01*
X15074900Y23266401D01*
X14770100Y23266401D01*
X14770100Y24002999D01*
X14770099Y24003000D01*
X14389481Y24003000D01*
X14315393Y23988263D01*
X14231377Y23932125D01*
X14231375Y23932123D01*
X14175237Y23848106D01*
X14160500Y23774016D01*
X14160500Y23266401D01*
X13576799Y23266401D01*
X13576799Y23794578D01*
X13573838Y23820109D01*
X13527734Y23924525D01*
X13447025Y24005234D01*
X13342609Y24051338D01*
X13340997Y24051525D01*
X13326725Y24053181D01*
X13272971Y24080121D01*
X13249110Y24135311D01*
X13255646Y24174129D01*
X13308404Y24301493D01*
X13327626Y24447500D01*
X13308404Y24593507D01*
X13252047Y24729563D01*
X13252045Y24729566D01*
X13252042Y24729571D01*
X13162402Y24846391D01*
X13162400Y24846393D01*
X13162397Y24846397D01*
X13162392Y24846401D01*
X13162390Y24846403D01*
X13045570Y24936043D01*
X13045563Y24936047D01*
X12909507Y24992404D01*
X12763500Y25011626D01*
X12617492Y24992404D01*
X12481436Y24936047D01*
X12481429Y24936043D01*
X12364609Y24846403D01*
X12364597Y24846391D01*
X12274957Y24729571D01*
X12274953Y24729564D01*
X12218596Y24593508D01*
X12199374Y24447501D01*
X12199374Y24447500D01*
X12218596Y24301493D01*
X12271351Y24174133D01*
X12273974Y24114063D01*
X12237371Y24066361D01*
X12200271Y24053181D01*
X12184398Y24051340D01*
X12184387Y24051337D01*
X12079976Y24005235D01*
X11999265Y23924524D01*
X11953162Y23820111D01*
X11953161Y23820108D01*
X11950201Y23794591D01*
X11950200Y23794572D01*
X11950200Y22433426D01*
X11951424Y22422878D01*
X11953162Y22407891D01*
X11953162Y22407890D01*
X11953163Y22407888D01*
X11999183Y22303663D01*
X11999266Y22303475D01*
X12079975Y22222766D01*
X12184391Y22176662D01*
X12209921Y22173700D01*
X12217894Y22173701D01*
X12274395Y22153142D01*
X12304463Y22101073D01*
X12305800Y22085801D01*
X12305800Y21940200D01*
X12285235Y21883699D01*
X12233164Y21853635D01*
X12217901Y21852300D01*
X12054424Y21852300D01*
X12028892Y21849339D01*
X12028887Y21849337D01*
X11924476Y21803235D01*
X11843765Y21722524D01*
X11797662Y21618111D01*
X11797661Y21618108D01*
X11794701Y21592591D01*
X11794700Y21592572D01*
X11794700Y19301426D01*
X11794701Y19301421D01*
X11797662Y19275891D01*
X11797662Y19275890D01*
X11797663Y19275888D01*
X11839714Y19180652D01*
X11843766Y19171475D01*
X11924475Y19090766D01*
X12028891Y19044662D01*
X12054421Y19041700D01*
X12154400Y19041701D01*
X12210900Y19021137D01*
X12240964Y18969066D01*
X12242300Y18953801D01*
X12242300Y15740200D01*
X12221735Y15683699D01*
X12169664Y15653635D01*
X12154400Y15652300D01*
X10904425Y15652300D01*
X10882747Y15649786D01*
X10878891Y15649338D01*
X10878890Y15649338D01*
X10878887Y15649337D01*
X10774476Y15603235D01*
X10693765Y15522524D01*
X10647662Y15418111D01*
X10647661Y15418108D01*
X10644701Y15392591D01*
X10644700Y15392572D01*
X10644700Y14792600D01*
X10624135Y14736099D01*
X10572064Y14706035D01*
X10556800Y14704700D01*
X9600995Y14704700D01*
X9544494Y14725265D01*
X9538840Y14730445D01*
X9106564Y15162721D01*
X9103281Y15166395D01*
X9077832Y15198308D01*
X9027894Y15232355D01*
X8979283Y15268232D01*
X8973461Y15271309D01*
X8973575Y15271526D01*
X8969868Y15273398D01*
X8969762Y15273175D01*
X8963830Y15276032D01*
X8906085Y15293844D01*
X8849052Y15313801D01*
X8842583Y15315025D01*
X8842628Y15315266D01*
X8838535Y15315962D01*
X8838499Y15315719D01*
X8831990Y15316700D01*
X8831987Y15316700D01*
X8771563Y15316700D01*
X8711175Y15318960D01*
X8711174Y15318960D01*
X8711168Y15318960D01*
X8704628Y15318223D01*
X8704600Y15318469D01*
X8691167Y15316700D01*
X6733238Y15316700D01*
X6676737Y15337265D01*
X6655717Y15363164D01*
X6639998Y15392572D01*
X6606721Y15454829D01*
X6473347Y15617347D01*
X6310829Y15750721D01*
X6125414Y15849828D01*
X6125413Y15849829D01*
X6125410Y15849830D01*
X5924233Y15910856D01*
X5924228Y15910857D01*
X5924227Y15910857D01*
X5715000Y15931464D01*
X5505773Y15910857D01*
X5505771Y15910857D01*
X5505766Y15910856D01*
X5304590Y15849830D01*
X5304589Y15849830D01*
X5119170Y15750721D01*
X4956655Y15617349D01*
X4956651Y15617345D01*
X4823279Y15454830D01*
X4724170Y15269411D01*
X4724170Y15269410D01*
X4663144Y15068234D01*
X4642536Y14859000D01*
X635500Y14859000D01*
X635500Y17399000D01*
X4642536Y17399000D01*
X4651186Y17311171D01*
X4663144Y17189767D01*
X4724170Y16988591D01*
X4724170Y16988590D01*
X4724171Y16988587D01*
X4724172Y16988586D01*
X4823279Y16803171D01*
X4956653Y16640653D01*
X5119171Y16507279D01*
X5304586Y16408172D01*
X5505773Y16347143D01*
X5715000Y16326536D01*
X5924227Y16347143D01*
X6125414Y16408172D01*
X6310829Y16507279D01*
X6473347Y16640653D01*
X6606721Y16803171D01*
X6705828Y16988586D01*
X6766857Y17189773D01*
X6787464Y17399000D01*
X6766857Y17608227D01*
X6705828Y17809414D01*
X6606721Y17994829D01*
X6473347Y18157347D01*
X6310829Y18290721D01*
X6125414Y18389828D01*
X6125413Y18389829D01*
X6125410Y18389830D01*
X5924233Y18450856D01*
X5924228Y18450857D01*
X5924227Y18450857D01*
X5715000Y18471464D01*
X5505773Y18450857D01*
X5505771Y18450857D01*
X5505766Y18450856D01*
X5304590Y18389830D01*
X5304589Y18389830D01*
X5119170Y18290721D01*
X4956655Y18157349D01*
X4956651Y18157345D01*
X4823279Y17994830D01*
X4724170Y17809411D01*
X4724170Y17809410D01*
X4663144Y17608234D01*
X4663143Y17608229D01*
X4663143Y17608227D01*
X4642536Y17399000D01*
X635500Y17399000D01*
X635500Y19939000D01*
X4642536Y19939000D01*
X4651186Y19851171D01*
X4663144Y19729767D01*
X4724170Y19528591D01*
X4724170Y19528590D01*
X4724171Y19528587D01*
X4724172Y19528586D01*
X4823279Y19343171D01*
X4956653Y19180653D01*
X5119171Y19047279D01*
X5304586Y18948172D01*
X5304588Y18948172D01*
X5304589Y18948171D01*
X5436033Y18908298D01*
X5505773Y18887143D01*
X5715000Y18866536D01*
X5924227Y18887143D01*
X6125414Y18948172D01*
X6310829Y19047279D01*
X6473347Y19180653D01*
X6606721Y19343171D01*
X6705828Y19528586D01*
X6766857Y19729773D01*
X6787464Y19939000D01*
X6766857Y20148227D01*
X6705828Y20349414D01*
X6606721Y20534829D01*
X6606718Y20534833D01*
X6510152Y20652502D01*
X6490200Y20708264D01*
X6490200Y22212801D01*
X6510765Y22269302D01*
X6562836Y22299366D01*
X6578100Y22300701D01*
X6586075Y22300701D01*
X6586078Y22300701D01*
X6611609Y22303662D01*
X6716025Y22349766D01*
X6796734Y22430475D01*
X6842838Y22534891D01*
X6845800Y22560421D01*
X6845800Y22695400D01*
X6866365Y22751901D01*
X6918436Y22781965D01*
X6933700Y22783300D01*
X9680004Y22783300D01*
X9736505Y22762735D01*
X9742159Y22757555D01*
X9916555Y22583159D01*
X9941966Y22528665D01*
X9942300Y22521004D01*
X9942300Y21940200D01*
X9921735Y21883699D01*
X9869664Y21853635D01*
X9854401Y21852300D01*
X9754424Y21852300D01*
X9728892Y21849339D01*
X9728887Y21849337D01*
X9624476Y21803235D01*
X9543765Y21722524D01*
X9497662Y21618111D01*
X9497661Y21618108D01*
X9494701Y21592591D01*
X9494700Y21592572D01*
X9494700Y19301426D01*
X9494701Y19301421D01*
X9497662Y19275891D01*
X9497662Y19275890D01*
X9497663Y19275888D01*
X9539714Y19180652D01*
X9543766Y19171475D01*
X9624475Y19090766D01*
X9728891Y19044662D01*
X9754421Y19041700D01*
X11045578Y19041701D01*
X11071109Y19044662D01*
X11175525Y19090766D01*
X11256234Y19171475D01*
X11302338Y19275891D01*
X11305300Y19301421D01*
X11305299Y21592578D01*
X11302338Y21618109D01*
X11256234Y21722525D01*
X11175525Y21803234D01*
X11175523Y21803235D01*
X11071110Y21849338D01*
X11071107Y21849339D01*
X11045590Y21852299D01*
X11045585Y21852300D01*
X11045579Y21852300D01*
X11045572Y21852300D01*
X10945600Y21852300D01*
X10889099Y21872865D01*
X10859035Y21924936D01*
X10857700Y21940200D01*
X10857700Y22718830D01*
X10857977Y22723756D01*
X10862546Y22764307D01*
X10851313Y22823671D01*
X10851313Y22823672D01*
X10842306Y22883433D01*
X10842304Y22883436D01*
X10840364Y22889729D01*
X10840601Y22889803D01*
X10839304Y22893744D01*
X10839069Y22893661D01*
X10836896Y22899870D01*
X10836895Y22899876D01*
X10808660Y22953300D01*
X10782441Y23007744D01*
X10782438Y23007747D01*
X10782438Y23007748D01*
X10778730Y23013188D01*
X10778935Y23013328D01*
X10776533Y23016713D01*
X10776333Y23016565D01*
X10772421Y23021866D01*
X10729692Y23064594D01*
X10688595Y23108886D01*
X10688591Y23108889D01*
X10683447Y23112991D01*
X10683601Y23113185D01*
X10672853Y23121433D01*
X10249563Y23544722D01*
X10246288Y23548387D01*
X10220832Y23580308D01*
X10217134Y23582829D01*
X10170894Y23614355D01*
X10122283Y23650232D01*
X10116461Y23653309D01*
X10116575Y23653526D01*
X10112868Y23655398D01*
X10112762Y23655175D01*
X10106830Y23658032D01*
X10049085Y23675844D01*
X9992052Y23695801D01*
X9985583Y23697025D01*
X9985628Y23697266D01*
X9981535Y23697962D01*
X9981499Y23697719D01*
X9974990Y23698700D01*
X9974987Y23698700D01*
X9914563Y23698700D01*
X9854175Y23700960D01*
X9854174Y23700960D01*
X9854168Y23700960D01*
X9847628Y23700223D01*
X9847600Y23700469D01*
X9834167Y23698700D01*
X6933699Y23698700D01*
X6877198Y23719265D01*
X6847134Y23771336D01*
X6845799Y23786600D01*
X6845799Y23921575D01*
X6845457Y23924525D01*
X6842838Y23947109D01*
X6796734Y24051525D01*
X6716025Y24132234D01*
X6716023Y24132235D01*
X6611610Y24178338D01*
X6611607Y24178339D01*
X6586090Y24181299D01*
X6586085Y24181300D01*
X6586079Y24181300D01*
X6586072Y24181300D01*
X6578100Y24181300D01*
X6521599Y24201865D01*
X6491535Y24253936D01*
X6490200Y24269200D01*
X6490200Y24944506D01*
X6510765Y25001007D01*
X6515934Y25006650D01*
X7624639Y26115356D01*
X7679132Y26140766D01*
X7712309Y26137315D01*
X7811766Y26107145D01*
X7811773Y26107143D01*
X8021000Y26086536D01*
X8230227Y26107143D01*
X8431414Y26168172D01*
X8616829Y26267279D01*
X8779347Y26400653D01*
X8912721Y26563171D01*
X9011828Y26748586D01*
X9072857Y26949773D01*
X9093464Y27159000D01*
X9448536Y27159000D01*
X9464734Y26994536D01*
X9469144Y26949767D01*
X9530170Y26748591D01*
X9530170Y26748590D01*
X9530171Y26748587D01*
X9530172Y26748586D01*
X9629279Y26563171D01*
X9762653Y26400653D01*
X9925171Y26267279D01*
X10110586Y26168172D01*
X10110588Y26168172D01*
X10110589Y26168171D01*
X10260062Y26122829D01*
X10311773Y26107143D01*
X10521000Y26086536D01*
X10730227Y26107143D01*
X10931414Y26168172D01*
X11116829Y26267279D01*
X11279347Y26400653D01*
X11412721Y26563171D01*
X11511828Y26748586D01*
X11572857Y26949773D01*
X11593464Y27159000D01*
X11572857Y27368227D01*
X11511828Y27569414D01*
X11412721Y27754829D01*
X11279347Y27917347D01*
X11116829Y28050721D01*
X11059282Y28081481D01*
X11019149Y28126250D01*
X11017182Y28186345D01*
X11054303Y28233645D01*
X11059269Y28236513D01*
X11116829Y28267279D01*
X11279347Y28400653D01*
X11412721Y28563171D01*
X11511828Y28748586D01*
X11572857Y28949773D01*
X11593464Y29159000D01*
X11572857Y29368227D01*
X11511828Y29569414D01*
X11412721Y29754829D01*
X11279347Y29917347D01*
X11116829Y30050721D01*
X10931414Y30149828D01*
X10931413Y30149829D01*
X10931410Y30149830D01*
X10730233Y30210856D01*
X10730228Y30210857D01*
X10730227Y30210857D01*
X10521000Y30231464D01*
X10311773Y30210857D01*
X10311771Y30210857D01*
X10311766Y30210856D01*
X10110590Y30149830D01*
X10110589Y30149830D01*
X9925170Y30050721D01*
X9762655Y29917349D01*
X9762651Y29917345D01*
X9629279Y29754830D01*
X9530170Y29569411D01*
X9530170Y29569410D01*
X9469144Y29368234D01*
X9469143Y29368229D01*
X9469143Y29368227D01*
X9448536Y29159000D01*
X9468153Y28959823D01*
X9469144Y28949767D01*
X9530170Y28748591D01*
X9530170Y28748590D01*
X9530171Y28748587D01*
X9530172Y28748586D01*
X9629279Y28563171D01*
X9762653Y28400653D01*
X9925171Y28267279D01*
X9982715Y28236521D01*
X10022850Y28191749D01*
X10024817Y28131654D01*
X9987696Y28084355D01*
X9982715Y28081479D01*
X9925170Y28050721D01*
X9762655Y27917349D01*
X9762651Y27917345D01*
X9629279Y27754830D01*
X9530170Y27569411D01*
X9530170Y27569410D01*
X9469144Y27368234D01*
X9469143Y27368229D01*
X9469143Y27368227D01*
X9448536Y27159000D01*
X9093464Y27159000D01*
X9072857Y27368227D01*
X9011828Y27569414D01*
X8912721Y27754829D01*
X8779347Y27917347D01*
X8616829Y28050721D01*
X8504870Y28110565D01*
X8464737Y28155334D01*
X8462770Y28215429D01*
X8499891Y28262729D01*
X8504872Y28265605D01*
X8588194Y28310142D01*
X8624519Y28339954D01*
X8624519Y28339955D01*
X8256426Y28708048D01*
X8298470Y28727248D01*
X8408869Y28822910D01*
X8472932Y28922595D01*
X8840046Y28555481D01*
X8869858Y28591806D01*
X8964203Y28768314D01*
X9022297Y28959823D01*
X9041915Y29159000D01*
X9022297Y29358178D01*
X8964203Y29549687D01*
X8869860Y29726192D01*
X8840046Y29762521D01*
X8472931Y29395407D01*
X8408869Y29495090D01*
X8298470Y29590752D01*
X8256424Y29609954D01*
X8624519Y29978048D01*
X8588191Y30007861D01*
X8411686Y30102204D01*
X8220177Y30160298D01*
X8021000Y30179916D01*
X7821822Y30160298D01*
X7630313Y30102204D01*
X7630309Y30102203D01*
X7453813Y30007865D01*
X7417479Y29978048D01*
X7785574Y29609953D01*
X7743530Y29590752D01*
X7633131Y29495090D01*
X7569067Y29395406D01*
X7201952Y29762521D01*
X7172135Y29726187D01*
X7100121Y29591455D01*
X7055350Y29551319D01*
X6995255Y29549351D01*
X6947955Y29586472D01*
X6934700Y29632890D01*
X6934700Y30127005D01*
X6955265Y30183506D01*
X6960434Y30189149D01*
X7604640Y30833356D01*
X7659133Y30858766D01*
X7692306Y30855316D01*
X7791773Y30825143D01*
X8001000Y30804536D01*
X8210227Y30825143D01*
X8411414Y30886172D01*
X8596829Y30985279D01*
X8759347Y31118653D01*
X8892721Y31281171D01*
X8991828Y31466586D01*
X9052857Y31667773D01*
X9073464Y31877000D01*
X9520084Y31877000D01*
X9539702Y31677823D01*
X9597796Y31486314D01*
X9692139Y31309809D01*
X9721952Y31273481D01*
X10089066Y31640596D01*
X10153131Y31540910D01*
X10263530Y31445248D01*
X10305573Y31426048D01*
X9937479Y31057954D01*
X9973808Y31028140D01*
X10150313Y30933797D01*
X10341822Y30875703D01*
X10541000Y30856085D01*
X10740177Y30875703D01*
X10931686Y30933797D01*
X11108194Y31028142D01*
X11144519Y31057954D01*
X10776426Y31426048D01*
X10818470Y31445248D01*
X10928869Y31540910D01*
X10992932Y31640595D01*
X11360046Y31273481D01*
X11389858Y31309806D01*
X11484203Y31486314D01*
X11542297Y31677823D01*
X11561127Y31868998D01*
X13532082Y31868998D01*
X13551727Y31606850D01*
X13551729Y31606842D01*
X13610225Y31350554D01*
X13610227Y31350549D01*
X13706269Y31105835D01*
X13706270Y31105834D01*
X13837716Y30878164D01*
X13947264Y30740794D01*
X14363558Y31157088D01*
X14502782Y31004366D01*
X14582039Y30944514D01*
X14161663Y30524137D01*
X14194327Y30493828D01*
X14194333Y30493823D01*
X14411535Y30345736D01*
X14411545Y30345730D01*
X14648391Y30231671D01*
X14899608Y30154182D01*
X15159553Y30115001D01*
X15159561Y30115000D01*
X15422439Y30115000D01*
X15422446Y30115001D01*
X15682391Y30154182D01*
X15933608Y30231671D01*
X16170454Y30345730D01*
X16170464Y30345736D01*
X16387669Y30493825D01*
X16420335Y30524137D01*
X15999959Y30944513D01*
X16079218Y31004366D01*
X16218441Y31157087D01*
X16634734Y30740794D01*
X16744283Y30878164D01*
X16875729Y31105834D01*
X16875730Y31105835D01*
X16971772Y31350549D01*
X16971774Y31350554D01*
X17030270Y31606842D01*
X17030272Y31606850D01*
X17049918Y31868998D01*
X17049918Y31869003D01*
X17030272Y32131151D01*
X17030270Y32131159D01*
X16971774Y32387447D01*
X16971772Y32387452D01*
X16875730Y32632166D01*
X16875729Y32632167D01*
X16744283Y32859837D01*
X16634733Y32997208D01*
X16218439Y32580915D01*
X16079218Y32733634D01*
X15999958Y32793488D01*
X16420335Y33213865D01*
X16387672Y33244173D01*
X16387666Y33244178D01*
X16170464Y33392265D01*
X16170454Y33392271D01*
X15933608Y33506330D01*
X15682391Y33583819D01*
X15422446Y33623000D01*
X15159553Y33623000D01*
X14899608Y33583819D01*
X14648391Y33506330D01*
X14411545Y33392271D01*
X14411535Y33392265D01*
X14194334Y33244179D01*
X14194328Y33244174D01*
X14161663Y33213865D01*
X14582040Y32793488D01*
X14502782Y32733634D01*
X14363558Y32580914D01*
X13947264Y32997208D01*
X13947263Y32997208D01*
X13837721Y32859844D01*
X13837716Y32859837D01*
X13706270Y32632167D01*
X13706269Y32632166D01*
X13610227Y32387452D01*
X13610225Y32387447D01*
X13551729Y32131159D01*
X13551727Y32131151D01*
X13532082Y31869003D01*
X13532082Y31868998D01*
X11561127Y31868998D01*
X11561915Y31877000D01*
X11542297Y32076178D01*
X11484203Y32267687D01*
X11389860Y32444192D01*
X11360046Y32480521D01*
X10992931Y32113407D01*
X10928869Y32213090D01*
X10818470Y32308752D01*
X10776424Y32327954D01*
X11144519Y32696048D01*
X11108191Y32725861D01*
X10931686Y32820204D01*
X10740177Y32878298D01*
X10541000Y32897916D01*
X10341822Y32878298D01*
X10150313Y32820204D01*
X10150309Y32820203D01*
X9973813Y32725865D01*
X9937479Y32696048D01*
X10305574Y32327953D01*
X10263530Y32308752D01*
X10153131Y32213090D01*
X10089067Y32113406D01*
X9721952Y32480521D01*
X9692135Y32444187D01*
X9597797Y32267691D01*
X9597796Y32267687D01*
X9539702Y32076178D01*
X9520084Y31877000D01*
X9073464Y31877000D01*
X9052857Y32086227D01*
X8991828Y32287414D01*
X8892721Y32472829D01*
X8759347Y32635347D01*
X8596829Y32768721D01*
X8411414Y32867828D01*
X8411413Y32867829D01*
X8411410Y32867830D01*
X8210233Y32928856D01*
X8210228Y32928857D01*
X8210227Y32928857D01*
X8001000Y32949464D01*
X7791773Y32928857D01*
X7791771Y32928857D01*
X7791766Y32928856D01*
X7590590Y32867830D01*
X7590589Y32867830D01*
X7405170Y32768721D01*
X7242655Y32635349D01*
X7242651Y32635345D01*
X7109279Y32472830D01*
X7010170Y32287411D01*
X7010170Y32287410D01*
X6949144Y32086234D01*
X6949143Y32086229D01*
X6949143Y32086227D01*
X6928536Y31877000D01*
X6948153Y31677823D01*
X6949144Y31667767D01*
X6979314Y31568312D01*
X6976036Y31508275D01*
X6957354Y31480641D01*
X6173277Y30696565D01*
X6169599Y30693278D01*
X6137697Y30667838D01*
X6137690Y30667830D01*
X6103645Y30617895D01*
X6067768Y30569284D01*
X6064692Y30563463D01*
X6064476Y30563578D01*
X6062604Y30559871D01*
X6062825Y30559764D01*
X6059970Y30553836D01*
X6042156Y30496086D01*
X6022199Y30439055D01*
X6020975Y30432583D01*
X6020734Y30432629D01*
X6020039Y30428539D01*
X6020281Y30428502D01*
X6019300Y30421990D01*
X6019300Y30361564D01*
X6017040Y30301169D01*
X6017777Y30294628D01*
X6017531Y30294601D01*
X6019300Y30281168D01*
X6019300Y28731177D01*
X6019023Y28726252D01*
X6014453Y28685693D01*
X6018779Y28662830D01*
X6025688Y28626314D01*
X6034693Y28566571D01*
X6036636Y28560274D01*
X6036398Y28560201D01*
X6037695Y28556260D01*
X6037929Y28556341D01*
X6040104Y28550125D01*
X6040105Y28550124D01*
X6068339Y28496701D01*
X6077629Y28477411D01*
X6094560Y28442253D01*
X6098270Y28436812D01*
X6098067Y28436674D01*
X6100467Y28433292D01*
X6100665Y28433437D01*
X6104573Y28428142D01*
X6104574Y28428141D01*
X6104576Y28428138D01*
X6129624Y28403090D01*
X6147308Y28385406D01*
X6188407Y28341112D01*
X6193557Y28337005D01*
X6193401Y28336811D01*
X6204146Y28328568D01*
X6977354Y27555361D01*
X7002765Y27500867D01*
X6999314Y27467690D01*
X6969145Y27368236D01*
X6969143Y27368229D01*
X6969143Y27368227D01*
X6948536Y27159000D01*
X6964734Y26994536D01*
X6969144Y26949767D01*
X6999314Y26850312D01*
X6996036Y26790275D01*
X6977354Y26762641D01*
X5728781Y25514069D01*
X5725105Y25510783D01*
X5709840Y25498609D01*
X5693192Y25485332D01*
X5693191Y25485331D01*
X5693189Y25485329D01*
X5676562Y25460942D01*
X5659145Y25435395D01*
X5643284Y25413905D01*
X5623268Y25386784D01*
X5620192Y25380963D01*
X5619976Y25381078D01*
X5618104Y25377371D01*
X5618325Y25377264D01*
X5615470Y25371336D01*
X5597656Y25313586D01*
X5577699Y25256555D01*
X5576475Y25250083D01*
X5576234Y25250129D01*
X5575539Y25246039D01*
X5575781Y25246002D01*
X5574800Y25239490D01*
X5574800Y25179064D01*
X5572540Y25118669D01*
X5573277Y25112128D01*
X5573031Y25112101D01*
X5574800Y25098668D01*
X5574800Y24269200D01*
X5554235Y24212699D01*
X5502164Y24182635D01*
X5486908Y24181300D01*
X5478926Y24181300D01*
X5453392Y24178339D01*
X5453387Y24178337D01*
X5348976Y24132235D01*
X5268265Y24051524D01*
X5222162Y23947111D01*
X5222161Y23947108D01*
X5219201Y23921591D01*
X5219200Y23921572D01*
X5219200Y22560426D01*
X5221267Y22542605D01*
X5222162Y22534891D01*
X5222162Y22534890D01*
X5222163Y22534888D01*
X5257885Y22453985D01*
X5268266Y22430475D01*
X5348975Y22349766D01*
X5453391Y22303662D01*
X5478921Y22300700D01*
X5486894Y22300701D01*
X5543395Y22280142D01*
X5573463Y22228073D01*
X5574800Y22212801D01*
X5574800Y21076726D01*
X5554235Y21020225D01*
X5509425Y20993692D01*
X5509905Y20992111D01*
X5304590Y20929830D01*
X5304589Y20929830D01*
X5119170Y20830721D01*
X4956655Y20697349D01*
X4956651Y20697345D01*
X4823279Y20534830D01*
X4724170Y20349411D01*
X4724170Y20349410D01*
X4663144Y20148234D01*
X4663143Y20148229D01*
X4663143Y20148227D01*
X4642536Y19939000D01*
X635500Y19939000D01*
X635500Y22580982D01*
X3111501Y22580982D01*
X3126237Y22506894D01*
X3182375Y22422878D01*
X3182377Y22422876D01*
X3266394Y22366738D01*
X3340481Y22352001D01*
X3721100Y22352001D01*
X3721100Y22352002D01*
X4025900Y22352002D01*
X4025901Y22352001D01*
X4406518Y22352001D01*
X4480606Y22366738D01*
X4564622Y22422876D01*
X4564624Y22422878D01*
X4620762Y22506895D01*
X4635500Y22580985D01*
X4635500Y23088599D01*
X4635499Y23088600D01*
X4025901Y23088600D01*
X4025900Y23088599D01*
X4025900Y22352002D01*
X3721100Y22352002D01*
X3721100Y23088599D01*
X3721099Y23088600D01*
X3111502Y23088600D01*
X3111501Y23088599D01*
X3111501Y22580982D01*
X635500Y22580982D01*
X635500Y23393401D01*
X3111500Y23393401D01*
X3111501Y23393400D01*
X3721099Y23393400D01*
X3721100Y23393401D01*
X4025900Y23393401D01*
X4025901Y23393400D01*
X4635498Y23393400D01*
X4635499Y23393401D01*
X4635499Y23901019D01*
X4620762Y23975107D01*
X4564624Y24059123D01*
X4564622Y24059125D01*
X4480605Y24115263D01*
X4406515Y24130000D01*
X4025901Y24130000D01*
X4025900Y24129999D01*
X4025900Y23393401D01*
X3721100Y23393401D01*
X3721100Y24129999D01*
X3721099Y24130000D01*
X3340481Y24130000D01*
X3266393Y24115263D01*
X3182377Y24059125D01*
X3182375Y24059123D01*
X3126237Y23975106D01*
X3111500Y23901016D01*
X3111500Y23393401D01*
X635500Y23393401D01*
X635500Y31868998D01*
X1492082Y31868998D01*
X1511727Y31606850D01*
X1511729Y31606842D01*
X1570225Y31350554D01*
X1570227Y31350549D01*
X1666269Y31105835D01*
X1666270Y31105834D01*
X1797716Y30878164D01*
X1907264Y30740794D01*
X2323558Y31157088D01*
X2462782Y31004366D01*
X2542039Y30944514D01*
X2121663Y30524137D01*
X2154327Y30493828D01*
X2154333Y30493823D01*
X2371535Y30345736D01*
X2371545Y30345730D01*
X2608391Y30231671D01*
X2859608Y30154182D01*
X3119553Y30115001D01*
X3119561Y30115000D01*
X3382439Y30115000D01*
X3382446Y30115001D01*
X3642391Y30154182D01*
X3893608Y30231671D01*
X4130454Y30345730D01*
X4130464Y30345736D01*
X4347669Y30493825D01*
X4380335Y30524137D01*
X3959959Y30944513D01*
X4039218Y31004366D01*
X4178441Y31157087D01*
X4594734Y30740794D01*
X4704283Y30878164D01*
X4835729Y31105834D01*
X4835730Y31105835D01*
X4931772Y31350549D01*
X4931774Y31350554D01*
X4990270Y31606842D01*
X4990272Y31606850D01*
X5009918Y31868998D01*
X5009918Y31869003D01*
X4990272Y32131151D01*
X4990270Y32131159D01*
X4931774Y32387447D01*
X4931772Y32387452D01*
X4835730Y32632166D01*
X4835729Y32632167D01*
X4704283Y32859837D01*
X4594733Y32997208D01*
X4178439Y32580915D01*
X4039218Y32733634D01*
X3959958Y32793488D01*
X4380335Y33213865D01*
X4347672Y33244173D01*
X4347666Y33244178D01*
X4130464Y33392265D01*
X4130454Y33392271D01*
X3893608Y33506330D01*
X3642391Y33583819D01*
X3382446Y33623000D01*
X3119553Y33623000D01*
X2859608Y33583819D01*
X2608391Y33506330D01*
X2371545Y33392271D01*
X2371535Y33392265D01*
X2154334Y33244179D01*
X2154328Y33244174D01*
X2121663Y33213865D01*
X2542040Y32793488D01*
X2462782Y32733634D01*
X2323558Y32580914D01*
X1907264Y32997208D01*
X1907263Y32997208D01*
X1797721Y32859844D01*
X1797716Y32859837D01*
X1666270Y32632167D01*
X1666269Y32632166D01*
X1570227Y32387452D01*
X1570225Y32387447D01*
X1511729Y32131159D01*
X1511727Y32131151D01*
X1492082Y31869003D01*
X1492082Y31868998D01*
X635500Y31868998D01*
X635500Y33820600D01*
X656065Y33877101D01*
X708136Y33907165D01*
X723400Y33908500D01*
X27851600Y33908500D01*
X27908101Y33887935D01*
G37*
%TD.AperFunction*%
%TA.AperFunction,Conductor*%
G36*
X8981234Y3496835D02*
G01*
X9011298Y3444764D01*
X9000857Y3385550D01*
X8946411Y3291248D01*
X8887604Y3110255D01*
X8867713Y2921005D01*
X8867713Y2920996D01*
X8884152Y2764586D01*
X8887605Y2731741D01*
X8946411Y2550753D01*
X9041562Y2385947D01*
X9168899Y2244525D01*
X9322856Y2132668D01*
X9496706Y2055266D01*
X9682849Y2015700D01*
X9873151Y2015700D01*
X10059294Y2055266D01*
X10233144Y2132668D01*
X10387101Y2244525D01*
X10514438Y2385947D01*
X10609589Y2550753D01*
X10668395Y2731741D01*
X10681482Y2856255D01*
X10688287Y2920996D01*
X10688287Y2921005D01*
X10668395Y3110255D01*
X10668395Y3110259D01*
X10609589Y3291247D01*
X10555142Y3385551D01*
X10544702Y3444764D01*
X10574766Y3496835D01*
X10631267Y3517400D01*
X11225035Y3517400D01*
X11281536Y3496835D01*
X11311600Y3444764D01*
X11301159Y3385550D01*
X11291923Y3375294D01*
X11291435Y3369092D01*
X11623378Y3037148D01*
X11539955Y2994641D01*
X11450359Y2905045D01*
X11407851Y2821621D01*
X11073939Y3155533D01*
X10993535Y3016266D01*
X10938059Y2845530D01*
X10938059Y2845528D01*
X10919296Y2667005D01*
X10919296Y2666996D01*
X10938059Y2488473D01*
X10938059Y2488471D01*
X10993535Y2317735D01*
X11073939Y2178469D01*
X11407851Y2512382D01*
X11450359Y2428955D01*
X11539955Y2339359D01*
X11623378Y2296853D01*
X11291435Y1964909D01*
X11292427Y1952300D01*
X11310325Y1925764D01*
X11304040Y1865967D01*
X11260788Y1824199D01*
X11225036Y1816600D01*
X9222293Y1816600D01*
X9165792Y1837165D01*
X9160138Y1842345D01*
X8671254Y2331229D01*
X8645843Y2385723D01*
X8649811Y2420546D01*
X8668395Y2477741D01*
X8688287Y2667000D01*
X8688287Y2667004D01*
X8688287Y2667005D01*
X8669523Y2845528D01*
X8668395Y2856259D01*
X8609589Y3037247D01*
X8514438Y3202053D01*
X8387101Y3343475D01*
X8366575Y3358388D01*
X8332953Y3408235D01*
X8339238Y3468033D01*
X8382490Y3509801D01*
X8418242Y3517400D01*
X8924733Y3517400D01*
X8981234Y3496835D01*
G37*
%TD.AperFunction*%
%TA.AperFunction,Conductor*%
G36*
X12727028Y3047689D02*
G01*
X13808062Y1966655D01*
X13833473Y1912161D01*
X13817910Y1854083D01*
X13768657Y1819595D01*
X13745907Y1816600D01*
X12330962Y1816600D01*
X12274461Y1837165D01*
X12244397Y1889236D01*
X12254838Y1948450D01*
X12264076Y1958710D01*
X12264563Y1964909D01*
X11932620Y2296852D01*
X12016045Y2339359D01*
X12105641Y2428955D01*
X12148147Y2512380D01*
X12482059Y2178469D01*
X12562462Y2317729D01*
X12617940Y2488471D01*
X12617940Y2488473D01*
X12636704Y2666996D01*
X12636704Y2667005D01*
X12617940Y2845528D01*
X12617940Y2845530D01*
X12581275Y2958371D01*
X12583373Y3018462D01*
X12623606Y3063145D01*
X12683148Y3071513D01*
X12727028Y3047689D01*
G37*
%TD.AperFunction*%
M02*
