%TF.GenerationSoftware,KiCad,Pcbnew,7.0.8*%
%TF.CreationDate,2024-04-09T21:16:55-04:00*%
%TF.ProjectId,petit-jtag,70657469-742d-46a7-9461-672e6b696361,1.1*%
%TF.SameCoordinates,PX8aadb58PY72b28c8*%
%TF.FileFunction,Copper,L2,Bot*%
%TF.FilePolarity,Positive*%
%FSLAX46Y46*%
G04 Gerber Fmt 4.6, Leading zero omitted, Abs format (unit mm)*
G04 Created by KiCad (PCBNEW 7.0.8) date 2024-04-09 21:16:55*
%MOMM*%
%LPD*%
G01*
G04 APERTURE LIST*
%TA.AperFunction,ComponentPad*%
%ADD10C,1.524000*%
%TD*%
%TA.AperFunction,ComponentPad*%
%ADD11C,3.000000*%
%TD*%
%TA.AperFunction,ComponentPad*%
%ADD12C,1.200000*%
%TD*%
%TA.AperFunction,ViaPad*%
%ADD13C,0.508000*%
%TD*%
%TA.AperFunction,Conductor*%
%ADD14C,0.304800*%
%TD*%
G04 APERTURE END LIST*
D10*
X8021000Y27159000D03*
X10521000Y27159000D03*
X10521000Y29159000D03*
X8021000Y29159000D03*
D11*
X3251000Y31869000D03*
X15291000Y31869000D03*
D10*
X5715000Y14859000D03*
X5715000Y17399000D03*
X5715000Y19939000D03*
X16306800Y2921000D03*
X16306800Y5461000D03*
X18846800Y3175000D03*
X18846800Y5715000D03*
X21386800Y2921000D03*
X21386800Y5461000D03*
X23926800Y3175000D03*
X23926800Y5715000D03*
X26466800Y2921000D03*
X26466800Y5461000D03*
D12*
X1778000Y2921000D03*
X3778000Y2667000D03*
X5778000Y2921000D03*
X7778000Y2667000D03*
X9778000Y2921000D03*
X11778000Y2667000D03*
D10*
X21590000Y28067000D03*
X24130000Y28067000D03*
X21590000Y25527000D03*
X24130000Y25527000D03*
X21590000Y22987000D03*
X24130000Y22987000D03*
X21590000Y20447000D03*
X24130000Y20447000D03*
X21590000Y17907000D03*
X24130000Y17907000D03*
X8001000Y31877000D03*
X10541000Y31877000D03*
D13*
X16408400Y20472400D03*
X12763500Y24447500D03*
D14*
X24130000Y25527000D02*
X22885400Y26771600D01*
X22885400Y26771600D02*
X19202400Y26771600D01*
X19202400Y26771600D02*
X16878300Y24447500D01*
X16878300Y24447500D02*
X12763500Y24447500D01*
X14909800Y17399000D02*
X18846800Y13462000D01*
X18846800Y13462000D02*
X18846800Y5715000D01*
X5715000Y17399000D02*
X14909800Y17399000D01*
X9778000Y2921000D02*
X9778000Y13336000D01*
X9778000Y13336000D02*
X5715000Y17399000D01*
%TA.AperFunction,Conductor*%
G36*
X27908101Y33887935D02*
G01*
X27938165Y33835864D01*
X27939500Y33820600D01*
X27939500Y723400D01*
X27918935Y666899D01*
X27866864Y636835D01*
X27851600Y635500D01*
X723400Y635500D01*
X666899Y656065D01*
X636835Y708136D01*
X635500Y723400D01*
X635500Y2920996D01*
X867713Y2920996D01*
X884152Y2764586D01*
X887605Y2731741D01*
X946411Y2550753D01*
X1041562Y2385947D01*
X1168899Y2244525D01*
X1322856Y2132668D01*
X1496706Y2055266D01*
X1682849Y2015700D01*
X1873151Y2015700D01*
X2059294Y2055266D01*
X2233144Y2132668D01*
X2387101Y2244525D01*
X2514438Y2385947D01*
X2609589Y2550753D01*
X2647358Y2666996D01*
X2867713Y2666996D01*
X2884152Y2510586D01*
X2887605Y2477741D01*
X2946411Y2296753D01*
X3041562Y2131947D01*
X3168899Y1990525D01*
X3322856Y1878668D01*
X3496706Y1801266D01*
X3682849Y1761700D01*
X3873151Y1761700D01*
X4059294Y1801266D01*
X4233144Y1878668D01*
X4387101Y1990525D01*
X4514438Y2131947D01*
X4609589Y2296753D01*
X4668395Y2477741D01*
X4688287Y2667000D01*
X4688287Y2667001D01*
X4688287Y2667005D01*
X4669523Y2845528D01*
X4668395Y2856259D01*
X4647361Y2920996D01*
X4867713Y2920996D01*
X4884152Y2764586D01*
X4887605Y2731741D01*
X4946411Y2550753D01*
X5041562Y2385947D01*
X5168899Y2244525D01*
X5322856Y2132668D01*
X5496706Y2055266D01*
X5682849Y2015700D01*
X5873151Y2015700D01*
X6059294Y2055266D01*
X6233144Y2132668D01*
X6387101Y2244525D01*
X6514438Y2385947D01*
X6609589Y2550753D01*
X6647358Y2666996D01*
X6867713Y2666996D01*
X6884152Y2510586D01*
X6887605Y2477741D01*
X6946411Y2296753D01*
X7041562Y2131947D01*
X7168899Y1990525D01*
X7322856Y1878668D01*
X7496706Y1801266D01*
X7682849Y1761700D01*
X7873151Y1761700D01*
X8059294Y1801266D01*
X8233144Y1878668D01*
X8387101Y1990525D01*
X8514438Y2131947D01*
X8609589Y2296753D01*
X8668395Y2477741D01*
X8688287Y2667000D01*
X8688287Y2667001D01*
X8688287Y2667005D01*
X8669523Y2845528D01*
X8668395Y2856259D01*
X8609589Y3037247D01*
X8514438Y3202053D01*
X8387101Y3343475D01*
X8351842Y3369092D01*
X8233147Y3455330D01*
X8233145Y3455331D01*
X8233144Y3455332D01*
X8059294Y3532734D01*
X8059291Y3532735D01*
X8059290Y3532735D01*
X7873151Y3572300D01*
X7682849Y3572300D01*
X7496708Y3532735D01*
X7496704Y3532733D01*
X7322858Y3455333D01*
X7168898Y3343475D01*
X7041563Y3202055D01*
X6946411Y3037248D01*
X6923188Y2965773D01*
X6903457Y2905045D01*
X6887604Y2856255D01*
X6867713Y2667005D01*
X6867713Y2666996D01*
X6647358Y2666996D01*
X6668395Y2731741D01*
X6681482Y2856255D01*
X6688287Y2920996D01*
X6688287Y2921005D01*
X6668395Y3110255D01*
X6668395Y3110259D01*
X6609589Y3291247D01*
X6514438Y3456053D01*
X6387101Y3597475D01*
X6274417Y3679345D01*
X6233147Y3709330D01*
X6233145Y3709331D01*
X6233144Y3709332D01*
X6059294Y3786734D01*
X6059291Y3786735D01*
X6059290Y3786735D01*
X5873151Y3826300D01*
X5682849Y3826300D01*
X5496708Y3786735D01*
X5496704Y3786733D01*
X5322858Y3709333D01*
X5168898Y3597475D01*
X5041563Y3456055D01*
X4946411Y3291248D01*
X4887604Y3110255D01*
X4867713Y2921005D01*
X4867713Y2920996D01*
X4647361Y2920996D01*
X4609589Y3037247D01*
X4514438Y3202053D01*
X4387101Y3343475D01*
X4351842Y3369092D01*
X4233147Y3455330D01*
X4233145Y3455331D01*
X4233144Y3455332D01*
X4059294Y3532734D01*
X4059291Y3532735D01*
X4059290Y3532735D01*
X3873151Y3572300D01*
X3682849Y3572300D01*
X3496708Y3532735D01*
X3496704Y3532733D01*
X3322858Y3455333D01*
X3168898Y3343475D01*
X3041563Y3202055D01*
X2946411Y3037248D01*
X2923188Y2965773D01*
X2903457Y2905045D01*
X2887604Y2856255D01*
X2867713Y2667005D01*
X2867713Y2666996D01*
X2647358Y2666996D01*
X2668395Y2731741D01*
X2681482Y2856255D01*
X2688287Y2920996D01*
X2688287Y2921005D01*
X2668395Y3110255D01*
X2668395Y3110259D01*
X2609589Y3291247D01*
X2514438Y3456053D01*
X2387101Y3597475D01*
X2274417Y3679345D01*
X2233147Y3709330D01*
X2233145Y3709331D01*
X2233144Y3709332D01*
X2059294Y3786734D01*
X2059291Y3786735D01*
X2059290Y3786735D01*
X1873151Y3826300D01*
X1682849Y3826300D01*
X1496708Y3786735D01*
X1496704Y3786733D01*
X1322858Y3709333D01*
X1168898Y3597475D01*
X1041563Y3456055D01*
X946411Y3291248D01*
X887604Y3110255D01*
X867713Y2921005D01*
X867713Y2920996D01*
X635500Y2920996D01*
X635500Y14859000D01*
X4642536Y14859000D01*
X4663144Y14649767D01*
X4724170Y14448591D01*
X4724170Y14448590D01*
X4724171Y14448587D01*
X4724172Y14448586D01*
X4823279Y14263171D01*
X4956653Y14100653D01*
X5119171Y13967279D01*
X5304586Y13868172D01*
X5304588Y13868172D01*
X5304589Y13868171D01*
X5436399Y13828187D01*
X5505773Y13807143D01*
X5715000Y13786536D01*
X5924227Y13807143D01*
X6125414Y13868172D01*
X6310829Y13967279D01*
X6473347Y14100653D01*
X6606721Y14263171D01*
X6705828Y14448586D01*
X6766857Y14649773D01*
X6787464Y14859000D01*
X6766857Y15068227D01*
X6705828Y15269414D01*
X6606721Y15454829D01*
X6473347Y15617347D01*
X6310829Y15750721D01*
X6125414Y15849828D01*
X6125413Y15849829D01*
X6125410Y15849830D01*
X5924233Y15910856D01*
X5924228Y15910857D01*
X5924227Y15910857D01*
X5715000Y15931464D01*
X5505773Y15910857D01*
X5505771Y15910857D01*
X5505766Y15910856D01*
X5304590Y15849830D01*
X5304589Y15849830D01*
X5119170Y15750721D01*
X4956655Y15617349D01*
X4956651Y15617345D01*
X4823279Y15454830D01*
X4724170Y15269411D01*
X4724170Y15269410D01*
X4663144Y15068234D01*
X4642536Y14859000D01*
X635500Y14859000D01*
X635500Y17399000D01*
X4642536Y17399000D01*
X4651186Y17311171D01*
X4663144Y17189767D01*
X4724170Y16988591D01*
X4724170Y16988590D01*
X4724171Y16988587D01*
X4724172Y16988586D01*
X4823279Y16803171D01*
X4956653Y16640653D01*
X5119171Y16507279D01*
X5304586Y16408172D01*
X5304588Y16408172D01*
X5304589Y16408171D01*
X5406308Y16377315D01*
X5505773Y16347143D01*
X5715000Y16326536D01*
X5924227Y16347143D01*
X6023689Y16377315D01*
X6083726Y16374038D01*
X6111360Y16355355D01*
X9294555Y13172160D01*
X9319966Y13117666D01*
X9320300Y13110005D01*
X9320300Y3752263D01*
X9299735Y3695762D01*
X9284067Y3681151D01*
X9168900Y3597476D01*
X9168898Y3597475D01*
X9041563Y3456055D01*
X8946411Y3291248D01*
X8887604Y3110255D01*
X8867713Y2921005D01*
X8867713Y2920996D01*
X8884152Y2764586D01*
X8887605Y2731741D01*
X8946411Y2550753D01*
X9041562Y2385947D01*
X9168899Y2244525D01*
X9322856Y2132668D01*
X9496706Y2055266D01*
X9682849Y2015700D01*
X9873151Y2015700D01*
X10059294Y2055266D01*
X10233144Y2132668D01*
X10387101Y2244525D01*
X10514438Y2385947D01*
X10609589Y2550753D01*
X10647358Y2666996D01*
X10919296Y2666996D01*
X10938059Y2488473D01*
X10938059Y2488471D01*
X10993535Y2317735D01*
X11073939Y2178469D01*
X11407851Y2512382D01*
X11450359Y2428955D01*
X11539955Y2339359D01*
X11623378Y2296853D01*
X11291435Y1964909D01*
X11291434Y1964909D01*
X11348648Y1923341D01*
X11512646Y1850325D01*
X11512648Y1850324D01*
X11688235Y1813001D01*
X11688244Y1813000D01*
X11867756Y1813000D01*
X11867764Y1813001D01*
X12043351Y1850324D01*
X12043353Y1850325D01*
X12207352Y1923342D01*
X12264563Y1964909D01*
X11932620Y2296852D01*
X12016045Y2339359D01*
X12105641Y2428955D01*
X12148148Y2512380D01*
X12482059Y2178469D01*
X12562462Y2317729D01*
X12617940Y2488471D01*
X12617940Y2488473D01*
X12636704Y2666996D01*
X12636704Y2667005D01*
X12617940Y2845528D01*
X12617940Y2845530D01*
X12593418Y2921000D01*
X15234336Y2921000D01*
X15252976Y2731741D01*
X15254944Y2711767D01*
X15315970Y2510591D01*
X15315970Y2510590D01*
X15315971Y2510587D01*
X15315972Y2510586D01*
X15415079Y2325171D01*
X15548453Y2162653D01*
X15710971Y2029279D01*
X15896386Y1930172D01*
X15896388Y1930172D01*
X15896389Y1930171D01*
X15918901Y1923342D01*
X16097573Y1869143D01*
X16306800Y1848536D01*
X16516027Y1869143D01*
X16717214Y1930172D01*
X16902629Y2029279D01*
X17065147Y2162653D01*
X17198521Y2325171D01*
X17297628Y2510586D01*
X17358657Y2711773D01*
X17379264Y2921000D01*
X17358657Y3130227D01*
X17345075Y3175000D01*
X17774336Y3175000D01*
X17787903Y3037247D01*
X17794944Y2965767D01*
X17855970Y2764591D01*
X17855970Y2764590D01*
X17855971Y2764587D01*
X17855972Y2764586D01*
X17955079Y2579171D01*
X18088453Y2416653D01*
X18250971Y2283279D01*
X18436386Y2184172D01*
X18637573Y2123143D01*
X18846800Y2102536D01*
X19056027Y2123143D01*
X19257214Y2184172D01*
X19442629Y2283279D01*
X19605147Y2416653D01*
X19738521Y2579171D01*
X19837628Y2764586D01*
X19885075Y2921000D01*
X20314336Y2921000D01*
X20332976Y2731741D01*
X20334944Y2711767D01*
X20395970Y2510591D01*
X20395970Y2510590D01*
X20395971Y2510587D01*
X20395972Y2510586D01*
X20495079Y2325171D01*
X20628453Y2162653D01*
X20790971Y2029279D01*
X20976386Y1930172D01*
X20976388Y1930172D01*
X20976389Y1930171D01*
X20998901Y1923342D01*
X21177573Y1869143D01*
X21386800Y1848536D01*
X21596027Y1869143D01*
X21797214Y1930172D01*
X21982629Y2029279D01*
X22145147Y2162653D01*
X22278521Y2325171D01*
X22377628Y2510586D01*
X22438657Y2711773D01*
X22459264Y2921000D01*
X22438657Y3130227D01*
X22425075Y3175000D01*
X22854336Y3175000D01*
X22867903Y3037247D01*
X22874944Y2965767D01*
X22935970Y2764591D01*
X22935970Y2764590D01*
X22935971Y2764587D01*
X22935972Y2764586D01*
X23035079Y2579171D01*
X23168453Y2416653D01*
X23330971Y2283279D01*
X23516386Y2184172D01*
X23717573Y2123143D01*
X23926800Y2102536D01*
X24136027Y2123143D01*
X24337214Y2184172D01*
X24522629Y2283279D01*
X24685147Y2416653D01*
X24818521Y2579171D01*
X24917628Y2764586D01*
X24965075Y2921000D01*
X25394336Y2921000D01*
X25412976Y2731741D01*
X25414944Y2711767D01*
X25475970Y2510591D01*
X25475970Y2510590D01*
X25475971Y2510587D01*
X25475972Y2510586D01*
X25575079Y2325171D01*
X25708453Y2162653D01*
X25870971Y2029279D01*
X26056386Y1930172D01*
X26056388Y1930172D01*
X26056389Y1930171D01*
X26078901Y1923342D01*
X26257573Y1869143D01*
X26466800Y1848536D01*
X26676027Y1869143D01*
X26877214Y1930172D01*
X27062629Y2029279D01*
X27225147Y2162653D01*
X27358521Y2325171D01*
X27457628Y2510586D01*
X27518657Y2711773D01*
X27539264Y2921000D01*
X27518657Y3130227D01*
X27457628Y3331414D01*
X27358521Y3516829D01*
X27225147Y3679347D01*
X27062629Y3812721D01*
X26877214Y3911828D01*
X26877213Y3911829D01*
X26877210Y3911830D01*
X26676033Y3972856D01*
X26676028Y3972857D01*
X26676027Y3972857D01*
X26466800Y3993464D01*
X26257573Y3972857D01*
X26257571Y3972857D01*
X26257566Y3972856D01*
X26056390Y3911830D01*
X26056389Y3911830D01*
X25870970Y3812721D01*
X25708455Y3679349D01*
X25708451Y3679345D01*
X25575079Y3516830D01*
X25475970Y3331411D01*
X25475970Y3331410D01*
X25414944Y3130234D01*
X25414943Y3130229D01*
X25414943Y3130227D01*
X25394336Y2921000D01*
X24965075Y2921000D01*
X24978657Y2965773D01*
X24999264Y3175000D01*
X24978657Y3384227D01*
X24917628Y3585414D01*
X24818521Y3770829D01*
X24685147Y3933347D01*
X24522629Y4066721D01*
X24337214Y4165828D01*
X24337213Y4165829D01*
X24337210Y4165830D01*
X24136033Y4226856D01*
X24136028Y4226857D01*
X24136027Y4226857D01*
X23926800Y4247464D01*
X23717573Y4226857D01*
X23717571Y4226857D01*
X23717566Y4226856D01*
X23516390Y4165830D01*
X23516389Y4165830D01*
X23330970Y4066721D01*
X23168455Y3933349D01*
X23168451Y3933345D01*
X23035079Y3770830D01*
X22935970Y3585411D01*
X22935970Y3585410D01*
X22874944Y3384234D01*
X22874943Y3384229D01*
X22874943Y3384227D01*
X22854336Y3175000D01*
X22425075Y3175000D01*
X22377628Y3331414D01*
X22278521Y3516829D01*
X22145147Y3679347D01*
X21982629Y3812721D01*
X21797214Y3911828D01*
X21797213Y3911829D01*
X21797210Y3911830D01*
X21596033Y3972856D01*
X21596028Y3972857D01*
X21596027Y3972857D01*
X21386800Y3993464D01*
X21177573Y3972857D01*
X21177571Y3972857D01*
X21177566Y3972856D01*
X20976390Y3911830D01*
X20976389Y3911830D01*
X20790970Y3812721D01*
X20628455Y3679349D01*
X20628451Y3679345D01*
X20495079Y3516830D01*
X20395970Y3331411D01*
X20395970Y3331410D01*
X20334944Y3130234D01*
X20334943Y3130229D01*
X20334943Y3130227D01*
X20314336Y2921000D01*
X19885075Y2921000D01*
X19898657Y2965773D01*
X19919264Y3175000D01*
X19898657Y3384227D01*
X19837628Y3585414D01*
X19738521Y3770829D01*
X19605147Y3933347D01*
X19442629Y4066721D01*
X19257214Y4165828D01*
X19257213Y4165829D01*
X19257210Y4165830D01*
X19056033Y4226856D01*
X19056028Y4226857D01*
X19056027Y4226857D01*
X18846800Y4247464D01*
X18637573Y4226857D01*
X18637571Y4226857D01*
X18637566Y4226856D01*
X18436390Y4165830D01*
X18436389Y4165830D01*
X18250970Y4066721D01*
X18088455Y3933349D01*
X18088451Y3933345D01*
X17955079Y3770830D01*
X17855970Y3585411D01*
X17855970Y3585410D01*
X17794944Y3384234D01*
X17794943Y3384229D01*
X17794943Y3384227D01*
X17774336Y3175000D01*
X17345075Y3175000D01*
X17297628Y3331414D01*
X17198521Y3516829D01*
X17065147Y3679347D01*
X16902629Y3812721D01*
X16717214Y3911828D01*
X16717213Y3911829D01*
X16717210Y3911830D01*
X16516033Y3972856D01*
X16516028Y3972857D01*
X16516027Y3972857D01*
X16306800Y3993464D01*
X16097573Y3972857D01*
X16097571Y3972857D01*
X16097566Y3972856D01*
X15896390Y3911830D01*
X15896389Y3911830D01*
X15710970Y3812721D01*
X15548455Y3679349D01*
X15548451Y3679345D01*
X15415079Y3516830D01*
X15315970Y3331411D01*
X15315970Y3331410D01*
X15254944Y3130234D01*
X15254943Y3130229D01*
X15254943Y3130227D01*
X15234336Y2921000D01*
X12593418Y2921000D01*
X12562463Y3016268D01*
X12482059Y3155533D01*
X12148147Y2821622D01*
X12105641Y2905045D01*
X12016045Y2994641D01*
X11932619Y3037149D01*
X12264563Y3369093D01*
X12207351Y3410660D01*
X12043353Y3483676D01*
X12043351Y3483677D01*
X11867764Y3521000D01*
X11688235Y3521000D01*
X11512648Y3483677D01*
X11512646Y3483676D01*
X11348645Y3410658D01*
X11291435Y3369093D01*
X11291435Y3369092D01*
X11623379Y3037148D01*
X11539955Y2994641D01*
X11450359Y2905045D01*
X11407851Y2821621D01*
X11073939Y3155533D01*
X10993535Y3016266D01*
X10938059Y2845530D01*
X10938059Y2845528D01*
X10919296Y2667005D01*
X10919296Y2666996D01*
X10647358Y2666996D01*
X10668395Y2731741D01*
X10681482Y2856255D01*
X10688287Y2920996D01*
X10688287Y2921005D01*
X10668395Y3110255D01*
X10668395Y3110259D01*
X10609589Y3291247D01*
X10514438Y3456053D01*
X10387101Y3597475D01*
X10350971Y3623726D01*
X10271933Y3681151D01*
X10238311Y3730999D01*
X10235700Y3752263D01*
X10235700Y5461000D01*
X15285884Y5461000D01*
X15305502Y5261823D01*
X15363596Y5070314D01*
X15457939Y4893809D01*
X15487752Y4857481D01*
X15854866Y5224596D01*
X15918931Y5124910D01*
X16029330Y5029248D01*
X16071373Y5010048D01*
X15703279Y4641954D01*
X15739608Y4612140D01*
X15916113Y4517797D01*
X16107622Y4459703D01*
X16306800Y4440085D01*
X16505977Y4459703D01*
X16697486Y4517797D01*
X16873994Y4612142D01*
X16910319Y4641954D01*
X16542226Y5010048D01*
X16584270Y5029248D01*
X16694669Y5124910D01*
X16758732Y5224595D01*
X17125846Y4857481D01*
X17155658Y4893806D01*
X17250003Y5070314D01*
X17308097Y5261823D01*
X17327715Y5461000D01*
X17308097Y5660178D01*
X17250003Y5851687D01*
X17155660Y6028192D01*
X17125846Y6064521D01*
X16758731Y5697407D01*
X16694669Y5797090D01*
X16584270Y5892752D01*
X16542224Y5911954D01*
X16910319Y6280048D01*
X16873991Y6309861D01*
X16697486Y6404204D01*
X16505977Y6462298D01*
X16306800Y6481916D01*
X16107622Y6462298D01*
X15916113Y6404204D01*
X15916109Y6404203D01*
X15739613Y6309865D01*
X15703279Y6280048D01*
X16071374Y5911953D01*
X16029330Y5892752D01*
X15918931Y5797090D01*
X15854867Y5697406D01*
X15487752Y6064521D01*
X15457935Y6028187D01*
X15363597Y5851691D01*
X15363596Y5851687D01*
X15305502Y5660178D01*
X15285884Y5461000D01*
X10235700Y5461000D01*
X10235700Y13307824D01*
X10235977Y13312749D01*
X10240547Y13353307D01*
X10229311Y13412687D01*
X10225383Y13438749D01*
X10220306Y13472433D01*
X10220305Y13472436D01*
X10218364Y13478729D01*
X10218601Y13478803D01*
X10217305Y13482740D01*
X10217070Y13482657D01*
X10214896Y13488868D01*
X10214895Y13488876D01*
X10186662Y13542295D01*
X10160441Y13596744D01*
X10160440Y13596745D01*
X10160440Y13596746D01*
X10156730Y13602188D01*
X10156933Y13602328D01*
X10154534Y13605710D01*
X10154335Y13605562D01*
X10150422Y13610864D01*
X10107704Y13653581D01*
X10094051Y13668295D01*
X10066595Y13697886D01*
X10066592Y13697888D01*
X10061445Y13701993D01*
X10061599Y13702187D01*
X10050851Y13710434D01*
X6970040Y16791245D01*
X6944629Y16845739D01*
X6960192Y16903817D01*
X7009445Y16938305D01*
X7032195Y16941300D01*
X14683804Y16941300D01*
X14740305Y16920735D01*
X14745959Y16915555D01*
X18363355Y13298160D01*
X18388766Y13243666D01*
X18389100Y13236005D01*
X18389100Y6733239D01*
X18368535Y6676738D01*
X18342637Y6655719D01*
X18250972Y6606722D01*
X18088455Y6473349D01*
X18088451Y6473345D01*
X17955079Y6310830D01*
X17855970Y6125411D01*
X17855970Y6125410D01*
X17794944Y5924234D01*
X17794943Y5924229D01*
X17794943Y5924227D01*
X17774336Y5715000D01*
X17779735Y5660178D01*
X17794944Y5505767D01*
X17855970Y5304591D01*
X17855970Y5304590D01*
X17855971Y5304587D01*
X17855972Y5304586D01*
X17955079Y5119171D01*
X18088453Y4956653D01*
X18250971Y4823279D01*
X18436386Y4724172D01*
X18637573Y4663143D01*
X18846800Y4642536D01*
X19056027Y4663143D01*
X19257214Y4724172D01*
X19442629Y4823279D01*
X19605147Y4956653D01*
X19738521Y5119171D01*
X19837628Y5304586D01*
X19885075Y5461000D01*
X20314336Y5461000D01*
X20333953Y5261823D01*
X20334944Y5251767D01*
X20395970Y5050591D01*
X20395970Y5050590D01*
X20395971Y5050587D01*
X20395972Y5050586D01*
X20495079Y4865171D01*
X20628453Y4702653D01*
X20790971Y4569279D01*
X20976386Y4470172D01*
X21177573Y4409143D01*
X21386800Y4388536D01*
X21596027Y4409143D01*
X21797214Y4470172D01*
X21982629Y4569279D01*
X22145147Y4702653D01*
X22278521Y4865171D01*
X22377628Y5050586D01*
X22438657Y5251773D01*
X22459264Y5461000D01*
X22438657Y5670227D01*
X22425075Y5715000D01*
X22854336Y5715000D01*
X22859735Y5660178D01*
X22874944Y5505767D01*
X22935970Y5304591D01*
X22935970Y5304590D01*
X22935971Y5304587D01*
X22935972Y5304586D01*
X23035079Y5119171D01*
X23168453Y4956653D01*
X23330971Y4823279D01*
X23516386Y4724172D01*
X23717573Y4663143D01*
X23926800Y4642536D01*
X24136027Y4663143D01*
X24337214Y4724172D01*
X24522629Y4823279D01*
X24685147Y4956653D01*
X24818521Y5119171D01*
X24917628Y5304586D01*
X24965075Y5461000D01*
X25445884Y5461000D01*
X25465502Y5261823D01*
X25523596Y5070314D01*
X25617939Y4893809D01*
X25647752Y4857481D01*
X26014866Y5224596D01*
X26078931Y5124910D01*
X26189330Y5029248D01*
X26231373Y5010048D01*
X25863279Y4641954D01*
X25899608Y4612140D01*
X26076113Y4517797D01*
X26267622Y4459703D01*
X26466800Y4440085D01*
X26665977Y4459703D01*
X26857486Y4517797D01*
X27033994Y4612142D01*
X27070319Y4641954D01*
X26702226Y5010048D01*
X26744270Y5029248D01*
X26854669Y5124910D01*
X26918732Y5224595D01*
X27285846Y4857481D01*
X27315658Y4893806D01*
X27410003Y5070314D01*
X27468097Y5261823D01*
X27487715Y5461000D01*
X27468097Y5660178D01*
X27410003Y5851687D01*
X27315660Y6028192D01*
X27285846Y6064521D01*
X26918731Y5697407D01*
X26854669Y5797090D01*
X26744270Y5892752D01*
X26702224Y5911954D01*
X27070319Y6280048D01*
X27033991Y6309861D01*
X26857486Y6404204D01*
X26665977Y6462298D01*
X26466800Y6481916D01*
X26267622Y6462298D01*
X26076113Y6404204D01*
X26076109Y6404203D01*
X25899613Y6309865D01*
X25863279Y6280048D01*
X26231374Y5911953D01*
X26189330Y5892752D01*
X26078931Y5797090D01*
X26014867Y5697406D01*
X25647752Y6064521D01*
X25617935Y6028187D01*
X25523597Y5851691D01*
X25523596Y5851687D01*
X25465502Y5660178D01*
X25445884Y5461000D01*
X24965075Y5461000D01*
X24978657Y5505773D01*
X24999264Y5715000D01*
X24978657Y5924227D01*
X24917628Y6125414D01*
X24818521Y6310829D01*
X24685147Y6473347D01*
X24522629Y6606721D01*
X24337214Y6705828D01*
X24337213Y6705829D01*
X24337210Y6705830D01*
X24136033Y6766856D01*
X24136028Y6766857D01*
X24136027Y6766857D01*
X23926800Y6787464D01*
X23717573Y6766857D01*
X23717571Y6766857D01*
X23717566Y6766856D01*
X23516390Y6705830D01*
X23516389Y6705830D01*
X23330970Y6606721D01*
X23168455Y6473349D01*
X23168451Y6473345D01*
X23035079Y6310830D01*
X22935970Y6125411D01*
X22935970Y6125410D01*
X22874944Y5924234D01*
X22874943Y5924229D01*
X22874943Y5924227D01*
X22854336Y5715000D01*
X22425075Y5715000D01*
X22377628Y5871414D01*
X22278521Y6056829D01*
X22145147Y6219347D01*
X21982629Y6352721D01*
X21797214Y6451828D01*
X21797213Y6451829D01*
X21797210Y6451830D01*
X21596033Y6512856D01*
X21596028Y6512857D01*
X21596027Y6512857D01*
X21386800Y6533464D01*
X21177573Y6512857D01*
X21177571Y6512857D01*
X21177566Y6512856D01*
X20976390Y6451830D01*
X20976389Y6451830D01*
X20790970Y6352721D01*
X20628455Y6219349D01*
X20628451Y6219345D01*
X20495079Y6056830D01*
X20395970Y5871411D01*
X20395970Y5871410D01*
X20334944Y5670234D01*
X20334943Y5670229D01*
X20334943Y5670227D01*
X20314336Y5461000D01*
X19885075Y5461000D01*
X19898657Y5505773D01*
X19919264Y5715000D01*
X19898657Y5924227D01*
X19837628Y6125414D01*
X19738521Y6310829D01*
X19605147Y6473347D01*
X19442629Y6606721D01*
X19437490Y6609468D01*
X19350963Y6655719D01*
X19310828Y6700490D01*
X19304500Y6733239D01*
X19304500Y13433824D01*
X19304777Y13438749D01*
X19309347Y13479307D01*
X19298111Y13538687D01*
X19297567Y13542295D01*
X19289106Y13598433D01*
X19289105Y13598436D01*
X19287164Y13604729D01*
X19287401Y13604803D01*
X19286105Y13608740D01*
X19285870Y13608657D01*
X19283696Y13614868D01*
X19283695Y13614876D01*
X19255462Y13668295D01*
X19229241Y13722744D01*
X19229240Y13722745D01*
X19229240Y13722746D01*
X19225530Y13728188D01*
X19225733Y13728328D01*
X19223334Y13731710D01*
X19223135Y13731562D01*
X19219222Y13736864D01*
X19176504Y13779581D01*
X19150928Y13807145D01*
X19135395Y13823886D01*
X19135392Y13823888D01*
X19130245Y13827993D01*
X19130399Y13828187D01*
X19119651Y13836434D01*
X15253364Y17702721D01*
X15250081Y17706395D01*
X15224632Y17738308D01*
X15174694Y17772355D01*
X15126083Y17808232D01*
X15120261Y17811309D01*
X15120375Y17811526D01*
X15116668Y17813398D01*
X15116562Y17813175D01*
X15110630Y17816032D01*
X15052885Y17833844D01*
X14995852Y17853801D01*
X14989383Y17855025D01*
X14989428Y17855266D01*
X14985335Y17855962D01*
X14985299Y17855719D01*
X14978790Y17856700D01*
X14978787Y17856700D01*
X14918363Y17856700D01*
X14857975Y17858960D01*
X14857974Y17858960D01*
X14857968Y17858960D01*
X14851428Y17858223D01*
X14851400Y17858469D01*
X14837967Y17856700D01*
X6733238Y17856700D01*
X6676737Y17877265D01*
X6655717Y17903164D01*
X6653667Y17907000D01*
X20517536Y17907000D01*
X20537484Y17704462D01*
X20538144Y17697767D01*
X20599170Y17496591D01*
X20599170Y17496590D01*
X20599171Y17496587D01*
X20599172Y17496586D01*
X20698279Y17311171D01*
X20831653Y17148653D01*
X20994171Y17015279D01*
X21179586Y16916172D01*
X21380773Y16855143D01*
X21590000Y16834536D01*
X21799227Y16855143D01*
X22000414Y16916172D01*
X22185829Y17015279D01*
X22348347Y17148653D01*
X22481721Y17311171D01*
X22580828Y17496586D01*
X22641857Y17697773D01*
X22662464Y17907000D01*
X23109084Y17907000D01*
X23128702Y17707823D01*
X23186796Y17516314D01*
X23281139Y17339809D01*
X23310952Y17303481D01*
X23678066Y17670596D01*
X23742131Y17570910D01*
X23852530Y17475248D01*
X23894573Y17456048D01*
X23526479Y17087954D01*
X23562808Y17058140D01*
X23739313Y16963797D01*
X23930822Y16905703D01*
X24130000Y16886085D01*
X24329177Y16905703D01*
X24520686Y16963797D01*
X24697194Y17058142D01*
X24733519Y17087954D01*
X24365426Y17456048D01*
X24407470Y17475248D01*
X24517869Y17570910D01*
X24581932Y17670595D01*
X24949046Y17303481D01*
X24978858Y17339806D01*
X25073203Y17516314D01*
X25131297Y17707823D01*
X25150915Y17907000D01*
X25131297Y18106178D01*
X25073203Y18297687D01*
X24978860Y18474192D01*
X24949046Y18510521D01*
X24581931Y18143407D01*
X24517869Y18243090D01*
X24407470Y18338752D01*
X24365424Y18357954D01*
X24733519Y18726048D01*
X24697191Y18755861D01*
X24520686Y18850204D01*
X24329177Y18908298D01*
X24130000Y18927916D01*
X23930822Y18908298D01*
X23739313Y18850204D01*
X23739309Y18850203D01*
X23562813Y18755865D01*
X23526479Y18726048D01*
X23894574Y18357953D01*
X23852530Y18338752D01*
X23742131Y18243090D01*
X23678067Y18143406D01*
X23310952Y18510521D01*
X23281135Y18474187D01*
X23186797Y18297691D01*
X23186796Y18297687D01*
X23128702Y18106178D01*
X23109084Y17907000D01*
X22662464Y17907000D01*
X22641857Y18116227D01*
X22629383Y18157347D01*
X22580829Y18317410D01*
X22580829Y18317411D01*
X22580828Y18317412D01*
X22580828Y18317414D01*
X22481721Y18502829D01*
X22348347Y18665347D01*
X22185829Y18798721D01*
X22000414Y18897828D01*
X22000413Y18897829D01*
X22000410Y18897830D01*
X21799233Y18958856D01*
X21799228Y18958857D01*
X21799227Y18958857D01*
X21590000Y18979464D01*
X21380773Y18958857D01*
X21380771Y18958857D01*
X21380766Y18958856D01*
X21179590Y18897830D01*
X21179589Y18897830D01*
X20994170Y18798721D01*
X20831655Y18665349D01*
X20831651Y18665345D01*
X20698279Y18502830D01*
X20599170Y18317411D01*
X20599170Y18317410D01*
X20538144Y18116234D01*
X20538143Y18116229D01*
X20538143Y18116227D01*
X20517536Y17907000D01*
X6653667Y17907000D01*
X6606720Y17994830D01*
X6473347Y18157347D01*
X6310829Y18290721D01*
X6125414Y18389828D01*
X6125413Y18389829D01*
X6125410Y18389830D01*
X5924233Y18450856D01*
X5924228Y18450857D01*
X5924227Y18450857D01*
X5715000Y18471464D01*
X5505773Y18450857D01*
X5505771Y18450857D01*
X5505766Y18450856D01*
X5304590Y18389830D01*
X5304589Y18389830D01*
X5119170Y18290721D01*
X4956655Y18157349D01*
X4956651Y18157345D01*
X4823279Y17994830D01*
X4724170Y17809411D01*
X4724170Y17809410D01*
X4663144Y17608234D01*
X4663143Y17608229D01*
X4663143Y17608227D01*
X4642536Y17399000D01*
X635500Y17399000D01*
X635500Y19939000D01*
X4642536Y19939000D01*
X4651186Y19851171D01*
X4663144Y19729767D01*
X4724170Y19528591D01*
X4724170Y19528590D01*
X4724171Y19528587D01*
X4724172Y19528586D01*
X4823279Y19343171D01*
X4956653Y19180653D01*
X5119171Y19047279D01*
X5304586Y18948172D01*
X5304588Y18948172D01*
X5304589Y18948171D01*
X5436033Y18908298D01*
X5505773Y18887143D01*
X5715000Y18866536D01*
X5924227Y18887143D01*
X6125414Y18948172D01*
X6310829Y19047279D01*
X6473347Y19180653D01*
X6606721Y19343171D01*
X6705828Y19528586D01*
X6766857Y19729773D01*
X6787464Y19939000D01*
X6766857Y20148227D01*
X6705828Y20349414D01*
X6653667Y20447000D01*
X20517536Y20447000D01*
X20527147Y20349414D01*
X20538144Y20237767D01*
X20599170Y20036591D01*
X20599170Y20036590D01*
X20599171Y20036587D01*
X20599172Y20036586D01*
X20698279Y19851171D01*
X20831653Y19688653D01*
X20994171Y19555279D01*
X21179586Y19456172D01*
X21380773Y19395143D01*
X21590000Y19374536D01*
X21799227Y19395143D01*
X22000414Y19456172D01*
X22185829Y19555279D01*
X22348347Y19688653D01*
X22481721Y19851171D01*
X22580828Y20036586D01*
X22641857Y20237773D01*
X22662464Y20447000D01*
X23057536Y20447000D01*
X23067147Y20349414D01*
X23078144Y20237767D01*
X23139170Y20036591D01*
X23139170Y20036590D01*
X23139171Y20036587D01*
X23139172Y20036586D01*
X23238279Y19851171D01*
X23371653Y19688653D01*
X23534171Y19555279D01*
X23719586Y19456172D01*
X23920773Y19395143D01*
X24130000Y19374536D01*
X24339227Y19395143D01*
X24540414Y19456172D01*
X24725829Y19555279D01*
X24888347Y19688653D01*
X25021721Y19851171D01*
X25120828Y20036586D01*
X25181857Y20237773D01*
X25202464Y20447000D01*
X25181857Y20656227D01*
X25169383Y20697347D01*
X25120829Y20857410D01*
X25120829Y20857411D01*
X25120828Y20857412D01*
X25120828Y20857414D01*
X25021721Y21042829D01*
X24888347Y21205347D01*
X24725829Y21338721D01*
X24540414Y21437828D01*
X24540413Y21437829D01*
X24540410Y21437830D01*
X24339233Y21498856D01*
X24339228Y21498857D01*
X24339227Y21498857D01*
X24130000Y21519464D01*
X23920773Y21498857D01*
X23920771Y21498857D01*
X23920766Y21498856D01*
X23719590Y21437830D01*
X23719589Y21437830D01*
X23534170Y21338721D01*
X23371655Y21205349D01*
X23371651Y21205345D01*
X23238279Y21042830D01*
X23139170Y20857411D01*
X23139170Y20857410D01*
X23078144Y20656234D01*
X23078143Y20656229D01*
X23078143Y20656227D01*
X23057536Y20447000D01*
X22662464Y20447000D01*
X22641857Y20656227D01*
X22629383Y20697347D01*
X22580829Y20857410D01*
X22580829Y20857411D01*
X22580828Y20857412D01*
X22580828Y20857414D01*
X22481721Y21042829D01*
X22348347Y21205347D01*
X22185829Y21338721D01*
X22000414Y21437828D01*
X22000413Y21437829D01*
X22000410Y21437830D01*
X21799233Y21498856D01*
X21799228Y21498857D01*
X21799227Y21498857D01*
X21590000Y21519464D01*
X21380773Y21498857D01*
X21380771Y21498857D01*
X21380766Y21498856D01*
X21179590Y21437830D01*
X21179589Y21437830D01*
X20994170Y21338721D01*
X20831655Y21205349D01*
X20831651Y21205345D01*
X20698279Y21042830D01*
X20599170Y20857411D01*
X20599170Y20857410D01*
X20538144Y20656234D01*
X20538143Y20656229D01*
X20538143Y20656227D01*
X20517536Y20447000D01*
X6653667Y20447000D01*
X6606721Y20534829D01*
X6473347Y20697347D01*
X6310829Y20830721D01*
X6125414Y20929828D01*
X6125413Y20929829D01*
X6125410Y20929830D01*
X5924233Y20990856D01*
X5924228Y20990857D01*
X5924227Y20990857D01*
X5715000Y21011464D01*
X5505773Y20990857D01*
X5505771Y20990857D01*
X5505766Y20990856D01*
X5304590Y20929830D01*
X5304589Y20929830D01*
X5119170Y20830721D01*
X4956655Y20697349D01*
X4956651Y20697345D01*
X4823279Y20534830D01*
X4724170Y20349411D01*
X4724170Y20349410D01*
X4663144Y20148234D01*
X4663143Y20148229D01*
X4663143Y20148227D01*
X4642536Y19939000D01*
X635500Y19939000D01*
X635500Y22987000D01*
X20517536Y22987000D01*
X20538144Y22777767D01*
X20599170Y22576591D01*
X20599170Y22576590D01*
X20599171Y22576587D01*
X20599172Y22576586D01*
X20698279Y22391171D01*
X20831653Y22228653D01*
X20994171Y22095279D01*
X21179586Y21996172D01*
X21380773Y21935143D01*
X21590000Y21914536D01*
X21799227Y21935143D01*
X22000414Y21996172D01*
X22185829Y22095279D01*
X22348347Y22228653D01*
X22481721Y22391171D01*
X22580828Y22576586D01*
X22641857Y22777773D01*
X22662464Y22987000D01*
X23057536Y22987000D01*
X23078144Y22777767D01*
X23139170Y22576591D01*
X23139170Y22576590D01*
X23139171Y22576587D01*
X23139172Y22576586D01*
X23238279Y22391171D01*
X23371653Y22228653D01*
X23534171Y22095279D01*
X23719586Y21996172D01*
X23920773Y21935143D01*
X24130000Y21914536D01*
X24339227Y21935143D01*
X24540414Y21996172D01*
X24725829Y22095279D01*
X24888347Y22228653D01*
X25021721Y22391171D01*
X25120828Y22576586D01*
X25181857Y22777773D01*
X25202464Y22987000D01*
X25181857Y23196227D01*
X25120828Y23397414D01*
X25021721Y23582829D01*
X24888347Y23745347D01*
X24725829Y23878721D01*
X24540414Y23977828D01*
X24540413Y23977829D01*
X24540410Y23977830D01*
X24339233Y24038856D01*
X24339228Y24038857D01*
X24339227Y24038857D01*
X24130000Y24059464D01*
X23920773Y24038857D01*
X23920771Y24038857D01*
X23920766Y24038856D01*
X23719590Y23977830D01*
X23719589Y23977830D01*
X23534170Y23878721D01*
X23371655Y23745349D01*
X23371651Y23745345D01*
X23238279Y23582830D01*
X23139170Y23397411D01*
X23139170Y23397410D01*
X23078144Y23196234D01*
X23057536Y22987000D01*
X22662464Y22987000D01*
X22641857Y23196227D01*
X22580828Y23397414D01*
X22481721Y23582829D01*
X22348347Y23745347D01*
X22185829Y23878721D01*
X22000414Y23977828D01*
X22000413Y23977829D01*
X22000410Y23977830D01*
X21799233Y24038856D01*
X21799228Y24038857D01*
X21799227Y24038857D01*
X21590000Y24059464D01*
X21380773Y24038857D01*
X21380771Y24038857D01*
X21380766Y24038856D01*
X21179590Y23977830D01*
X21179589Y23977830D01*
X20994170Y23878721D01*
X20831655Y23745349D01*
X20831651Y23745345D01*
X20698279Y23582830D01*
X20599170Y23397411D01*
X20599170Y23397410D01*
X20538144Y23196234D01*
X20517536Y22987000D01*
X635500Y22987000D01*
X635500Y24447500D01*
X12199374Y24447500D01*
X12218596Y24301493D01*
X12274953Y24165437D01*
X12274957Y24165430D01*
X12364597Y24048610D01*
X12364599Y24048608D01*
X12364603Y24048603D01*
X12364607Y24048600D01*
X12364609Y24048598D01*
X12481429Y23958958D01*
X12481434Y23958955D01*
X12481437Y23958953D01*
X12617493Y23902596D01*
X12763500Y23883374D01*
X12909507Y23902596D01*
X13045563Y23958953D01*
X13062093Y23971638D01*
X13115602Y23989800D01*
X16850123Y23989800D01*
X16855048Y23989523D01*
X16895606Y23984953D01*
X16895606Y23984954D01*
X16895607Y23984953D01*
X16954986Y23996189D01*
X17014733Y24005194D01*
X17014738Y24005197D01*
X17021030Y24007137D01*
X17021104Y24006897D01*
X17025039Y24008192D01*
X17024956Y24008429D01*
X17031168Y24010604D01*
X17031176Y24010605D01*
X17084599Y24038840D01*
X17139044Y24065059D01*
X17139046Y24065062D01*
X17144487Y24068770D01*
X17144628Y24068563D01*
X17148006Y24070960D01*
X17147858Y24071161D01*
X17153160Y24075075D01*
X17153159Y24075075D01*
X17153162Y24075076D01*
X17195894Y24117809D01*
X17240186Y24158905D01*
X17240187Y24158906D01*
X17244295Y24164057D01*
X17244489Y24163903D01*
X17252730Y24174646D01*
X19366240Y26288155D01*
X19420734Y26313566D01*
X19428395Y26313900D01*
X20669238Y26313900D01*
X20725739Y26293335D01*
X20755803Y26241264D01*
X20745362Y26182050D01*
X20737189Y26170242D01*
X20735491Y26168172D01*
X20698279Y26122830D01*
X20599170Y25937411D01*
X20599170Y25937410D01*
X20538144Y25736234D01*
X20517536Y25527000D01*
X20538144Y25317767D01*
X20599170Y25116591D01*
X20599170Y25116590D01*
X20599171Y25116587D01*
X20599172Y25116586D01*
X20698279Y24931171D01*
X20831653Y24768653D01*
X20994171Y24635279D01*
X21179586Y24536172D01*
X21380773Y24475143D01*
X21590000Y24454536D01*
X21799227Y24475143D01*
X22000414Y24536172D01*
X22185829Y24635279D01*
X22348347Y24768653D01*
X22481721Y24931171D01*
X22580828Y25116586D01*
X22641857Y25317773D01*
X22662464Y25527000D01*
X22641857Y25736227D01*
X22580828Y25937414D01*
X22481721Y26122829D01*
X22442813Y26170239D01*
X22422867Y26226959D01*
X22444047Y26283232D01*
X22496444Y26312726D01*
X22510762Y26313900D01*
X22659404Y26313900D01*
X22715905Y26293335D01*
X22721559Y26288155D01*
X23086354Y25923361D01*
X23111765Y25868867D01*
X23108314Y25835690D01*
X23078145Y25736236D01*
X23078143Y25736229D01*
X23057536Y25527000D01*
X23078144Y25317767D01*
X23139170Y25116591D01*
X23139170Y25116590D01*
X23139171Y25116587D01*
X23139172Y25116586D01*
X23238279Y24931171D01*
X23371653Y24768653D01*
X23534171Y24635279D01*
X23719586Y24536172D01*
X23920773Y24475143D01*
X24130000Y24454536D01*
X24339227Y24475143D01*
X24540414Y24536172D01*
X24725829Y24635279D01*
X24888347Y24768653D01*
X25021721Y24931171D01*
X25120828Y25116586D01*
X25181857Y25317773D01*
X25202464Y25527000D01*
X25181857Y25736227D01*
X25120828Y25937414D01*
X25021721Y26122829D01*
X24888347Y26285347D01*
X24725829Y26418721D01*
X24540414Y26517828D01*
X24540413Y26517829D01*
X24540410Y26517830D01*
X24339233Y26578856D01*
X24339228Y26578857D01*
X24339227Y26578857D01*
X24130000Y26599464D01*
X23920771Y26578857D01*
X23920764Y26578855D01*
X23821310Y26548686D01*
X23761272Y26551964D01*
X23733639Y26570646D01*
X23228963Y27075322D01*
X23225688Y27078987D01*
X23200232Y27110908D01*
X23150294Y27144955D01*
X23131264Y27159000D01*
X23101683Y27180832D01*
X23095861Y27183909D01*
X23095975Y27184126D01*
X23092268Y27185998D01*
X23092162Y27185775D01*
X23086230Y27188632D01*
X23028485Y27206444D01*
X22971452Y27226401D01*
X22964983Y27227625D01*
X22965028Y27227866D01*
X22960935Y27228562D01*
X22960899Y27228319D01*
X22954390Y27229300D01*
X22954387Y27229300D01*
X22893963Y27229300D01*
X22833575Y27231560D01*
X22833574Y27231560D01*
X22833568Y27231560D01*
X22827028Y27230823D01*
X22827000Y27231069D01*
X22813567Y27229300D01*
X22469072Y27229300D01*
X22412571Y27249865D01*
X22382507Y27301936D01*
X22392948Y27361150D01*
X22401124Y27372963D01*
X22481721Y27471171D01*
X22580828Y27656586D01*
X22641857Y27857773D01*
X22662464Y28067000D01*
X23109084Y28067000D01*
X23128702Y27867823D01*
X23186796Y27676314D01*
X23281139Y27499809D01*
X23310952Y27463481D01*
X23678066Y27830596D01*
X23742131Y27730910D01*
X23852530Y27635248D01*
X23894573Y27616048D01*
X23526479Y27247954D01*
X23562808Y27218140D01*
X23739313Y27123797D01*
X23930822Y27065703D01*
X24130000Y27046085D01*
X24329177Y27065703D01*
X24520686Y27123797D01*
X24697194Y27218142D01*
X24733519Y27247954D01*
X24365426Y27616048D01*
X24407470Y27635248D01*
X24517869Y27730910D01*
X24581932Y27830595D01*
X24949046Y27463481D01*
X24978858Y27499806D01*
X25073203Y27676314D01*
X25131297Y27867823D01*
X25150915Y28067000D01*
X25131297Y28266178D01*
X25073203Y28457687D01*
X24978860Y28634192D01*
X24949046Y28670521D01*
X24581931Y28303407D01*
X24517869Y28403090D01*
X24407470Y28498752D01*
X24365424Y28517954D01*
X24733519Y28886048D01*
X24697191Y28915861D01*
X24520686Y29010204D01*
X24329177Y29068298D01*
X24130000Y29087916D01*
X23930822Y29068298D01*
X23739313Y29010204D01*
X23739309Y29010203D01*
X23562813Y28915865D01*
X23526479Y28886048D01*
X23894574Y28517953D01*
X23852530Y28498752D01*
X23742131Y28403090D01*
X23678067Y28303406D01*
X23310952Y28670521D01*
X23281135Y28634187D01*
X23186797Y28457691D01*
X23186796Y28457687D01*
X23128702Y28266178D01*
X23109084Y28067000D01*
X22662464Y28067000D01*
X22641857Y28276227D01*
X22580828Y28477414D01*
X22481721Y28662829D01*
X22348347Y28825347D01*
X22185829Y28958721D01*
X22000414Y29057828D01*
X22000413Y29057829D01*
X22000410Y29057830D01*
X21799233Y29118856D01*
X21799228Y29118857D01*
X21799227Y29118857D01*
X21590000Y29139464D01*
X21380773Y29118857D01*
X21380771Y29118857D01*
X21380766Y29118856D01*
X21179590Y29057830D01*
X21179589Y29057830D01*
X20994170Y28958721D01*
X20831655Y28825349D01*
X20831651Y28825345D01*
X20698279Y28662830D01*
X20599170Y28477411D01*
X20599170Y28477410D01*
X20538144Y28276234D01*
X20538143Y28276229D01*
X20538143Y28276227D01*
X20517536Y28067000D01*
X20537153Y27867823D01*
X20538144Y27857767D01*
X20599170Y27656591D01*
X20599170Y27656590D01*
X20599171Y27656587D01*
X20599172Y27656586D01*
X20643013Y27574565D01*
X20698279Y27471171D01*
X20778876Y27372963D01*
X20798823Y27316241D01*
X20777643Y27259968D01*
X20725246Y27230474D01*
X20710928Y27229300D01*
X19230577Y27229300D01*
X19225652Y27229577D01*
X19185095Y27234147D01*
X19185094Y27234147D01*
X19185093Y27234147D01*
X19125713Y27222912D01*
X19065964Y27213906D01*
X19059674Y27211965D01*
X19059601Y27212200D01*
X19055655Y27210902D01*
X19055737Y27210669D01*
X19049525Y27208496D01*
X18996105Y27180263D01*
X18941653Y27154041D01*
X18936216Y27150333D01*
X18936078Y27150535D01*
X18932691Y27148132D01*
X18932837Y27147934D01*
X18927536Y27144022D01*
X18884819Y27101305D01*
X18840514Y27060195D01*
X18836404Y27055042D01*
X18836211Y27055196D01*
X18827967Y27044454D01*
X16714460Y24930945D01*
X16659966Y24905534D01*
X16652305Y24905200D01*
X13115602Y24905200D01*
X13062093Y24923363D01*
X13052212Y24930945D01*
X13045563Y24936047D01*
X12909507Y24992404D01*
X12763500Y25011626D01*
X12617492Y24992404D01*
X12481436Y24936047D01*
X12481429Y24936043D01*
X12364609Y24846403D01*
X12364597Y24846391D01*
X12274957Y24729571D01*
X12274953Y24729564D01*
X12218596Y24593508D01*
X12199374Y24447501D01*
X12199374Y24447500D01*
X635500Y24447500D01*
X635500Y27159000D01*
X6948536Y27159000D01*
X6958267Y27060195D01*
X6969144Y26949767D01*
X7030170Y26748591D01*
X7030170Y26748590D01*
X7030171Y26748587D01*
X7030172Y26748586D01*
X7129279Y26563171D01*
X7262653Y26400653D01*
X7425171Y26267279D01*
X7610586Y26168172D01*
X7610588Y26168172D01*
X7610589Y26168171D01*
X7760062Y26122829D01*
X7811773Y26107143D01*
X8021000Y26086536D01*
X8230227Y26107143D01*
X8431414Y26168172D01*
X8616829Y26267279D01*
X8779347Y26400653D01*
X8912721Y26563171D01*
X9011828Y26748586D01*
X9072857Y26949773D01*
X9093464Y27159000D01*
X9448536Y27159000D01*
X9458267Y27060195D01*
X9469144Y26949767D01*
X9530170Y26748591D01*
X9530170Y26748590D01*
X9530171Y26748587D01*
X9530172Y26748586D01*
X9629279Y26563171D01*
X9762653Y26400653D01*
X9925171Y26267279D01*
X10110586Y26168172D01*
X10110588Y26168172D01*
X10110589Y26168171D01*
X10260062Y26122829D01*
X10311773Y26107143D01*
X10521000Y26086536D01*
X10730227Y26107143D01*
X10931414Y26168172D01*
X11116829Y26267279D01*
X11279347Y26400653D01*
X11412721Y26563171D01*
X11511828Y26748586D01*
X11572857Y26949773D01*
X11593464Y27159000D01*
X11572857Y27368227D01*
X11511828Y27569414D01*
X11412721Y27754829D01*
X11279347Y27917347D01*
X11116829Y28050721D01*
X11059282Y28081481D01*
X11019149Y28126250D01*
X11017182Y28186345D01*
X11054303Y28233645D01*
X11059269Y28236513D01*
X11116829Y28267279D01*
X11279347Y28400653D01*
X11412721Y28563171D01*
X11511828Y28748586D01*
X11572857Y28949773D01*
X11593464Y29159000D01*
X11572857Y29368227D01*
X11511828Y29569414D01*
X11412721Y29754829D01*
X11279347Y29917347D01*
X11116829Y30050721D01*
X10931414Y30149828D01*
X10931413Y30149829D01*
X10931410Y30149830D01*
X10730233Y30210856D01*
X10730228Y30210857D01*
X10730227Y30210857D01*
X10521000Y30231464D01*
X10311773Y30210857D01*
X10311771Y30210857D01*
X10311766Y30210856D01*
X10110590Y30149830D01*
X10110589Y30149830D01*
X9925170Y30050721D01*
X9762655Y29917349D01*
X9762651Y29917345D01*
X9629279Y29754830D01*
X9530170Y29569411D01*
X9530170Y29569410D01*
X9469144Y29368234D01*
X9469143Y29368229D01*
X9469143Y29368227D01*
X9448536Y29159000D01*
X9468153Y28959823D01*
X9469144Y28949767D01*
X9530170Y28748591D01*
X9530170Y28748590D01*
X9530171Y28748587D01*
X9530172Y28748586D01*
X9629279Y28563171D01*
X9762653Y28400653D01*
X9925171Y28267279D01*
X9982715Y28236521D01*
X10022850Y28191749D01*
X10024817Y28131654D01*
X9987696Y28084355D01*
X9982715Y28081479D01*
X9925170Y28050721D01*
X9762655Y27917349D01*
X9762651Y27917345D01*
X9629279Y27754830D01*
X9530170Y27569411D01*
X9530170Y27569410D01*
X9469144Y27368234D01*
X9469143Y27368229D01*
X9469143Y27368227D01*
X9448536Y27159000D01*
X9093464Y27159000D01*
X9072857Y27368227D01*
X9011828Y27569414D01*
X8912721Y27754829D01*
X8779347Y27917347D01*
X8616829Y28050721D01*
X8504870Y28110565D01*
X8464737Y28155334D01*
X8462770Y28215429D01*
X8499891Y28262729D01*
X8504872Y28265605D01*
X8588194Y28310142D01*
X8624519Y28339954D01*
X8256426Y28708048D01*
X8298470Y28727248D01*
X8408869Y28822910D01*
X8472932Y28922595D01*
X8840046Y28555481D01*
X8869858Y28591806D01*
X8964203Y28768314D01*
X9022297Y28959823D01*
X9041915Y29159000D01*
X9022297Y29358178D01*
X8964203Y29549687D01*
X8869860Y29726192D01*
X8840046Y29762521D01*
X8472931Y29395407D01*
X8408869Y29495090D01*
X8298470Y29590752D01*
X8256424Y29609954D01*
X8624519Y29978048D01*
X8588191Y30007861D01*
X8411686Y30102204D01*
X8220177Y30160298D01*
X8021000Y30179916D01*
X7821822Y30160298D01*
X7630313Y30102204D01*
X7630309Y30102203D01*
X7453813Y30007865D01*
X7417479Y29978048D01*
X7785574Y29609953D01*
X7743530Y29590752D01*
X7633131Y29495090D01*
X7569067Y29395406D01*
X7201952Y29762521D01*
X7172135Y29726187D01*
X7077797Y29549691D01*
X7077796Y29549687D01*
X7019702Y29358178D01*
X7000084Y29159000D01*
X7019702Y28959823D01*
X7077796Y28768314D01*
X7172139Y28591809D01*
X7201952Y28555481D01*
X7569066Y28922596D01*
X7633131Y28822910D01*
X7743530Y28727248D01*
X7785573Y28708048D01*
X7417479Y28339954D01*
X7453808Y28310140D01*
X7537127Y28265605D01*
X7577262Y28220834D01*
X7579229Y28160739D01*
X7542108Y28113439D01*
X7537127Y28110563D01*
X7425170Y28050721D01*
X7262655Y27917349D01*
X7262651Y27917345D01*
X7129279Y27754830D01*
X7030170Y27569411D01*
X7030170Y27569410D01*
X6969144Y27368234D01*
X6969143Y27368229D01*
X6969143Y27368227D01*
X6948536Y27159000D01*
X635500Y27159000D01*
X635500Y31868998D01*
X1492082Y31868998D01*
X1511727Y31606850D01*
X1511729Y31606842D01*
X1570225Y31350554D01*
X1570227Y31350549D01*
X1666269Y31105835D01*
X1666270Y31105834D01*
X1797716Y30878164D01*
X1907264Y30740794D01*
X2323558Y31157088D01*
X2462782Y31004366D01*
X2542039Y30944514D01*
X2121663Y30524137D01*
X2154327Y30493828D01*
X2154333Y30493823D01*
X2371535Y30345736D01*
X2371545Y30345730D01*
X2608391Y30231671D01*
X2859608Y30154182D01*
X3119553Y30115001D01*
X3119561Y30115000D01*
X3382439Y30115000D01*
X3382446Y30115001D01*
X3642391Y30154182D01*
X3893608Y30231671D01*
X4130454Y30345730D01*
X4130464Y30345736D01*
X4347669Y30493825D01*
X4380335Y30524137D01*
X3959959Y30944513D01*
X4039218Y31004366D01*
X4178441Y31157087D01*
X4594734Y30740794D01*
X4704283Y30878164D01*
X4835729Y31105834D01*
X4835730Y31105835D01*
X4931772Y31350549D01*
X4931774Y31350554D01*
X4990270Y31606842D01*
X4990272Y31606850D01*
X5009918Y31868998D01*
X5009918Y31869003D01*
X5009319Y31877000D01*
X6928536Y31877000D01*
X6948153Y31677823D01*
X6949144Y31667767D01*
X7010170Y31466591D01*
X7010170Y31466590D01*
X7010171Y31466587D01*
X7010172Y31466586D01*
X7109279Y31281171D01*
X7242653Y31118653D01*
X7405171Y30985279D01*
X7590586Y30886172D01*
X7590588Y30886172D01*
X7590589Y30886171D01*
X7629874Y30874254D01*
X7791773Y30825143D01*
X8001000Y30804536D01*
X8210227Y30825143D01*
X8411414Y30886172D01*
X8596829Y30985279D01*
X8759347Y31118653D01*
X8892721Y31281171D01*
X8991828Y31466586D01*
X9052857Y31667773D01*
X9073464Y31877000D01*
X9520084Y31877000D01*
X9539702Y31677823D01*
X9597796Y31486314D01*
X9692139Y31309809D01*
X9721952Y31273481D01*
X10089066Y31640596D01*
X10153131Y31540910D01*
X10263530Y31445248D01*
X10305573Y31426048D01*
X9937479Y31057954D01*
X9973808Y31028140D01*
X10150313Y30933797D01*
X10341822Y30875703D01*
X10541000Y30856085D01*
X10740177Y30875703D01*
X10931686Y30933797D01*
X11108194Y31028142D01*
X11144519Y31057954D01*
X10776426Y31426048D01*
X10818470Y31445248D01*
X10928869Y31540910D01*
X10992932Y31640595D01*
X11360046Y31273481D01*
X11389858Y31309806D01*
X11484203Y31486314D01*
X11542297Y31677823D01*
X11561127Y31868998D01*
X13532082Y31868998D01*
X13551727Y31606850D01*
X13551729Y31606842D01*
X13610225Y31350554D01*
X13610227Y31350549D01*
X13706269Y31105835D01*
X13706270Y31105834D01*
X13837716Y30878164D01*
X13947264Y30740794D01*
X14363558Y31157088D01*
X14502782Y31004366D01*
X14582039Y30944514D01*
X14161663Y30524137D01*
X14194327Y30493828D01*
X14194333Y30493823D01*
X14411535Y30345736D01*
X14411545Y30345730D01*
X14648391Y30231671D01*
X14899608Y30154182D01*
X15159553Y30115001D01*
X15159561Y30115000D01*
X15422439Y30115000D01*
X15422446Y30115001D01*
X15682391Y30154182D01*
X15933608Y30231671D01*
X16170454Y30345730D01*
X16170464Y30345736D01*
X16387669Y30493825D01*
X16420335Y30524137D01*
X15999959Y30944513D01*
X16079218Y31004366D01*
X16218441Y31157087D01*
X16634734Y30740794D01*
X16744283Y30878164D01*
X16875729Y31105834D01*
X16875730Y31105835D01*
X16971772Y31350549D01*
X16971774Y31350554D01*
X17030270Y31606842D01*
X17030272Y31606850D01*
X17049918Y31868998D01*
X17049918Y31869003D01*
X17030272Y32131151D01*
X17030270Y32131159D01*
X16971774Y32387447D01*
X16971772Y32387452D01*
X16875730Y32632166D01*
X16875729Y32632167D01*
X16744283Y32859837D01*
X16634733Y32997208D01*
X16218439Y32580915D01*
X16079218Y32733634D01*
X15999958Y32793488D01*
X16420335Y33213865D01*
X16387672Y33244173D01*
X16387666Y33244178D01*
X16170464Y33392265D01*
X16170454Y33392271D01*
X15933608Y33506330D01*
X15682391Y33583819D01*
X15422446Y33623000D01*
X15159553Y33623000D01*
X14899608Y33583819D01*
X14648391Y33506330D01*
X14411545Y33392271D01*
X14411535Y33392265D01*
X14194334Y33244179D01*
X14194328Y33244174D01*
X14161663Y33213865D01*
X14582040Y32793488D01*
X14502782Y32733634D01*
X14363558Y32580914D01*
X13947264Y32997208D01*
X13947263Y32997208D01*
X13837721Y32859844D01*
X13837716Y32859837D01*
X13706270Y32632167D01*
X13706269Y32632166D01*
X13610227Y32387452D01*
X13610225Y32387447D01*
X13551729Y32131159D01*
X13551727Y32131151D01*
X13532082Y31869003D01*
X13532082Y31868998D01*
X11561127Y31868998D01*
X11561915Y31877000D01*
X11542297Y32076178D01*
X11484203Y32267687D01*
X11389860Y32444192D01*
X11360046Y32480521D01*
X10992931Y32113407D01*
X10928869Y32213090D01*
X10818470Y32308752D01*
X10776424Y32327954D01*
X11144519Y32696048D01*
X11108191Y32725861D01*
X10931686Y32820204D01*
X10740177Y32878298D01*
X10541000Y32897916D01*
X10341822Y32878298D01*
X10150313Y32820204D01*
X10150309Y32820203D01*
X9973813Y32725865D01*
X9937479Y32696048D01*
X10305574Y32327953D01*
X10263530Y32308752D01*
X10153131Y32213090D01*
X10089067Y32113406D01*
X9721952Y32480521D01*
X9692135Y32444187D01*
X9597797Y32267691D01*
X9597796Y32267687D01*
X9539702Y32076178D01*
X9520084Y31877000D01*
X9073464Y31877000D01*
X9052857Y32086227D01*
X8991828Y32287414D01*
X8892721Y32472829D01*
X8759347Y32635347D01*
X8596829Y32768721D01*
X8411414Y32867828D01*
X8411413Y32867829D01*
X8411410Y32867830D01*
X8210233Y32928856D01*
X8210228Y32928857D01*
X8210227Y32928857D01*
X8001000Y32949464D01*
X7791773Y32928857D01*
X7791771Y32928857D01*
X7791766Y32928856D01*
X7590590Y32867830D01*
X7590589Y32867830D01*
X7405170Y32768721D01*
X7242655Y32635349D01*
X7242651Y32635345D01*
X7109279Y32472830D01*
X7010170Y32287411D01*
X7010170Y32287410D01*
X6949144Y32086234D01*
X6949143Y32086229D01*
X6949143Y32086227D01*
X6928536Y31877000D01*
X5009319Y31877000D01*
X4990272Y32131151D01*
X4990270Y32131159D01*
X4931774Y32387447D01*
X4931772Y32387452D01*
X4835730Y32632166D01*
X4835729Y32632167D01*
X4704283Y32859837D01*
X4594733Y32997208D01*
X4178439Y32580915D01*
X4039218Y32733634D01*
X3959958Y32793488D01*
X4380335Y33213865D01*
X4347672Y33244173D01*
X4347666Y33244178D01*
X4130464Y33392265D01*
X4130454Y33392271D01*
X3893608Y33506330D01*
X3642391Y33583819D01*
X3382446Y33623000D01*
X3119553Y33623000D01*
X2859608Y33583819D01*
X2608391Y33506330D01*
X2371545Y33392271D01*
X2371535Y33392265D01*
X2154334Y33244179D01*
X2154328Y33244174D01*
X2121663Y33213865D01*
X2542040Y32793488D01*
X2462782Y32733634D01*
X2323558Y32580914D01*
X1907264Y32997208D01*
X1907263Y32997208D01*
X1797721Y32859844D01*
X1797716Y32859837D01*
X1666270Y32632167D01*
X1666269Y32632166D01*
X1570227Y32387452D01*
X1570225Y32387447D01*
X1511729Y32131159D01*
X1511727Y32131151D01*
X1492082Y31869003D01*
X1492082Y31868998D01*
X635500Y31868998D01*
X635500Y33820600D01*
X656065Y33877101D01*
X708136Y33907165D01*
X723400Y33908500D01*
X27851600Y33908500D01*
X27908101Y33887935D01*
G37*
%TD.AperFunction*%
M02*
