%TF.GenerationSoftware,KiCad,Pcbnew,7.0.8*%
%TF.CreationDate,2024-04-09T21:16:55-04:00*%
%TF.ProjectId,petit-jtag,70657469-742d-46a7-9461-672e6b696361,1.1*%
%TF.SameCoordinates,PX8aadb58PY72b28c8*%
%TF.FileFunction,Legend,Top*%
%TF.FilePolarity,Positive*%
%FSLAX46Y46*%
G04 Gerber Fmt 4.6, Leading zero omitted, Abs format (unit mm)*
G04 Created by KiCad (PCBNEW 7.0.8) date 2024-04-09 21:16:55*
%MOMM*%
%LPD*%
G01*
G04 APERTURE LIST*
%ADD10C,0.152400*%
%ADD11C,0.177800*%
%ADD12C,0.203200*%
%ADD13C,0.254000*%
%ADD14C,0.010000*%
G04 APERTURE END LIST*
D10*
X2733396Y1077096D02*
X2733396Y501363D01*
X2733396Y501363D02*
X2699529Y433629D01*
X2699529Y433629D02*
X2665663Y399763D01*
X2665663Y399763D02*
X2597929Y365896D01*
X2597929Y365896D02*
X2496329Y365896D01*
X2496329Y365896D02*
X2428596Y399763D01*
X2733396Y636829D02*
X2665663Y602963D01*
X2665663Y602963D02*
X2530196Y602963D01*
X2530196Y602963D02*
X2462463Y636829D01*
X2462463Y636829D02*
X2428596Y670696D01*
X2428596Y670696D02*
X2394729Y738429D01*
X2394729Y738429D02*
X2394729Y941629D01*
X2394729Y941629D02*
X2428596Y1009363D01*
X2428596Y1009363D02*
X2462463Y1043229D01*
X2462463Y1043229D02*
X2530196Y1077096D01*
X2530196Y1077096D02*
X2665663Y1077096D01*
X2665663Y1077096D02*
X2733396Y1043229D01*
X3072063Y602963D02*
X3072063Y1077096D01*
X3072063Y1314163D02*
X3038196Y1280296D01*
X3038196Y1280296D02*
X3072063Y1246429D01*
X3072063Y1246429D02*
X3105930Y1280296D01*
X3105930Y1280296D02*
X3072063Y1314163D01*
X3072063Y1314163D02*
X3072063Y1246429D01*
X3309130Y1077096D02*
X3580063Y1077096D01*
X3410730Y1314163D02*
X3410730Y704563D01*
X3410730Y704563D02*
X3444597Y636829D01*
X3444597Y636829D02*
X3512330Y602963D01*
X3512330Y602963D02*
X3580063Y602963D01*
X3817130Y602963D02*
X3817130Y1314163D01*
X4121930Y602963D02*
X4121930Y975496D01*
X4121930Y975496D02*
X4088063Y1043229D01*
X4088063Y1043229D02*
X4020330Y1077096D01*
X4020330Y1077096D02*
X3918730Y1077096D01*
X3918730Y1077096D02*
X3850997Y1043229D01*
X3850997Y1043229D02*
X3817130Y1009363D01*
X4765397Y1077096D02*
X4765397Y602963D01*
X4460597Y1077096D02*
X4460597Y704563D01*
X4460597Y704563D02*
X4494464Y636829D01*
X4494464Y636829D02*
X4562197Y602963D01*
X4562197Y602963D02*
X4663797Y602963D01*
X4663797Y602963D02*
X4731530Y636829D01*
X4731530Y636829D02*
X4765397Y670696D01*
X5104064Y602963D02*
X5104064Y1314163D01*
X5104064Y1043229D02*
X5171797Y1077096D01*
X5171797Y1077096D02*
X5307264Y1077096D01*
X5307264Y1077096D02*
X5374997Y1043229D01*
X5374997Y1043229D02*
X5408864Y1009363D01*
X5408864Y1009363D02*
X5442731Y941629D01*
X5442731Y941629D02*
X5442731Y738429D01*
X5442731Y738429D02*
X5408864Y670696D01*
X5408864Y670696D02*
X5374997Y636829D01*
X5374997Y636829D02*
X5307264Y602963D01*
X5307264Y602963D02*
X5171797Y602963D01*
X5171797Y602963D02*
X5104064Y636829D01*
X5747531Y670696D02*
X5781398Y636829D01*
X5781398Y636829D02*
X5747531Y602963D01*
X5747531Y602963D02*
X5713664Y636829D01*
X5713664Y636829D02*
X5747531Y670696D01*
X5747531Y670696D02*
X5747531Y602963D01*
X6390998Y636829D02*
X6323265Y602963D01*
X6323265Y602963D02*
X6187798Y602963D01*
X6187798Y602963D02*
X6120065Y636829D01*
X6120065Y636829D02*
X6086198Y670696D01*
X6086198Y670696D02*
X6052331Y738429D01*
X6052331Y738429D02*
X6052331Y941629D01*
X6052331Y941629D02*
X6086198Y1009363D01*
X6086198Y1009363D02*
X6120065Y1043229D01*
X6120065Y1043229D02*
X6187798Y1077096D01*
X6187798Y1077096D02*
X6323265Y1077096D01*
X6323265Y1077096D02*
X6390998Y1043229D01*
X6797398Y602963D02*
X6729665Y636829D01*
X6729665Y636829D02*
X6695798Y670696D01*
X6695798Y670696D02*
X6661931Y738429D01*
X6661931Y738429D02*
X6661931Y941629D01*
X6661931Y941629D02*
X6695798Y1009363D01*
X6695798Y1009363D02*
X6729665Y1043229D01*
X6729665Y1043229D02*
X6797398Y1077096D01*
X6797398Y1077096D02*
X6898998Y1077096D01*
X6898998Y1077096D02*
X6966731Y1043229D01*
X6966731Y1043229D02*
X7000598Y1009363D01*
X7000598Y1009363D02*
X7034465Y941629D01*
X7034465Y941629D02*
X7034465Y738429D01*
X7034465Y738429D02*
X7000598Y670696D01*
X7000598Y670696D02*
X6966731Y636829D01*
X6966731Y636829D02*
X6898998Y602963D01*
X6898998Y602963D02*
X6797398Y602963D01*
X7339265Y602963D02*
X7339265Y1077096D01*
X7339265Y1009363D02*
X7373132Y1043229D01*
X7373132Y1043229D02*
X7440865Y1077096D01*
X7440865Y1077096D02*
X7542465Y1077096D01*
X7542465Y1077096D02*
X7610198Y1043229D01*
X7610198Y1043229D02*
X7644065Y975496D01*
X7644065Y975496D02*
X7644065Y602963D01*
X7644065Y975496D02*
X7677932Y1043229D01*
X7677932Y1043229D02*
X7745665Y1077096D01*
X7745665Y1077096D02*
X7847265Y1077096D01*
X7847265Y1077096D02*
X7914998Y1043229D01*
X7914998Y1043229D02*
X7948865Y975496D01*
X7948865Y975496D02*
X7948865Y602963D01*
X8795532Y1348029D02*
X8185932Y433629D01*
X9337399Y602963D02*
X9337399Y1314163D01*
X9337399Y636829D02*
X9269666Y602963D01*
X9269666Y602963D02*
X9134199Y602963D01*
X9134199Y602963D02*
X9066466Y636829D01*
X9066466Y636829D02*
X9032599Y670696D01*
X9032599Y670696D02*
X8998732Y738429D01*
X8998732Y738429D02*
X8998732Y941629D01*
X8998732Y941629D02*
X9032599Y1009363D01*
X9032599Y1009363D02*
X9066466Y1043229D01*
X9066466Y1043229D02*
X9134199Y1077096D01*
X9134199Y1077096D02*
X9269666Y1077096D01*
X9269666Y1077096D02*
X9337399Y1043229D01*
X9676066Y602963D02*
X9676066Y1314163D01*
X9676066Y1043229D02*
X9743799Y1077096D01*
X9743799Y1077096D02*
X9879266Y1077096D01*
X9879266Y1077096D02*
X9946999Y1043229D01*
X9946999Y1043229D02*
X9980866Y1009363D01*
X9980866Y1009363D02*
X10014733Y941629D01*
X10014733Y941629D02*
X10014733Y738429D01*
X10014733Y738429D02*
X9980866Y670696D01*
X9980866Y670696D02*
X9946999Y636829D01*
X9946999Y636829D02*
X9879266Y602963D01*
X9879266Y602963D02*
X9743799Y602963D01*
X9743799Y602963D02*
X9676066Y636829D01*
X10319533Y873896D02*
X10861400Y873896D01*
X11470999Y636829D02*
X11403266Y602963D01*
X11403266Y602963D02*
X11267799Y602963D01*
X11267799Y602963D02*
X11200066Y636829D01*
X11200066Y636829D02*
X11166199Y704563D01*
X11166199Y704563D02*
X11166199Y975496D01*
X11166199Y975496D02*
X11200066Y1043229D01*
X11200066Y1043229D02*
X11267799Y1077096D01*
X11267799Y1077096D02*
X11403266Y1077096D01*
X11403266Y1077096D02*
X11470999Y1043229D01*
X11470999Y1043229D02*
X11504866Y975496D01*
X11504866Y975496D02*
X11504866Y907763D01*
X11504866Y907763D02*
X11166199Y840029D01*
X11911266Y602963D02*
X11843533Y636829D01*
X11843533Y636829D02*
X11809666Y704563D01*
X11809666Y704563D02*
X11809666Y1314163D01*
X12453132Y636829D02*
X12385399Y602963D01*
X12385399Y602963D02*
X12249932Y602963D01*
X12249932Y602963D02*
X12182199Y636829D01*
X12182199Y636829D02*
X12148332Y704563D01*
X12148332Y704563D02*
X12148332Y975496D01*
X12148332Y975496D02*
X12182199Y1043229D01*
X12182199Y1043229D02*
X12249932Y1077096D01*
X12249932Y1077096D02*
X12385399Y1077096D01*
X12385399Y1077096D02*
X12453132Y1043229D01*
X12453132Y1043229D02*
X12486999Y975496D01*
X12486999Y975496D02*
X12486999Y907763D01*
X12486999Y907763D02*
X12148332Y840029D01*
X13096599Y636829D02*
X13028866Y602963D01*
X13028866Y602963D02*
X12893399Y602963D01*
X12893399Y602963D02*
X12825666Y636829D01*
X12825666Y636829D02*
X12791799Y670696D01*
X12791799Y670696D02*
X12757932Y738429D01*
X12757932Y738429D02*
X12757932Y941629D01*
X12757932Y941629D02*
X12791799Y1009363D01*
X12791799Y1009363D02*
X12825666Y1043229D01*
X12825666Y1043229D02*
X12893399Y1077096D01*
X12893399Y1077096D02*
X13028866Y1077096D01*
X13028866Y1077096D02*
X13096599Y1043229D01*
X13299799Y1077096D02*
X13570732Y1077096D01*
X13401399Y1314163D02*
X13401399Y704563D01*
X13401399Y704563D02*
X13435266Y636829D01*
X13435266Y636829D02*
X13502999Y602963D01*
X13502999Y602963D02*
X13570732Y602963D01*
X13807799Y602963D02*
X13807799Y1077096D01*
X13807799Y941629D02*
X13841666Y1009363D01*
X13841666Y1009363D02*
X13875532Y1043229D01*
X13875532Y1043229D02*
X13943266Y1077096D01*
X13943266Y1077096D02*
X14010999Y1077096D01*
X14349666Y602963D02*
X14281933Y636829D01*
X14281933Y636829D02*
X14248066Y670696D01*
X14248066Y670696D02*
X14214199Y738429D01*
X14214199Y738429D02*
X14214199Y941629D01*
X14214199Y941629D02*
X14248066Y1009363D01*
X14248066Y1009363D02*
X14281933Y1043229D01*
X14281933Y1043229D02*
X14349666Y1077096D01*
X14349666Y1077096D02*
X14451266Y1077096D01*
X14451266Y1077096D02*
X14518999Y1043229D01*
X14518999Y1043229D02*
X14552866Y1009363D01*
X14552866Y1009363D02*
X14586733Y941629D01*
X14586733Y941629D02*
X14586733Y738429D01*
X14586733Y738429D02*
X14552866Y670696D01*
X14552866Y670696D02*
X14518999Y636829D01*
X14518999Y636829D02*
X14451266Y602963D01*
X14451266Y602963D02*
X14349666Y602963D01*
X14891533Y1077096D02*
X14891533Y602963D01*
X14891533Y1009363D02*
X14925400Y1043229D01*
X14925400Y1043229D02*
X14993133Y1077096D01*
X14993133Y1077096D02*
X15094733Y1077096D01*
X15094733Y1077096D02*
X15162466Y1043229D01*
X15162466Y1043229D02*
X15196333Y975496D01*
X15196333Y975496D02*
X15196333Y602963D01*
X15535000Y602963D02*
X15535000Y1077096D01*
X15535000Y1314163D02*
X15501133Y1280296D01*
X15501133Y1280296D02*
X15535000Y1246429D01*
X15535000Y1246429D02*
X15568867Y1280296D01*
X15568867Y1280296D02*
X15535000Y1314163D01*
X15535000Y1314163D02*
X15535000Y1246429D01*
X16178467Y636829D02*
X16110734Y602963D01*
X16110734Y602963D02*
X15975267Y602963D01*
X15975267Y602963D02*
X15907534Y636829D01*
X15907534Y636829D02*
X15873667Y670696D01*
X15873667Y670696D02*
X15839800Y738429D01*
X15839800Y738429D02*
X15839800Y941629D01*
X15839800Y941629D02*
X15873667Y1009363D01*
X15873667Y1009363D02*
X15907534Y1043229D01*
X15907534Y1043229D02*
X15975267Y1077096D01*
X15975267Y1077096D02*
X16110734Y1077096D01*
X16110734Y1077096D02*
X16178467Y1043229D01*
X16449400Y636829D02*
X16517134Y602963D01*
X16517134Y602963D02*
X16652600Y602963D01*
X16652600Y602963D02*
X16720334Y636829D01*
X16720334Y636829D02*
X16754200Y704563D01*
X16754200Y704563D02*
X16754200Y738429D01*
X16754200Y738429D02*
X16720334Y806163D01*
X16720334Y806163D02*
X16652600Y840029D01*
X16652600Y840029D02*
X16551000Y840029D01*
X16551000Y840029D02*
X16483267Y873896D01*
X16483267Y873896D02*
X16449400Y941629D01*
X16449400Y941629D02*
X16449400Y975496D01*
X16449400Y975496D02*
X16483267Y1043229D01*
X16483267Y1043229D02*
X16551000Y1077096D01*
X16551000Y1077096D02*
X16652600Y1077096D01*
X16652600Y1077096D02*
X16720334Y1043229D01*
X17567000Y1348029D02*
X16957400Y433629D01*
X17804067Y1077096D02*
X17804067Y365896D01*
X17804067Y1043229D02*
X17871800Y1077096D01*
X17871800Y1077096D02*
X18007267Y1077096D01*
X18007267Y1077096D02*
X18075000Y1043229D01*
X18075000Y1043229D02*
X18108867Y1009363D01*
X18108867Y1009363D02*
X18142734Y941629D01*
X18142734Y941629D02*
X18142734Y738429D01*
X18142734Y738429D02*
X18108867Y670696D01*
X18108867Y670696D02*
X18075000Y636829D01*
X18075000Y636829D02*
X18007267Y602963D01*
X18007267Y602963D02*
X17871800Y602963D01*
X17871800Y602963D02*
X17804067Y636829D01*
X18718467Y636829D02*
X18650734Y602963D01*
X18650734Y602963D02*
X18515267Y602963D01*
X18515267Y602963D02*
X18447534Y636829D01*
X18447534Y636829D02*
X18413667Y704563D01*
X18413667Y704563D02*
X18413667Y975496D01*
X18413667Y975496D02*
X18447534Y1043229D01*
X18447534Y1043229D02*
X18515267Y1077096D01*
X18515267Y1077096D02*
X18650734Y1077096D01*
X18650734Y1077096D02*
X18718467Y1043229D01*
X18718467Y1043229D02*
X18752334Y975496D01*
X18752334Y975496D02*
X18752334Y907763D01*
X18752334Y907763D02*
X18413667Y840029D01*
X18955534Y1077096D02*
X19226467Y1077096D01*
X19057134Y1314163D02*
X19057134Y704563D01*
X19057134Y704563D02*
X19091001Y636829D01*
X19091001Y636829D02*
X19158734Y602963D01*
X19158734Y602963D02*
X19226467Y602963D01*
X19463534Y602963D02*
X19463534Y1077096D01*
X19463534Y1314163D02*
X19429667Y1280296D01*
X19429667Y1280296D02*
X19463534Y1246429D01*
X19463534Y1246429D02*
X19497401Y1280296D01*
X19497401Y1280296D02*
X19463534Y1314163D01*
X19463534Y1314163D02*
X19463534Y1246429D01*
X19700601Y1077096D02*
X19971534Y1077096D01*
X19802201Y1314163D02*
X19802201Y704563D01*
X19802201Y704563D02*
X19836068Y636829D01*
X19836068Y636829D02*
X19903801Y602963D01*
X19903801Y602963D02*
X19971534Y602963D01*
X20208601Y873896D02*
X20750468Y873896D01*
X21089134Y1077096D02*
X21089134Y467496D01*
X21089134Y467496D02*
X21055267Y399763D01*
X21055267Y399763D02*
X20987534Y365896D01*
X20987534Y365896D02*
X20953667Y365896D01*
X21089134Y1314163D02*
X21055267Y1280296D01*
X21055267Y1280296D02*
X21089134Y1246429D01*
X21089134Y1246429D02*
X21123001Y1280296D01*
X21123001Y1280296D02*
X21089134Y1314163D01*
X21089134Y1314163D02*
X21089134Y1246429D01*
X21326201Y1077096D02*
X21597134Y1077096D01*
X21427801Y1314163D02*
X21427801Y704563D01*
X21427801Y704563D02*
X21461668Y636829D01*
X21461668Y636829D02*
X21529401Y602963D01*
X21529401Y602963D02*
X21597134Y602963D01*
X22139001Y602963D02*
X22139001Y975496D01*
X22139001Y975496D02*
X22105134Y1043229D01*
X22105134Y1043229D02*
X22037401Y1077096D01*
X22037401Y1077096D02*
X21901934Y1077096D01*
X21901934Y1077096D02*
X21834201Y1043229D01*
X22139001Y636829D02*
X22071268Y602963D01*
X22071268Y602963D02*
X21901934Y602963D01*
X21901934Y602963D02*
X21834201Y636829D01*
X21834201Y636829D02*
X21800334Y704563D01*
X21800334Y704563D02*
X21800334Y772296D01*
X21800334Y772296D02*
X21834201Y840029D01*
X21834201Y840029D02*
X21901934Y873896D01*
X21901934Y873896D02*
X22071268Y873896D01*
X22071268Y873896D02*
X22139001Y907763D01*
X22782468Y1077096D02*
X22782468Y501363D01*
X22782468Y501363D02*
X22748601Y433629D01*
X22748601Y433629D02*
X22714735Y399763D01*
X22714735Y399763D02*
X22647001Y365896D01*
X22647001Y365896D02*
X22545401Y365896D01*
X22545401Y365896D02*
X22477668Y399763D01*
X22782468Y636829D02*
X22714735Y602963D01*
X22714735Y602963D02*
X22579268Y602963D01*
X22579268Y602963D02*
X22511535Y636829D01*
X22511535Y636829D02*
X22477668Y670696D01*
X22477668Y670696D02*
X22443801Y738429D01*
X22443801Y738429D02*
X22443801Y941629D01*
X22443801Y941629D02*
X22477668Y1009363D01*
X22477668Y1009363D02*
X22511535Y1043229D01*
X22511535Y1043229D02*
X22579268Y1077096D01*
X22579268Y1077096D02*
X22714735Y1077096D01*
X22714735Y1077096D02*
X22782468Y1043229D01*
X23121135Y873896D02*
X23663002Y873896D01*
X24001668Y602963D02*
X24001668Y1314163D01*
X24069401Y873896D02*
X24272601Y602963D01*
X24272601Y1077096D02*
X24001668Y806163D01*
X24577401Y602963D02*
X24577401Y1077096D01*
X24577401Y1314163D02*
X24543534Y1280296D01*
X24543534Y1280296D02*
X24577401Y1246429D01*
X24577401Y1246429D02*
X24611268Y1280296D01*
X24611268Y1280296D02*
X24577401Y1314163D01*
X24577401Y1314163D02*
X24577401Y1246429D01*
X25220868Y636829D02*
X25153135Y602963D01*
X25153135Y602963D02*
X25017668Y602963D01*
X25017668Y602963D02*
X24949935Y636829D01*
X24949935Y636829D02*
X24916068Y670696D01*
X24916068Y670696D02*
X24882201Y738429D01*
X24882201Y738429D02*
X24882201Y941629D01*
X24882201Y941629D02*
X24916068Y1009363D01*
X24916068Y1009363D02*
X24949935Y1043229D01*
X24949935Y1043229D02*
X25017668Y1077096D01*
X25017668Y1077096D02*
X25153135Y1077096D01*
X25153135Y1077096D02*
X25220868Y1043229D01*
X25830468Y602963D02*
X25830468Y975496D01*
X25830468Y975496D02*
X25796601Y1043229D01*
X25796601Y1043229D02*
X25728868Y1077096D01*
X25728868Y1077096D02*
X25593401Y1077096D01*
X25593401Y1077096D02*
X25525668Y1043229D01*
X25830468Y636829D02*
X25762735Y602963D01*
X25762735Y602963D02*
X25593401Y602963D01*
X25593401Y602963D02*
X25525668Y636829D01*
X25525668Y636829D02*
X25491801Y704563D01*
X25491801Y704563D02*
X25491801Y772296D01*
X25491801Y772296D02*
X25525668Y840029D01*
X25525668Y840029D02*
X25593401Y873896D01*
X25593401Y873896D02*
X25762735Y873896D01*
X25762735Y873896D02*
X25830468Y907763D01*
X26473935Y602963D02*
X26473935Y1314163D01*
X26473935Y636829D02*
X26406202Y602963D01*
X26406202Y602963D02*
X26270735Y602963D01*
X26270735Y602963D02*
X26203002Y636829D01*
X26203002Y636829D02*
X26169135Y670696D01*
X26169135Y670696D02*
X26135268Y738429D01*
X26135268Y738429D02*
X26135268Y941629D01*
X26135268Y941629D02*
X26169135Y1009363D01*
X26169135Y1009363D02*
X26203002Y1043229D01*
X26203002Y1043229D02*
X26270735Y1077096D01*
X26270735Y1077096D02*
X26406202Y1077096D01*
X26406202Y1077096D02*
X26473935Y1043229D01*
D11*
X10234639Y33476709D02*
X10911973Y33476709D01*
X7694639Y33476709D02*
X8371973Y33476709D01*
X8033306Y33138042D02*
X8033306Y33815375D01*
D10*
X1209396Y8608027D02*
X1209396Y9319227D01*
X1209396Y8641893D02*
X1141663Y8608027D01*
X1141663Y8608027D02*
X1006196Y8608027D01*
X1006196Y8608027D02*
X938463Y8641893D01*
X938463Y8641893D02*
X904596Y8675760D01*
X904596Y8675760D02*
X870729Y8743493D01*
X870729Y8743493D02*
X870729Y8946693D01*
X870729Y8946693D02*
X904596Y9014427D01*
X904596Y9014427D02*
X938463Y9048293D01*
X938463Y9048293D02*
X1006196Y9082160D01*
X1006196Y9082160D02*
X1141663Y9082160D01*
X1141663Y9082160D02*
X1209396Y9048293D01*
X1548063Y8608027D02*
X1548063Y9319227D01*
X1548063Y9048293D02*
X1615796Y9082160D01*
X1615796Y9082160D02*
X1751263Y9082160D01*
X1751263Y9082160D02*
X1818996Y9048293D01*
X1818996Y9048293D02*
X1852863Y9014427D01*
X1852863Y9014427D02*
X1886730Y8946693D01*
X1886730Y8946693D02*
X1886730Y8743493D01*
X1886730Y8743493D02*
X1852863Y8675760D01*
X1852863Y8675760D02*
X1818996Y8641893D01*
X1818996Y8641893D02*
X1751263Y8608027D01*
X1751263Y8608027D02*
X1615796Y8608027D01*
X1615796Y8608027D02*
X1548063Y8641893D01*
X3004330Y8641893D02*
X2936597Y8608027D01*
X2936597Y8608027D02*
X2801130Y8608027D01*
X2801130Y8608027D02*
X2733397Y8641893D01*
X2733397Y8641893D02*
X2699530Y8709627D01*
X2699530Y8709627D02*
X2699530Y8980560D01*
X2699530Y8980560D02*
X2733397Y9048293D01*
X2733397Y9048293D02*
X2801130Y9082160D01*
X2801130Y9082160D02*
X2936597Y9082160D01*
X2936597Y9082160D02*
X3004330Y9048293D01*
X3004330Y9048293D02*
X3038197Y8980560D01*
X3038197Y8980560D02*
X3038197Y8912827D01*
X3038197Y8912827D02*
X2699530Y8845093D01*
X3444597Y8608027D02*
X3376864Y8641893D01*
X3376864Y8641893D02*
X3342997Y8709627D01*
X3342997Y8709627D02*
X3342997Y9319227D01*
X3986463Y8641893D02*
X3918730Y8608027D01*
X3918730Y8608027D02*
X3783263Y8608027D01*
X3783263Y8608027D02*
X3715530Y8641893D01*
X3715530Y8641893D02*
X3681663Y8709627D01*
X3681663Y8709627D02*
X3681663Y8980560D01*
X3681663Y8980560D02*
X3715530Y9048293D01*
X3715530Y9048293D02*
X3783263Y9082160D01*
X3783263Y9082160D02*
X3918730Y9082160D01*
X3918730Y9082160D02*
X3986463Y9048293D01*
X3986463Y9048293D02*
X4020330Y8980560D01*
X4020330Y8980560D02*
X4020330Y8912827D01*
X4020330Y8912827D02*
X3681663Y8845093D01*
X4629930Y8641893D02*
X4562197Y8608027D01*
X4562197Y8608027D02*
X4426730Y8608027D01*
X4426730Y8608027D02*
X4358997Y8641893D01*
X4358997Y8641893D02*
X4325130Y8675760D01*
X4325130Y8675760D02*
X4291263Y8743493D01*
X4291263Y8743493D02*
X4291263Y8946693D01*
X4291263Y8946693D02*
X4325130Y9014427D01*
X4325130Y9014427D02*
X4358997Y9048293D01*
X4358997Y9048293D02*
X4426730Y9082160D01*
X4426730Y9082160D02*
X4562197Y9082160D01*
X4562197Y9082160D02*
X4629930Y9048293D01*
X4833130Y9082160D02*
X5104063Y9082160D01*
X4934730Y9319227D02*
X4934730Y8709627D01*
X4934730Y8709627D02*
X4968597Y8641893D01*
X4968597Y8641893D02*
X5036330Y8608027D01*
X5036330Y8608027D02*
X5104063Y8608027D01*
X5341130Y8608027D02*
X5341130Y9082160D01*
X5341130Y8946693D02*
X5374997Y9014427D01*
X5374997Y9014427D02*
X5408863Y9048293D01*
X5408863Y9048293D02*
X5476597Y9082160D01*
X5476597Y9082160D02*
X5544330Y9082160D01*
X5882997Y8608027D02*
X5815264Y8641893D01*
X5815264Y8641893D02*
X5781397Y8675760D01*
X5781397Y8675760D02*
X5747530Y8743493D01*
X5747530Y8743493D02*
X5747530Y8946693D01*
X5747530Y8946693D02*
X5781397Y9014427D01*
X5781397Y9014427D02*
X5815264Y9048293D01*
X5815264Y9048293D02*
X5882997Y9082160D01*
X5882997Y9082160D02*
X5984597Y9082160D01*
X5984597Y9082160D02*
X6052330Y9048293D01*
X6052330Y9048293D02*
X6086197Y9014427D01*
X6086197Y9014427D02*
X6120064Y8946693D01*
X6120064Y8946693D02*
X6120064Y8743493D01*
X6120064Y8743493D02*
X6086197Y8675760D01*
X6086197Y8675760D02*
X6052330Y8641893D01*
X6052330Y8641893D02*
X5984597Y8608027D01*
X5984597Y8608027D02*
X5882997Y8608027D01*
X6424864Y9082160D02*
X6424864Y8608027D01*
X6424864Y9014427D02*
X6458731Y9048293D01*
X6458731Y9048293D02*
X6526464Y9082160D01*
X6526464Y9082160D02*
X6628064Y9082160D01*
X6628064Y9082160D02*
X6695797Y9048293D01*
X6695797Y9048293D02*
X6729664Y8980560D01*
X6729664Y8980560D02*
X6729664Y8608027D01*
X7068331Y8608027D02*
X7068331Y9082160D01*
X7068331Y9319227D02*
X7034464Y9285360D01*
X7034464Y9285360D02*
X7068331Y9251493D01*
X7068331Y9251493D02*
X7102198Y9285360D01*
X7102198Y9285360D02*
X7068331Y9319227D01*
X7068331Y9319227D02*
X7068331Y9251493D01*
X7711798Y8641893D02*
X7644065Y8608027D01*
X7644065Y8608027D02*
X7508598Y8608027D01*
X7508598Y8608027D02*
X7440865Y8641893D01*
X7440865Y8641893D02*
X7406998Y8675760D01*
X7406998Y8675760D02*
X7373131Y8743493D01*
X7373131Y8743493D02*
X7373131Y8946693D01*
X7373131Y8946693D02*
X7406998Y9014427D01*
X7406998Y9014427D02*
X7440865Y9048293D01*
X7440865Y9048293D02*
X7508598Y9082160D01*
X7508598Y9082160D02*
X7644065Y9082160D01*
X7644065Y9082160D02*
X7711798Y9048293D01*
X7982731Y8641893D02*
X8050465Y8608027D01*
X8050465Y8608027D02*
X8185931Y8608027D01*
X8185931Y8608027D02*
X8253665Y8641893D01*
X8253665Y8641893D02*
X8287531Y8709627D01*
X8287531Y8709627D02*
X8287531Y8743493D01*
X8287531Y8743493D02*
X8253665Y8811227D01*
X8253665Y8811227D02*
X8185931Y8845093D01*
X8185931Y8845093D02*
X8084331Y8845093D01*
X8084331Y8845093D02*
X8016598Y8878960D01*
X8016598Y8878960D02*
X7982731Y8946693D01*
X7982731Y8946693D02*
X7982731Y8980560D01*
X7982731Y8980560D02*
X8016598Y9048293D01*
X8016598Y9048293D02*
X8084331Y9082160D01*
X8084331Y9082160D02*
X8185931Y9082160D01*
X8185931Y9082160D02*
X8253665Y9048293D01*
X904596Y7937128D02*
X904596Y7225928D01*
X904596Y7903261D02*
X972329Y7937128D01*
X972329Y7937128D02*
X1107796Y7937128D01*
X1107796Y7937128D02*
X1175529Y7903261D01*
X1175529Y7903261D02*
X1209396Y7869395D01*
X1209396Y7869395D02*
X1243263Y7801661D01*
X1243263Y7801661D02*
X1243263Y7598461D01*
X1243263Y7598461D02*
X1209396Y7530728D01*
X1209396Y7530728D02*
X1175529Y7496861D01*
X1175529Y7496861D02*
X1107796Y7462995D01*
X1107796Y7462995D02*
X972329Y7462995D01*
X972329Y7462995D02*
X904596Y7496861D01*
X1818996Y7496861D02*
X1751263Y7462995D01*
X1751263Y7462995D02*
X1615796Y7462995D01*
X1615796Y7462995D02*
X1548063Y7496861D01*
X1548063Y7496861D02*
X1514196Y7564595D01*
X1514196Y7564595D02*
X1514196Y7835528D01*
X1514196Y7835528D02*
X1548063Y7903261D01*
X1548063Y7903261D02*
X1615796Y7937128D01*
X1615796Y7937128D02*
X1751263Y7937128D01*
X1751263Y7937128D02*
X1818996Y7903261D01*
X1818996Y7903261D02*
X1852863Y7835528D01*
X1852863Y7835528D02*
X1852863Y7767795D01*
X1852863Y7767795D02*
X1514196Y7700061D01*
X2056063Y7937128D02*
X2326996Y7937128D01*
X2157663Y8174195D02*
X2157663Y7564595D01*
X2157663Y7564595D02*
X2191530Y7496861D01*
X2191530Y7496861D02*
X2259263Y7462995D01*
X2259263Y7462995D02*
X2326996Y7462995D01*
X2564063Y7462995D02*
X2564063Y7937128D01*
X2564063Y8174195D02*
X2530196Y8140328D01*
X2530196Y8140328D02*
X2564063Y8106461D01*
X2564063Y8106461D02*
X2597930Y8140328D01*
X2597930Y8140328D02*
X2564063Y8174195D01*
X2564063Y8174195D02*
X2564063Y8106461D01*
X2801130Y7937128D02*
X3072063Y7937128D01*
X2902730Y8174195D02*
X2902730Y7564595D01*
X2902730Y7564595D02*
X2936597Y7496861D01*
X2936597Y7496861D02*
X3004330Y7462995D01*
X3004330Y7462995D02*
X3072063Y7462995D01*
X3850997Y7937128D02*
X3850997Y7327528D01*
X3850997Y7327528D02*
X3817130Y7259795D01*
X3817130Y7259795D02*
X3749397Y7225928D01*
X3749397Y7225928D02*
X3715530Y7225928D01*
X3850997Y8174195D02*
X3817130Y8140328D01*
X3817130Y8140328D02*
X3850997Y8106461D01*
X3850997Y8106461D02*
X3884864Y8140328D01*
X3884864Y8140328D02*
X3850997Y8174195D01*
X3850997Y8174195D02*
X3850997Y8106461D01*
X4088064Y7937128D02*
X4358997Y7937128D01*
X4189664Y8174195D02*
X4189664Y7564595D01*
X4189664Y7564595D02*
X4223531Y7496861D01*
X4223531Y7496861D02*
X4291264Y7462995D01*
X4291264Y7462995D02*
X4358997Y7462995D01*
X4900864Y7462995D02*
X4900864Y7835528D01*
X4900864Y7835528D02*
X4866997Y7903261D01*
X4866997Y7903261D02*
X4799264Y7937128D01*
X4799264Y7937128D02*
X4663797Y7937128D01*
X4663797Y7937128D02*
X4596064Y7903261D01*
X4900864Y7496861D02*
X4833131Y7462995D01*
X4833131Y7462995D02*
X4663797Y7462995D01*
X4663797Y7462995D02*
X4596064Y7496861D01*
X4596064Y7496861D02*
X4562197Y7564595D01*
X4562197Y7564595D02*
X4562197Y7632328D01*
X4562197Y7632328D02*
X4596064Y7700061D01*
X4596064Y7700061D02*
X4663797Y7733928D01*
X4663797Y7733928D02*
X4833131Y7733928D01*
X4833131Y7733928D02*
X4900864Y7767795D01*
X5544331Y7937128D02*
X5544331Y7361395D01*
X5544331Y7361395D02*
X5510464Y7293661D01*
X5510464Y7293661D02*
X5476598Y7259795D01*
X5476598Y7259795D02*
X5408864Y7225928D01*
X5408864Y7225928D02*
X5307264Y7225928D01*
X5307264Y7225928D02*
X5239531Y7259795D01*
X5544331Y7496861D02*
X5476598Y7462995D01*
X5476598Y7462995D02*
X5341131Y7462995D01*
X5341131Y7462995D02*
X5273398Y7496861D01*
X5273398Y7496861D02*
X5239531Y7530728D01*
X5239531Y7530728D02*
X5205664Y7598461D01*
X5205664Y7598461D02*
X5205664Y7801661D01*
X5205664Y7801661D02*
X5239531Y7869395D01*
X5239531Y7869395D02*
X5273398Y7903261D01*
X5273398Y7903261D02*
X5341131Y7937128D01*
X5341131Y7937128D02*
X5476598Y7937128D01*
X5476598Y7937128D02*
X5544331Y7903261D01*
X6357132Y7937128D02*
X6526465Y7462995D01*
X6526465Y7462995D02*
X6695798Y7937128D01*
X7339265Y7462995D02*
X6932865Y7462995D01*
X7136065Y7462995D02*
X7136065Y8174195D01*
X7136065Y8174195D02*
X7068332Y8072595D01*
X7068332Y8072595D02*
X7000599Y8004861D01*
X7000599Y8004861D02*
X6932865Y7970995D01*
X7644065Y7530728D02*
X7677932Y7496861D01*
X7677932Y7496861D02*
X7644065Y7462995D01*
X7644065Y7462995D02*
X7610198Y7496861D01*
X7610198Y7496861D02*
X7644065Y7530728D01*
X7644065Y7530728D02*
X7644065Y7462995D01*
X8355265Y7462995D02*
X7948865Y7462995D01*
X8152065Y7462995D02*
X8152065Y8174195D01*
X8152065Y8174195D02*
X8084332Y8072595D01*
X8084332Y8072595D02*
X8016599Y8004861D01*
X8016599Y8004861D02*
X7948865Y7970995D01*
X870729Y6961429D02*
X904596Y6995296D01*
X904596Y6995296D02*
X972329Y7029163D01*
X972329Y7029163D02*
X1141663Y7029163D01*
X1141663Y7029163D02*
X1209396Y6995296D01*
X1209396Y6995296D02*
X1243263Y6961429D01*
X1243263Y6961429D02*
X1277129Y6893696D01*
X1277129Y6893696D02*
X1277129Y6825963D01*
X1277129Y6825963D02*
X1243263Y6724363D01*
X1243263Y6724363D02*
X836863Y6317963D01*
X836863Y6317963D02*
X1277129Y6317963D01*
X1717396Y7029163D02*
X1785129Y7029163D01*
X1785129Y7029163D02*
X1852862Y6995296D01*
X1852862Y6995296D02*
X1886729Y6961429D01*
X1886729Y6961429D02*
X1920596Y6893696D01*
X1920596Y6893696D02*
X1954462Y6758229D01*
X1954462Y6758229D02*
X1954462Y6588896D01*
X1954462Y6588896D02*
X1920596Y6453429D01*
X1920596Y6453429D02*
X1886729Y6385696D01*
X1886729Y6385696D02*
X1852862Y6351829D01*
X1852862Y6351829D02*
X1785129Y6317963D01*
X1785129Y6317963D02*
X1717396Y6317963D01*
X1717396Y6317963D02*
X1649662Y6351829D01*
X1649662Y6351829D02*
X1615796Y6385696D01*
X1615796Y6385696D02*
X1581929Y6453429D01*
X1581929Y6453429D02*
X1548062Y6588896D01*
X1548062Y6588896D02*
X1548062Y6758229D01*
X1548062Y6758229D02*
X1581929Y6893696D01*
X1581929Y6893696D02*
X1615796Y6961429D01*
X1615796Y6961429D02*
X1649662Y6995296D01*
X1649662Y6995296D02*
X1717396Y7029163D01*
X2225395Y6961429D02*
X2259262Y6995296D01*
X2259262Y6995296D02*
X2326995Y7029163D01*
X2326995Y7029163D02*
X2496329Y7029163D01*
X2496329Y7029163D02*
X2564062Y6995296D01*
X2564062Y6995296D02*
X2597929Y6961429D01*
X2597929Y6961429D02*
X2631795Y6893696D01*
X2631795Y6893696D02*
X2631795Y6825963D01*
X2631795Y6825963D02*
X2597929Y6724363D01*
X2597929Y6724363D02*
X2191529Y6317963D01*
X2191529Y6317963D02*
X2631795Y6317963D01*
X3241395Y6792096D02*
X3241395Y6317963D01*
X3072062Y7063029D02*
X2902728Y6555029D01*
X2902728Y6555029D02*
X3342995Y6555029D01*
X3613928Y6385696D02*
X3647795Y6351829D01*
X3647795Y6351829D02*
X3613928Y6317963D01*
X3613928Y6317963D02*
X3580061Y6351829D01*
X3580061Y6351829D02*
X3613928Y6385696D01*
X3613928Y6385696D02*
X3613928Y6317963D01*
X4088062Y7029163D02*
X4155795Y7029163D01*
X4155795Y7029163D02*
X4223528Y6995296D01*
X4223528Y6995296D02*
X4257395Y6961429D01*
X4257395Y6961429D02*
X4291262Y6893696D01*
X4291262Y6893696D02*
X4325128Y6758229D01*
X4325128Y6758229D02*
X4325128Y6588896D01*
X4325128Y6588896D02*
X4291262Y6453429D01*
X4291262Y6453429D02*
X4257395Y6385696D01*
X4257395Y6385696D02*
X4223528Y6351829D01*
X4223528Y6351829D02*
X4155795Y6317963D01*
X4155795Y6317963D02*
X4088062Y6317963D01*
X4088062Y6317963D02*
X4020328Y6351829D01*
X4020328Y6351829D02*
X3986462Y6385696D01*
X3986462Y6385696D02*
X3952595Y6453429D01*
X3952595Y6453429D02*
X3918728Y6588896D01*
X3918728Y6588896D02*
X3918728Y6758229D01*
X3918728Y6758229D02*
X3952595Y6893696D01*
X3952595Y6893696D02*
X3986462Y6961429D01*
X3986462Y6961429D02*
X4020328Y6995296D01*
X4020328Y6995296D02*
X4088062Y7029163D01*
X4934728Y6792096D02*
X4934728Y6317963D01*
X4765395Y7063029D02*
X4596061Y6555029D01*
X4596061Y6555029D02*
X5036328Y6555029D01*
X5307261Y6385696D02*
X5341128Y6351829D01*
X5341128Y6351829D02*
X5307261Y6317963D01*
X5307261Y6317963D02*
X5273394Y6351829D01*
X5273394Y6351829D02*
X5307261Y6385696D01*
X5307261Y6385696D02*
X5307261Y6317963D01*
X5781395Y7029163D02*
X5849128Y7029163D01*
X5849128Y7029163D02*
X5916861Y6995296D01*
X5916861Y6995296D02*
X5950728Y6961429D01*
X5950728Y6961429D02*
X5984595Y6893696D01*
X5984595Y6893696D02*
X6018461Y6758229D01*
X6018461Y6758229D02*
X6018461Y6588896D01*
X6018461Y6588896D02*
X5984595Y6453429D01*
X5984595Y6453429D02*
X5950728Y6385696D01*
X5950728Y6385696D02*
X5916861Y6351829D01*
X5916861Y6351829D02*
X5849128Y6317963D01*
X5849128Y6317963D02*
X5781395Y6317963D01*
X5781395Y6317963D02*
X5713661Y6351829D01*
X5713661Y6351829D02*
X5679795Y6385696D01*
X5679795Y6385696D02*
X5645928Y6453429D01*
X5645928Y6453429D02*
X5612061Y6588896D01*
X5612061Y6588896D02*
X5612061Y6758229D01*
X5612061Y6758229D02*
X5645928Y6893696D01*
X5645928Y6893696D02*
X5679795Y6961429D01*
X5679795Y6961429D02*
X5713661Y6995296D01*
X5713661Y6995296D02*
X5781395Y7029163D01*
X6357128Y6317963D02*
X6492594Y6317963D01*
X6492594Y6317963D02*
X6560328Y6351829D01*
X6560328Y6351829D02*
X6594194Y6385696D01*
X6594194Y6385696D02*
X6661928Y6487296D01*
X6661928Y6487296D02*
X6695794Y6622763D01*
X6695794Y6622763D02*
X6695794Y6893696D01*
X6695794Y6893696D02*
X6661928Y6961429D01*
X6661928Y6961429D02*
X6628061Y6995296D01*
X6628061Y6995296D02*
X6560328Y7029163D01*
X6560328Y7029163D02*
X6424861Y7029163D01*
X6424861Y7029163D02*
X6357128Y6995296D01*
X6357128Y6995296D02*
X6323261Y6961429D01*
X6323261Y6961429D02*
X6289394Y6893696D01*
X6289394Y6893696D02*
X6289394Y6724363D01*
X6289394Y6724363D02*
X6323261Y6656629D01*
X6323261Y6656629D02*
X6357128Y6622763D01*
X6357128Y6622763D02*
X6424861Y6588896D01*
X6424861Y6588896D02*
X6560328Y6588896D01*
X6560328Y6588896D02*
X6628061Y6622763D01*
X6628061Y6622763D02*
X6661928Y6656629D01*
X6661928Y6656629D02*
X6695794Y6724363D01*
D12*
X3181684Y20388563D02*
X2758350Y20388563D01*
X2758350Y20388563D02*
X2716017Y19965230D01*
X2716017Y19965230D02*
X2758350Y20007563D01*
X2758350Y20007563D02*
X2843017Y20049896D01*
X2843017Y20049896D02*
X3054684Y20049896D01*
X3054684Y20049896D02*
X3139350Y20007563D01*
X3139350Y20007563D02*
X3181684Y19965230D01*
X3181684Y19965230D02*
X3224017Y19880563D01*
X3224017Y19880563D02*
X3224017Y19668896D01*
X3224017Y19668896D02*
X3181684Y19584230D01*
X3181684Y19584230D02*
X3139350Y19541896D01*
X3139350Y19541896D02*
X3054684Y19499563D01*
X3054684Y19499563D02*
X2843017Y19499563D01*
X2843017Y19499563D02*
X2758350Y19541896D01*
X2758350Y19541896D02*
X2716017Y19584230D01*
X3478017Y20388563D02*
X3774351Y19499563D01*
X3774351Y19499563D02*
X4070684Y20388563D01*
X1767750Y17848563D02*
X2064084Y16959563D01*
X2064084Y16959563D02*
X2360417Y17848563D01*
X3164750Y17044230D02*
X3122417Y17001896D01*
X3122417Y17001896D02*
X2995417Y16959563D01*
X2995417Y16959563D02*
X2910750Y16959563D01*
X2910750Y16959563D02*
X2783750Y17001896D01*
X2783750Y17001896D02*
X2699084Y17086563D01*
X2699084Y17086563D02*
X2656750Y17171230D01*
X2656750Y17171230D02*
X2614417Y17340563D01*
X2614417Y17340563D02*
X2614417Y17467563D01*
X2614417Y17467563D02*
X2656750Y17636896D01*
X2656750Y17636896D02*
X2699084Y17721563D01*
X2699084Y17721563D02*
X2783750Y17806230D01*
X2783750Y17806230D02*
X2910750Y17848563D01*
X2910750Y17848563D02*
X2995417Y17848563D01*
X2995417Y17848563D02*
X3122417Y17806230D01*
X3122417Y17806230D02*
X3164750Y17763896D01*
X4053750Y17044230D02*
X4011417Y17001896D01*
X4011417Y17001896D02*
X3884417Y16959563D01*
X3884417Y16959563D02*
X3799750Y16959563D01*
X3799750Y16959563D02*
X3672750Y17001896D01*
X3672750Y17001896D02*
X3588084Y17086563D01*
X3588084Y17086563D02*
X3545750Y17171230D01*
X3545750Y17171230D02*
X3503417Y17340563D01*
X3503417Y17340563D02*
X3503417Y17467563D01*
X3503417Y17467563D02*
X3545750Y17636896D01*
X3545750Y17636896D02*
X3588084Y17721563D01*
X3588084Y17721563D02*
X3672750Y17806230D01*
X3672750Y17806230D02*
X3799750Y17848563D01*
X3799750Y17848563D02*
X3884417Y17848563D01*
X3884417Y17848563D02*
X4011417Y17806230D01*
X4011417Y17806230D02*
X4053750Y17763896D01*
X1403684Y15359363D02*
X1954017Y15359363D01*
X1954017Y15359363D02*
X1657684Y15020696D01*
X1657684Y15020696D02*
X1784684Y15020696D01*
X1784684Y15020696D02*
X1869350Y14978363D01*
X1869350Y14978363D02*
X1911684Y14936030D01*
X1911684Y14936030D02*
X1954017Y14851363D01*
X1954017Y14851363D02*
X1954017Y14639696D01*
X1954017Y14639696D02*
X1911684Y14555030D01*
X1911684Y14555030D02*
X1869350Y14512696D01*
X1869350Y14512696D02*
X1784684Y14470363D01*
X1784684Y14470363D02*
X1530684Y14470363D01*
X1530684Y14470363D02*
X1446017Y14512696D01*
X1446017Y14512696D02*
X1403684Y14555030D01*
X2335017Y14555030D02*
X2377351Y14512696D01*
X2377351Y14512696D02*
X2335017Y14470363D01*
X2335017Y14470363D02*
X2292684Y14512696D01*
X2292684Y14512696D02*
X2335017Y14555030D01*
X2335017Y14555030D02*
X2335017Y14470363D01*
X2673684Y15359363D02*
X3224017Y15359363D01*
X3224017Y15359363D02*
X2927684Y15020696D01*
X2927684Y15020696D02*
X3054684Y15020696D01*
X3054684Y15020696D02*
X3139350Y14978363D01*
X3139350Y14978363D02*
X3181684Y14936030D01*
X3181684Y14936030D02*
X3224017Y14851363D01*
X3224017Y14851363D02*
X3224017Y14639696D01*
X3224017Y14639696D02*
X3181684Y14555030D01*
X3181684Y14555030D02*
X3139350Y14512696D01*
X3139350Y14512696D02*
X3054684Y14470363D01*
X3054684Y14470363D02*
X2800684Y14470363D01*
X2800684Y14470363D02*
X2716017Y14512696D01*
X2716017Y14512696D02*
X2673684Y14555030D01*
X3478017Y15359363D02*
X3774351Y14470363D01*
X3774351Y14470363D02*
X4070684Y15359363D01*
X2475035Y25378834D02*
X2517369Y25336501D01*
X2517369Y25336501D02*
X2559702Y25209501D01*
X2559702Y25209501D02*
X2559702Y25124834D01*
X2559702Y25124834D02*
X2517369Y24997834D01*
X2517369Y24997834D02*
X2432702Y24913167D01*
X2432702Y24913167D02*
X2348035Y24870834D01*
X2348035Y24870834D02*
X2178702Y24828501D01*
X2178702Y24828501D02*
X2051702Y24828501D01*
X2051702Y24828501D02*
X1882369Y24870834D01*
X1882369Y24870834D02*
X1797702Y24913167D01*
X1797702Y24913167D02*
X1713035Y24997834D01*
X1713035Y24997834D02*
X1670702Y25124834D01*
X1670702Y25124834D02*
X1670702Y25209501D01*
X1670702Y25209501D02*
X1713035Y25336501D01*
X1713035Y25336501D02*
X1755369Y25378834D01*
X1670702Y25929167D02*
X1670702Y26098501D01*
X1670702Y26098501D02*
X1713035Y26183167D01*
X1713035Y26183167D02*
X1797702Y26267834D01*
X1797702Y26267834D02*
X1967035Y26310167D01*
X1967035Y26310167D02*
X2263369Y26310167D01*
X2263369Y26310167D02*
X2432702Y26267834D01*
X2432702Y26267834D02*
X2517369Y26183167D01*
X2517369Y26183167D02*
X2559702Y26098501D01*
X2559702Y26098501D02*
X2559702Y25929167D01*
X2559702Y25929167D02*
X2517369Y25844501D01*
X2517369Y25844501D02*
X2432702Y25759834D01*
X2432702Y25759834D02*
X2263369Y25717501D01*
X2263369Y25717501D02*
X1967035Y25717501D01*
X1967035Y25717501D02*
X1797702Y25759834D01*
X1797702Y25759834D02*
X1713035Y25844501D01*
X1713035Y25844501D02*
X1670702Y25929167D01*
X2559702Y26691167D02*
X1670702Y26691167D01*
X1670702Y26691167D02*
X2559702Y27199167D01*
X2559702Y27199167D02*
X1670702Y27199167D01*
X2559702Y28088167D02*
X2559702Y27580167D01*
X2559702Y27834167D02*
X1670702Y27834167D01*
X1670702Y27834167D02*
X1797702Y27749500D01*
X1797702Y27749500D02*
X1882369Y27664833D01*
X1882369Y27664833D02*
X1924702Y27580167D01*
X1670702Y28638500D02*
X1670702Y28723167D01*
X1670702Y28723167D02*
X1713035Y28807834D01*
X1713035Y28807834D02*
X1755369Y28850167D01*
X1755369Y28850167D02*
X1840035Y28892500D01*
X1840035Y28892500D02*
X2009369Y28934834D01*
X2009369Y28934834D02*
X2221035Y28934834D01*
X2221035Y28934834D02*
X2390369Y28892500D01*
X2390369Y28892500D02*
X2475035Y28850167D01*
X2475035Y28850167D02*
X2517369Y28807834D01*
X2517369Y28807834D02*
X2559702Y28723167D01*
X2559702Y28723167D02*
X2559702Y28638500D01*
X2559702Y28638500D02*
X2517369Y28553834D01*
X2517369Y28553834D02*
X2475035Y28511500D01*
X2475035Y28511500D02*
X2390369Y28469167D01*
X2390369Y28469167D02*
X2221035Y28426834D01*
X2221035Y28426834D02*
X2009369Y28426834D01*
X2009369Y28426834D02*
X1840035Y28469167D01*
X1840035Y28469167D02*
X1755369Y28511500D01*
X1755369Y28511500D02*
X1713035Y28553834D01*
X1713035Y28553834D02*
X1670702Y28638500D01*
X1755369Y29273501D02*
X1713035Y29315834D01*
X1713035Y29315834D02*
X1670702Y29400501D01*
X1670702Y29400501D02*
X1670702Y29612167D01*
X1670702Y29612167D02*
X1713035Y29696834D01*
X1713035Y29696834D02*
X1755369Y29739167D01*
X1755369Y29739167D02*
X1840035Y29781501D01*
X1840035Y29781501D02*
X1924702Y29781501D01*
X1924702Y29781501D02*
X2051702Y29739167D01*
X2051702Y29739167D02*
X2559702Y29231167D01*
X2559702Y29231167D02*
X2559702Y29781501D01*
X12721166Y24194965D02*
X12678833Y24152631D01*
X12678833Y24152631D02*
X12551833Y24110298D01*
X12551833Y24110298D02*
X12467166Y24110298D01*
X12467166Y24110298D02*
X12340166Y24152631D01*
X12340166Y24152631D02*
X12255500Y24237298D01*
X12255500Y24237298D02*
X12213166Y24321965D01*
X12213166Y24321965D02*
X12170833Y24491298D01*
X12170833Y24491298D02*
X12170833Y24618298D01*
X12170833Y24618298D02*
X12213166Y24787631D01*
X12213166Y24787631D02*
X12255500Y24872298D01*
X12255500Y24872298D02*
X12340166Y24956965D01*
X12340166Y24956965D02*
X12467166Y24999298D01*
X12467166Y24999298D02*
X12551833Y24999298D01*
X12551833Y24999298D02*
X12678833Y24956965D01*
X12678833Y24956965D02*
X12721166Y24914631D01*
X13567833Y24110298D02*
X13059833Y24110298D01*
X13313833Y24110298D02*
X13313833Y24999298D01*
X13313833Y24999298D02*
X13229166Y24872298D01*
X13229166Y24872298D02*
X13144500Y24787631D01*
X13144500Y24787631D02*
X13059833Y24745298D01*
X14118167Y24999298D02*
X14202833Y24999298D01*
X14202833Y24999298D02*
X14287500Y24956965D01*
X14287500Y24956965D02*
X14329833Y24914631D01*
X14329833Y24914631D02*
X14372167Y24829965D01*
X14372167Y24829965D02*
X14414500Y24660631D01*
X14414500Y24660631D02*
X14414500Y24448965D01*
X14414500Y24448965D02*
X14372167Y24279631D01*
X14372167Y24279631D02*
X14329833Y24194965D01*
X14329833Y24194965D02*
X14287500Y24152631D01*
X14287500Y24152631D02*
X14202833Y24110298D01*
X14202833Y24110298D02*
X14118167Y24110298D01*
X14118167Y24110298D02*
X14033500Y24152631D01*
X14033500Y24152631D02*
X13991167Y24194965D01*
X13991167Y24194965D02*
X13948833Y24279631D01*
X13948833Y24279631D02*
X13906500Y24448965D01*
X13906500Y24448965D02*
X13906500Y24660631D01*
X13906500Y24660631D02*
X13948833Y24829965D01*
X13948833Y24829965D02*
X13991167Y24914631D01*
X13991167Y24914631D02*
X14033500Y24956965D01*
X14033500Y24956965D02*
X14118167Y24999298D01*
X14753167Y24914631D02*
X14795500Y24956965D01*
X14795500Y24956965D02*
X14880167Y24999298D01*
X14880167Y24999298D02*
X15091834Y24999298D01*
X15091834Y24999298D02*
X15176500Y24956965D01*
X15176500Y24956965D02*
X15218834Y24914631D01*
X15218834Y24914631D02*
X15261167Y24829965D01*
X15261167Y24829965D02*
X15261167Y24745298D01*
X15261167Y24745298D02*
X15218834Y24618298D01*
X15218834Y24618298D02*
X14710834Y24110298D01*
X14710834Y24110298D02*
X15261167Y24110298D01*
X7893702Y15823000D02*
X8613369Y15823000D01*
X8613369Y15823000D02*
X8698035Y15865333D01*
X8698035Y15865333D02*
X8740369Y15907667D01*
X8740369Y15907667D02*
X8782702Y15992333D01*
X8782702Y15992333D02*
X8782702Y16161667D01*
X8782702Y16161667D02*
X8740369Y16246333D01*
X8740369Y16246333D02*
X8698035Y16288667D01*
X8698035Y16288667D02*
X8613369Y16331000D01*
X8613369Y16331000D02*
X7893702Y16331000D01*
X8782702Y17220000D02*
X8782702Y16712000D01*
X8782702Y16966000D02*
X7893702Y16966000D01*
X7893702Y16966000D02*
X8020702Y16881333D01*
X8020702Y16881333D02*
X8105369Y16796666D01*
X8105369Y16796666D02*
X8147702Y16712000D01*
X7893702Y17770333D02*
X7893702Y17855000D01*
X7893702Y17855000D02*
X7936035Y17939667D01*
X7936035Y17939667D02*
X7978369Y17982000D01*
X7978369Y17982000D02*
X8063035Y18024333D01*
X8063035Y18024333D02*
X8232369Y18066667D01*
X8232369Y18066667D02*
X8444035Y18066667D01*
X8444035Y18066667D02*
X8613369Y18024333D01*
X8613369Y18024333D02*
X8698035Y17982000D01*
X8698035Y17982000D02*
X8740369Y17939667D01*
X8740369Y17939667D02*
X8782702Y17855000D01*
X8782702Y17855000D02*
X8782702Y17770333D01*
X8782702Y17770333D02*
X8740369Y17685667D01*
X8740369Y17685667D02*
X8698035Y17643333D01*
X8698035Y17643333D02*
X8613369Y17601000D01*
X8613369Y17601000D02*
X8444035Y17558667D01*
X8444035Y17558667D02*
X8232369Y17558667D01*
X8232369Y17558667D02*
X8063035Y17601000D01*
X8063035Y17601000D02*
X7978369Y17643333D01*
X7978369Y17643333D02*
X7936035Y17685667D01*
X7936035Y17685667D02*
X7893702Y17770333D01*
X8782702Y18913334D02*
X8782702Y18405334D01*
X8782702Y18659334D02*
X7893702Y18659334D01*
X7893702Y18659334D02*
X8020702Y18574667D01*
X8020702Y18574667D02*
X8105369Y18490000D01*
X8105369Y18490000D02*
X8147702Y18405334D01*
X3958166Y24321965D02*
X3915833Y24279631D01*
X3915833Y24279631D02*
X3788833Y24237298D01*
X3788833Y24237298D02*
X3704166Y24237298D01*
X3704166Y24237298D02*
X3577166Y24279631D01*
X3577166Y24279631D02*
X3492500Y24364298D01*
X3492500Y24364298D02*
X3450166Y24448965D01*
X3450166Y24448965D02*
X3407833Y24618298D01*
X3407833Y24618298D02*
X3407833Y24745298D01*
X3407833Y24745298D02*
X3450166Y24914631D01*
X3450166Y24914631D02*
X3492500Y24999298D01*
X3492500Y24999298D02*
X3577166Y25083965D01*
X3577166Y25083965D02*
X3704166Y25126298D01*
X3704166Y25126298D02*
X3788833Y25126298D01*
X3788833Y25126298D02*
X3915833Y25083965D01*
X3915833Y25083965D02*
X3958166Y25041631D01*
X4804833Y24237298D02*
X4296833Y24237298D01*
X4550833Y24237298D02*
X4550833Y25126298D01*
X4550833Y25126298D02*
X4466166Y24999298D01*
X4466166Y24999298D02*
X4381500Y24914631D01*
X4381500Y24914631D02*
X4296833Y24872298D01*
X5355167Y25126298D02*
X5439833Y25126298D01*
X5439833Y25126298D02*
X5524500Y25083965D01*
X5524500Y25083965D02*
X5566833Y25041631D01*
X5566833Y25041631D02*
X5609167Y24956965D01*
X5609167Y24956965D02*
X5651500Y24787631D01*
X5651500Y24787631D02*
X5651500Y24575965D01*
X5651500Y24575965D02*
X5609167Y24406631D01*
X5609167Y24406631D02*
X5566833Y24321965D01*
X5566833Y24321965D02*
X5524500Y24279631D01*
X5524500Y24279631D02*
X5439833Y24237298D01*
X5439833Y24237298D02*
X5355167Y24237298D01*
X5355167Y24237298D02*
X5270500Y24279631D01*
X5270500Y24279631D02*
X5228167Y24321965D01*
X5228167Y24321965D02*
X5185833Y24406631D01*
X5185833Y24406631D02*
X5143500Y24575965D01*
X5143500Y24575965D02*
X5143500Y24787631D01*
X5143500Y24787631D02*
X5185833Y24956965D01*
X5185833Y24956965D02*
X5228167Y25041631D01*
X5228167Y25041631D02*
X5270500Y25083965D01*
X5270500Y25083965D02*
X5355167Y25126298D01*
X6498167Y24237298D02*
X5990167Y24237298D01*
X6244167Y24237298D02*
X6244167Y25126298D01*
X6244167Y25126298D02*
X6159500Y24999298D01*
X6159500Y24999298D02*
X6074834Y24914631D01*
X6074834Y24914631D02*
X5990167Y24872298D01*
X15574433Y7329365D02*
X15532100Y7287031D01*
X15532100Y7287031D02*
X15405100Y7244698D01*
X15405100Y7244698D02*
X15320433Y7244698D01*
X15320433Y7244698D02*
X15193433Y7287031D01*
X15193433Y7287031D02*
X15108767Y7371698D01*
X15108767Y7371698D02*
X15066433Y7456365D01*
X15066433Y7456365D02*
X15024100Y7625698D01*
X15024100Y7625698D02*
X15024100Y7752698D01*
X15024100Y7752698D02*
X15066433Y7922031D01*
X15066433Y7922031D02*
X15108767Y8006698D01*
X15108767Y8006698D02*
X15193433Y8091365D01*
X15193433Y8091365D02*
X15320433Y8133698D01*
X15320433Y8133698D02*
X15405100Y8133698D01*
X15405100Y8133698D02*
X15532100Y8091365D01*
X15532100Y8091365D02*
X15574433Y8049031D01*
X16124767Y8133698D02*
X16294100Y8133698D01*
X16294100Y8133698D02*
X16378767Y8091365D01*
X16378767Y8091365D02*
X16463433Y8006698D01*
X16463433Y8006698D02*
X16505767Y7837365D01*
X16505767Y7837365D02*
X16505767Y7541031D01*
X16505767Y7541031D02*
X16463433Y7371698D01*
X16463433Y7371698D02*
X16378767Y7287031D01*
X16378767Y7287031D02*
X16294100Y7244698D01*
X16294100Y7244698D02*
X16124767Y7244698D01*
X16124767Y7244698D02*
X16040100Y7287031D01*
X16040100Y7287031D02*
X15955433Y7371698D01*
X15955433Y7371698D02*
X15913100Y7541031D01*
X15913100Y7541031D02*
X15913100Y7837365D01*
X15913100Y7837365D02*
X15955433Y8006698D01*
X15955433Y8006698D02*
X16040100Y8091365D01*
X16040100Y8091365D02*
X16124767Y8133698D01*
X16886766Y7244698D02*
X16886766Y8133698D01*
X16886766Y8133698D02*
X17394766Y7244698D01*
X17394766Y7244698D02*
X17394766Y8133698D01*
X18283766Y7244698D02*
X17775766Y7244698D01*
X18029766Y7244698D02*
X18029766Y8133698D01*
X18029766Y8133698D02*
X17945099Y8006698D01*
X17945099Y8006698D02*
X17860433Y7922031D01*
X17860433Y7922031D02*
X17775766Y7879698D01*
X18834100Y8133698D02*
X18918766Y8133698D01*
X18918766Y8133698D02*
X19003433Y8091365D01*
X19003433Y8091365D02*
X19045766Y8049031D01*
X19045766Y8049031D02*
X19088100Y7964365D01*
X19088100Y7964365D02*
X19130433Y7795031D01*
X19130433Y7795031D02*
X19130433Y7583365D01*
X19130433Y7583365D02*
X19088100Y7414031D01*
X19088100Y7414031D02*
X19045766Y7329365D01*
X19045766Y7329365D02*
X19003433Y7287031D01*
X19003433Y7287031D02*
X18918766Y7244698D01*
X18918766Y7244698D02*
X18834100Y7244698D01*
X18834100Y7244698D02*
X18749433Y7287031D01*
X18749433Y7287031D02*
X18707100Y7329365D01*
X18707100Y7329365D02*
X18664766Y7414031D01*
X18664766Y7414031D02*
X18622433Y7583365D01*
X18622433Y7583365D02*
X18622433Y7795031D01*
X18622433Y7795031D02*
X18664766Y7964365D01*
X18664766Y7964365D02*
X18707100Y8049031D01*
X18707100Y8049031D02*
X18749433Y8091365D01*
X18749433Y8091365D02*
X18834100Y8133698D01*
X19892433Y8133698D02*
X19723100Y8133698D01*
X19723100Y8133698D02*
X19638433Y8091365D01*
X19638433Y8091365D02*
X19596100Y8049031D01*
X19596100Y8049031D02*
X19511433Y7922031D01*
X19511433Y7922031D02*
X19469100Y7752698D01*
X19469100Y7752698D02*
X19469100Y7414031D01*
X19469100Y7414031D02*
X19511433Y7329365D01*
X19511433Y7329365D02*
X19553767Y7287031D01*
X19553767Y7287031D02*
X19638433Y7244698D01*
X19638433Y7244698D02*
X19807767Y7244698D01*
X19807767Y7244698D02*
X19892433Y7287031D01*
X19892433Y7287031D02*
X19934767Y7329365D01*
X19934767Y7329365D02*
X19977100Y7414031D01*
X19977100Y7414031D02*
X19977100Y7625698D01*
X19977100Y7625698D02*
X19934767Y7710365D01*
X19934767Y7710365D02*
X19892433Y7752698D01*
X19892433Y7752698D02*
X19807767Y7795031D01*
X19807767Y7795031D02*
X19638433Y7795031D01*
X19638433Y7795031D02*
X19553767Y7752698D01*
X19553767Y7752698D02*
X19511433Y7710365D01*
X19511433Y7710365D02*
X19469100Y7625698D01*
X1374833Y4332165D02*
X1332500Y4289831D01*
X1332500Y4289831D02*
X1205500Y4247498D01*
X1205500Y4247498D02*
X1120833Y4247498D01*
X1120833Y4247498D02*
X993833Y4289831D01*
X993833Y4289831D02*
X909167Y4374498D01*
X909167Y4374498D02*
X866833Y4459165D01*
X866833Y4459165D02*
X824500Y4628498D01*
X824500Y4628498D02*
X824500Y4755498D01*
X824500Y4755498D02*
X866833Y4924831D01*
X866833Y4924831D02*
X909167Y5009498D01*
X909167Y5009498D02*
X993833Y5094165D01*
X993833Y5094165D02*
X1120833Y5136498D01*
X1120833Y5136498D02*
X1205500Y5136498D01*
X1205500Y5136498D02*
X1332500Y5094165D01*
X1332500Y5094165D02*
X1374833Y5051831D01*
X1925167Y5136498D02*
X2094500Y5136498D01*
X2094500Y5136498D02*
X2179167Y5094165D01*
X2179167Y5094165D02*
X2263833Y5009498D01*
X2263833Y5009498D02*
X2306167Y4840165D01*
X2306167Y4840165D02*
X2306167Y4543831D01*
X2306167Y4543831D02*
X2263833Y4374498D01*
X2263833Y4374498D02*
X2179167Y4289831D01*
X2179167Y4289831D02*
X2094500Y4247498D01*
X2094500Y4247498D02*
X1925167Y4247498D01*
X1925167Y4247498D02*
X1840500Y4289831D01*
X1840500Y4289831D02*
X1755833Y4374498D01*
X1755833Y4374498D02*
X1713500Y4543831D01*
X1713500Y4543831D02*
X1713500Y4840165D01*
X1713500Y4840165D02*
X1755833Y5009498D01*
X1755833Y5009498D02*
X1840500Y5094165D01*
X1840500Y5094165D02*
X1925167Y5136498D01*
X2687166Y4247498D02*
X2687166Y5136498D01*
X2687166Y5136498D02*
X3195166Y4247498D01*
X3195166Y4247498D02*
X3195166Y5136498D01*
X4084166Y4247498D02*
X3576166Y4247498D01*
X3830166Y4247498D02*
X3830166Y5136498D01*
X3830166Y5136498D02*
X3745499Y5009498D01*
X3745499Y5009498D02*
X3660833Y4924831D01*
X3660833Y4924831D02*
X3576166Y4882498D01*
X4634500Y5136498D02*
X4719166Y5136498D01*
X4719166Y5136498D02*
X4803833Y5094165D01*
X4803833Y5094165D02*
X4846166Y5051831D01*
X4846166Y5051831D02*
X4888500Y4967165D01*
X4888500Y4967165D02*
X4930833Y4797831D01*
X4930833Y4797831D02*
X4930833Y4586165D01*
X4930833Y4586165D02*
X4888500Y4416831D01*
X4888500Y4416831D02*
X4846166Y4332165D01*
X4846166Y4332165D02*
X4803833Y4289831D01*
X4803833Y4289831D02*
X4719166Y4247498D01*
X4719166Y4247498D02*
X4634500Y4247498D01*
X4634500Y4247498D02*
X4549833Y4289831D01*
X4549833Y4289831D02*
X4507500Y4332165D01*
X4507500Y4332165D02*
X4465166Y4416831D01*
X4465166Y4416831D02*
X4422833Y4586165D01*
X4422833Y4586165D02*
X4422833Y4797831D01*
X4422833Y4797831D02*
X4465166Y4967165D01*
X4465166Y4967165D02*
X4507500Y5051831D01*
X4507500Y5051831D02*
X4549833Y5094165D01*
X4549833Y5094165D02*
X4634500Y5136498D01*
X5777500Y4247498D02*
X5269500Y4247498D01*
X5523500Y4247498D02*
X5523500Y5136498D01*
X5523500Y5136498D02*
X5438833Y5009498D01*
X5438833Y5009498D02*
X5354167Y4924831D01*
X5354167Y4924831D02*
X5269500Y4882498D01*
X17715035Y13440834D02*
X17757369Y13398501D01*
X17757369Y13398501D02*
X17799702Y13271501D01*
X17799702Y13271501D02*
X17799702Y13186834D01*
X17799702Y13186834D02*
X17757369Y13059834D01*
X17757369Y13059834D02*
X17672702Y12975167D01*
X17672702Y12975167D02*
X17588035Y12932834D01*
X17588035Y12932834D02*
X17418702Y12890501D01*
X17418702Y12890501D02*
X17291702Y12890501D01*
X17291702Y12890501D02*
X17122369Y12932834D01*
X17122369Y12932834D02*
X17037702Y12975167D01*
X17037702Y12975167D02*
X16953035Y13059834D01*
X16953035Y13059834D02*
X16910702Y13186834D01*
X16910702Y13186834D02*
X16910702Y13271501D01*
X16910702Y13271501D02*
X16953035Y13398501D01*
X16953035Y13398501D02*
X16995369Y13440834D01*
X16910702Y13991167D02*
X16910702Y14160501D01*
X16910702Y14160501D02*
X16953035Y14245167D01*
X16953035Y14245167D02*
X17037702Y14329834D01*
X17037702Y14329834D02*
X17207035Y14372167D01*
X17207035Y14372167D02*
X17503369Y14372167D01*
X17503369Y14372167D02*
X17672702Y14329834D01*
X17672702Y14329834D02*
X17757369Y14245167D01*
X17757369Y14245167D02*
X17799702Y14160501D01*
X17799702Y14160501D02*
X17799702Y13991167D01*
X17799702Y13991167D02*
X17757369Y13906501D01*
X17757369Y13906501D02*
X17672702Y13821834D01*
X17672702Y13821834D02*
X17503369Y13779501D01*
X17503369Y13779501D02*
X17207035Y13779501D01*
X17207035Y13779501D02*
X17037702Y13821834D01*
X17037702Y13821834D02*
X16953035Y13906501D01*
X16953035Y13906501D02*
X16910702Y13991167D01*
X17799702Y14753167D02*
X16910702Y14753167D01*
X16910702Y14753167D02*
X17799702Y15261167D01*
X17799702Y15261167D02*
X16910702Y15261167D01*
X17799702Y16150167D02*
X17799702Y15642167D01*
X17799702Y15896167D02*
X16910702Y15896167D01*
X16910702Y15896167D02*
X17037702Y15811500D01*
X17037702Y15811500D02*
X17122369Y15726833D01*
X17122369Y15726833D02*
X17164702Y15642167D01*
X16910702Y16700500D02*
X16910702Y16785167D01*
X16910702Y16785167D02*
X16953035Y16869834D01*
X16953035Y16869834D02*
X16995369Y16912167D01*
X16995369Y16912167D02*
X17080035Y16954500D01*
X17080035Y16954500D02*
X17249369Y16996834D01*
X17249369Y16996834D02*
X17461035Y16996834D01*
X17461035Y16996834D02*
X17630369Y16954500D01*
X17630369Y16954500D02*
X17715035Y16912167D01*
X17715035Y16912167D02*
X17757369Y16869834D01*
X17757369Y16869834D02*
X17799702Y16785167D01*
X17799702Y16785167D02*
X17799702Y16700500D01*
X17799702Y16700500D02*
X17757369Y16615834D01*
X17757369Y16615834D02*
X17715035Y16573500D01*
X17715035Y16573500D02*
X17630369Y16531167D01*
X17630369Y16531167D02*
X17461035Y16488834D01*
X17461035Y16488834D02*
X17249369Y16488834D01*
X17249369Y16488834D02*
X17080035Y16531167D01*
X17080035Y16531167D02*
X16995369Y16573500D01*
X16995369Y16573500D02*
X16953035Y16615834D01*
X16953035Y16615834D02*
X16910702Y16700500D01*
X16910702Y17293167D02*
X16910702Y17843501D01*
X16910702Y17843501D02*
X17249369Y17547167D01*
X17249369Y17547167D02*
X17249369Y17674167D01*
X17249369Y17674167D02*
X17291702Y17758834D01*
X17291702Y17758834D02*
X17334035Y17801167D01*
X17334035Y17801167D02*
X17418702Y17843501D01*
X17418702Y17843501D02*
X17630369Y17843501D01*
X17630369Y17843501D02*
X17715035Y17801167D01*
X17715035Y17801167D02*
X17757369Y17758834D01*
X17757369Y17758834D02*
X17799702Y17674167D01*
X17799702Y17674167D02*
X17799702Y17420167D01*
X17799702Y17420167D02*
X17757369Y17335501D01*
X17757369Y17335501D02*
X17715035Y17293167D01*
D13*
X3221000Y42159000D02*
X3221000Y33959000D01*
X3221000Y42159000D02*
X15321000Y42159000D01*
X3221000Y25659000D02*
X3221000Y29859000D01*
X3221000Y25659000D02*
X15321000Y25659000D01*
X15321000Y42159000D02*
X15321000Y33959000D01*
X15321000Y25659000D02*
X15321000Y29959000D01*
X6985000Y13589000D02*
X6985000Y21209000D01*
X6985000Y13589000D02*
X6731000Y13843000D01*
X6985000Y14224000D02*
X6350000Y13589000D01*
X6985000Y21209000D02*
X4445000Y21209000D01*
X5080000Y13589000D02*
X4445000Y14224000D01*
X4445000Y13589000D02*
X6985000Y13589000D01*
X4445000Y13589000D02*
X4699000Y13843000D01*
X4445000Y21209000D02*
X4445000Y13589000D01*
X13843000Y23685500D02*
X13843000Y22542500D01*
D12*
X16350000Y15747000D02*
X16350000Y18997000D01*
X16350000Y15747000D02*
X9050000Y15747000D01*
X16350000Y18997000D02*
X9050000Y18997000D01*
X9050000Y18997000D02*
X9050000Y15747000D01*
D13*
X4953000Y22669500D02*
X4953000Y23812500D01*
D14*
X8304076Y10427416D02*
X8305280Y10403579D01*
X8306371Y10365846D01*
X8307325Y10315880D01*
X8308116Y10255343D01*
X8308716Y10185899D01*
X8309101Y10109209D01*
X8309244Y10026935D01*
X8309244Y9609380D01*
X8007888Y9609380D01*
X7937789Y9609460D01*
X7873465Y9609688D01*
X7816865Y9610044D01*
X7769937Y9610510D01*
X7734629Y9611068D01*
X7712891Y9611697D01*
X7706532Y9612292D01*
X7712891Y9618432D01*
X7730056Y9632702D01*
X7755163Y9652763D01*
X7776303Y9669286D01*
X7880847Y9759453D01*
X7978799Y9861936D01*
X8068137Y9973912D01*
X8146838Y10092559D01*
X8212877Y10215053D01*
X8264231Y10338572D01*
X8271648Y10360357D01*
X8283107Y10393248D01*
X8293267Y10418876D01*
X8300613Y10433582D01*
X8302787Y10435696D01*
X8304076Y10427416D01*
G36*
X8304076Y10427416D02*
G01*
X8305280Y10403579D01*
X8306371Y10365846D01*
X8307325Y10315880D01*
X8308116Y10255343D01*
X8308716Y10185899D01*
X8309101Y10109209D01*
X8309244Y10026935D01*
X8309244Y9609380D01*
X8007888Y9609380D01*
X7937789Y9609460D01*
X7873465Y9609688D01*
X7816865Y9610044D01*
X7769937Y9610510D01*
X7734629Y9611068D01*
X7712891Y9611697D01*
X7706532Y9612292D01*
X7712891Y9618432D01*
X7730056Y9632702D01*
X7755163Y9652763D01*
X7776303Y9669286D01*
X7880847Y9759453D01*
X7978799Y9861936D01*
X8068137Y9973912D01*
X8146838Y10092559D01*
X8212877Y10215053D01*
X8264231Y10338572D01*
X8271648Y10360357D01*
X8283107Y10393248D01*
X8293267Y10418876D01*
X8300613Y10433582D01*
X8302787Y10435696D01*
X8304076Y10427416D01*
G37*
X2559804Y12715519D02*
X4370092Y12713346D01*
X4372335Y12336651D01*
X4372693Y12257981D01*
X4372812Y12184880D01*
X4372705Y12119091D01*
X4372385Y12062356D01*
X4371864Y12016419D01*
X4371155Y11983021D01*
X4370272Y11963907D01*
X4369572Y11959956D01*
X4361384Y11965332D01*
X4343578Y11979751D01*
X4319257Y12000650D01*
X4305020Y12013269D01*
X4194016Y12102596D01*
X4070997Y12183499D01*
X3939853Y12253899D01*
X3804475Y12311715D01*
X3668751Y12354868D01*
X3663777Y12356155D01*
X3555767Y12378802D01*
X3439550Y12394132D01*
X3320379Y12401872D01*
X3203511Y12401753D01*
X3094199Y12393503D01*
X3052736Y12387699D01*
X2892030Y12353371D01*
X2738372Y12303970D01*
X2592582Y12240243D01*
X2455484Y12162933D01*
X2327899Y12072787D01*
X2210649Y11970550D01*
X2104556Y11856968D01*
X2010443Y11732785D01*
X1929130Y11598747D01*
X1861441Y11455600D01*
X1808197Y11304089D01*
X1791905Y11244404D01*
X1774214Y11167650D01*
X1761635Y11096081D01*
X1753682Y11024694D01*
X1749866Y10948489D01*
X1749698Y10862464D01*
X1750623Y10821337D01*
X1758322Y10690840D01*
X1774394Y10571531D01*
X1799941Y10458989D01*
X1836066Y10348791D01*
X1883871Y10236515D01*
X1909557Y10184000D01*
X1986175Y10048317D01*
X2072666Y9925130D01*
X2171024Y9812005D01*
X2283241Y9706508D01*
X2336503Y9662684D01*
X2403796Y9609380D01*
X749516Y9609380D01*
X749516Y12717691D01*
X2559804Y12715519D01*
G36*
X2559804Y12715519D02*
G01*
X4370092Y12713346D01*
X4372335Y12336651D01*
X4372693Y12257981D01*
X4372812Y12184880D01*
X4372705Y12119091D01*
X4372385Y12062356D01*
X4371864Y12016419D01*
X4371155Y11983021D01*
X4370272Y11963907D01*
X4369572Y11959956D01*
X4361384Y11965332D01*
X4343578Y11979751D01*
X4319257Y12000650D01*
X4305020Y12013269D01*
X4194016Y12102596D01*
X4070997Y12183499D01*
X3939853Y12253899D01*
X3804475Y12311715D01*
X3668751Y12354868D01*
X3663777Y12356155D01*
X3555767Y12378802D01*
X3439550Y12394132D01*
X3320379Y12401872D01*
X3203511Y12401753D01*
X3094199Y12393503D01*
X3052736Y12387699D01*
X2892030Y12353371D01*
X2738372Y12303970D01*
X2592582Y12240243D01*
X2455484Y12162933D01*
X2327899Y12072787D01*
X2210649Y11970550D01*
X2104556Y11856968D01*
X2010443Y11732785D01*
X1929130Y11598747D01*
X1861441Y11455600D01*
X1808197Y11304089D01*
X1791905Y11244404D01*
X1774214Y11167650D01*
X1761635Y11096081D01*
X1753682Y11024694D01*
X1749866Y10948489D01*
X1749698Y10862464D01*
X1750623Y10821337D01*
X1758322Y10690840D01*
X1774394Y10571531D01*
X1799941Y10458989D01*
X1836066Y10348791D01*
X1883871Y10236515D01*
X1909557Y10184000D01*
X1986175Y10048317D01*
X2072666Y9925130D01*
X2171024Y9812005D01*
X2283241Y9706508D01*
X2336503Y9662684D01*
X2403796Y9609380D01*
X749516Y9609380D01*
X749516Y12717691D01*
X2559804Y12715519D01*
G37*
X8309244Y12011617D02*
X8309190Y11903020D01*
X8309032Y11799523D01*
X8308779Y11702399D01*
X8308440Y11612920D01*
X8308021Y11532360D01*
X8307533Y11461991D01*
X8306982Y11403088D01*
X8306377Y11356921D01*
X8305727Y11324766D01*
X8305040Y11307894D01*
X8304669Y11305583D01*
X8298078Y11312284D01*
X8296310Y11316346D01*
X8275931Y11373764D01*
X8259593Y11418368D01*
X8245928Y11453694D01*
X8233567Y11483277D01*
X8221141Y11510651D01*
X8220884Y11511197D01*
X8146653Y11650559D01*
X8059726Y11781289D01*
X7961696Y11901287D01*
X7854159Y12008454D01*
X7822770Y12035700D01*
X7692830Y12134804D01*
X7557191Y12218062D01*
X7415041Y12285805D01*
X7265571Y12338365D01*
X7107971Y12376074D01*
X6941433Y12399265D01*
X6934862Y12399870D01*
X6792441Y12404565D01*
X6646467Y12393872D01*
X6499547Y12368480D01*
X6354290Y12329081D01*
X6213305Y12276365D01*
X6079200Y12211023D01*
X5970018Y12144349D01*
X5930632Y12116622D01*
X5887973Y12084820D01*
X5845935Y12052013D01*
X5808410Y12021274D01*
X5779292Y11995676D01*
X5769244Y11985911D01*
X5761071Y11977391D01*
X5754303Y11971088D01*
X5748807Y11968353D01*
X5744452Y11970536D01*
X5741106Y11978989D01*
X5738635Y11995063D01*
X5736908Y12020108D01*
X5735793Y12055474D01*
X5735157Y12102515D01*
X5734868Y12162579D01*
X5734795Y12237017D01*
X5734803Y12327182D01*
X5734804Y12337749D01*
X5734804Y12717651D01*
X8309244Y12717651D01*
X8309244Y12011617D01*
G36*
X8309244Y12011617D02*
G01*
X8309190Y11903020D01*
X8309032Y11799523D01*
X8308779Y11702399D01*
X8308440Y11612920D01*
X8308021Y11532360D01*
X8307533Y11461991D01*
X8306982Y11403088D01*
X8306377Y11356921D01*
X8305727Y11324766D01*
X8305040Y11307894D01*
X8304669Y11305583D01*
X8298078Y11312284D01*
X8296310Y11316346D01*
X8275931Y11373764D01*
X8259593Y11418368D01*
X8245928Y11453694D01*
X8233567Y11483277D01*
X8221141Y11510651D01*
X8220884Y11511197D01*
X8146653Y11650559D01*
X8059726Y11781289D01*
X7961696Y11901287D01*
X7854159Y12008454D01*
X7822770Y12035700D01*
X7692830Y12134804D01*
X7557191Y12218062D01*
X7415041Y12285805D01*
X7265571Y12338365D01*
X7107971Y12376074D01*
X6941433Y12399265D01*
X6934862Y12399870D01*
X6792441Y12404565D01*
X6646467Y12393872D01*
X6499547Y12368480D01*
X6354290Y12329081D01*
X6213305Y12276365D01*
X6079200Y12211023D01*
X5970018Y12144349D01*
X5930632Y12116622D01*
X5887973Y12084820D01*
X5845935Y12052013D01*
X5808410Y12021274D01*
X5779292Y11995676D01*
X5769244Y11985911D01*
X5761071Y11977391D01*
X5754303Y11971088D01*
X5748807Y11968353D01*
X5744452Y11970536D01*
X5741106Y11978989D01*
X5738635Y11995063D01*
X5736908Y12020108D01*
X5735793Y12055474D01*
X5735157Y12102515D01*
X5734868Y12162579D01*
X5734795Y12237017D01*
X5734803Y12327182D01*
X5734804Y12337749D01*
X5734804Y12717651D01*
X8309244Y12717651D01*
X8309244Y12011617D01*
G37*
X3399205Y11954544D02*
X3526395Y11933043D01*
X3648946Y11897092D01*
X3765768Y11847382D01*
X3875769Y11784605D01*
X3977860Y11709452D01*
X4070948Y11622616D01*
X4153944Y11524789D01*
X4225755Y11416662D01*
X4285292Y11298927D01*
X4331464Y11172276D01*
X4358145Y11064498D01*
X4364238Y11020070D01*
X4368034Y10963365D01*
X4369585Y10899166D01*
X4368943Y10832257D01*
X4366161Y10767420D01*
X4361291Y10709437D01*
X4354386Y10663092D01*
X4353702Y10659820D01*
X4315823Y10523940D01*
X4262253Y10394325D01*
X4193665Y10272563D01*
X4182170Y10255143D01*
X4146939Y10208313D01*
X4101436Y10155936D01*
X4049653Y10101991D01*
X3995583Y10050461D01*
X3943217Y10005326D01*
X3897334Y9971092D01*
X3780089Y9902688D01*
X3656146Y9849116D01*
X3527364Y9810795D01*
X3395601Y9788145D01*
X3262714Y9781584D01*
X3130562Y9791533D01*
X3113007Y9794143D01*
X3018758Y9812883D01*
X2930393Y9839236D01*
X2840789Y9875480D01*
X2803041Y9893239D01*
X2685538Y9959491D01*
X2579656Y10037405D01*
X2485720Y10125699D01*
X2404054Y10223090D01*
X2334985Y10328293D01*
X2278837Y10440026D01*
X2235935Y10557006D01*
X2206605Y10677948D01*
X2191171Y10801570D01*
X2189958Y10926589D01*
X2203293Y11051721D01*
X2231498Y11175682D01*
X2274901Y11297190D01*
X2333826Y11414962D01*
X2394010Y11507922D01*
X2475074Y11606649D01*
X2568629Y11696243D01*
X2672253Y11775038D01*
X2783525Y11841369D01*
X2900025Y11893570D01*
X3000711Y11925422D01*
X3135272Y11951425D01*
X3268467Y11960902D01*
X3399205Y11954544D01*
G36*
X3399205Y11954544D02*
G01*
X3526395Y11933043D01*
X3648946Y11897092D01*
X3765768Y11847382D01*
X3875769Y11784605D01*
X3977860Y11709452D01*
X4070948Y11622616D01*
X4153944Y11524789D01*
X4225755Y11416662D01*
X4285292Y11298927D01*
X4331464Y11172276D01*
X4358145Y11064498D01*
X4364238Y11020070D01*
X4368034Y10963365D01*
X4369585Y10899166D01*
X4368943Y10832257D01*
X4366161Y10767420D01*
X4361291Y10709437D01*
X4354386Y10663092D01*
X4353702Y10659820D01*
X4315823Y10523940D01*
X4262253Y10394325D01*
X4193665Y10272563D01*
X4182170Y10255143D01*
X4146939Y10208313D01*
X4101436Y10155936D01*
X4049653Y10101991D01*
X3995583Y10050461D01*
X3943217Y10005326D01*
X3897334Y9971092D01*
X3780089Y9902688D01*
X3656146Y9849116D01*
X3527364Y9810795D01*
X3395601Y9788145D01*
X3262714Y9781584D01*
X3130562Y9791533D01*
X3113007Y9794143D01*
X3018758Y9812883D01*
X2930393Y9839236D01*
X2840789Y9875480D01*
X2803041Y9893239D01*
X2685538Y9959491D01*
X2579656Y10037405D01*
X2485720Y10125699D01*
X2404054Y10223090D01*
X2334985Y10328293D01*
X2278837Y10440026D01*
X2235935Y10557006D01*
X2206605Y10677948D01*
X2191171Y10801570D01*
X2189958Y10926589D01*
X2203293Y11051721D01*
X2231498Y11175682D01*
X2274901Y11297190D01*
X2333826Y11414962D01*
X2394010Y11507922D01*
X2475074Y11606649D01*
X2568629Y11696243D01*
X2672253Y11775038D01*
X2783525Y11841369D01*
X2900025Y11893570D01*
X3000711Y11925422D01*
X3135272Y11951425D01*
X3268467Y11960902D01*
X3399205Y11954544D01*
G37*
X6884910Y11954699D02*
X6932379Y11953657D01*
X6970164Y11951599D01*
X7002028Y11948211D01*
X7031739Y11943182D01*
X7063061Y11936197D01*
X7069380Y11934654D01*
X7152719Y11911642D01*
X7227028Y11885213D01*
X7300496Y11852273D01*
X7338055Y11833142D01*
X7452470Y11763443D01*
X7556359Y11680806D01*
X7648847Y11586555D01*
X7729058Y11482017D01*
X7796116Y11368516D01*
X7849145Y11247377D01*
X7887268Y11119925D01*
X7909611Y10987485D01*
X7911699Y10965482D01*
X7914858Y10829638D01*
X7901616Y10696431D01*
X7872602Y10567174D01*
X7828445Y10443180D01*
X7769772Y10325761D01*
X7697214Y10216232D01*
X7611398Y10115904D01*
X7512953Y10026092D01*
X7434525Y9968622D01*
X7326506Y9903991D01*
X7217398Y9854000D01*
X7102194Y9816520D01*
X7043549Y9802410D01*
X7013107Y9797538D01*
X6970991Y9793102D01*
X6921367Y9789300D01*
X6868396Y9786329D01*
X6816242Y9784388D01*
X6769069Y9783673D01*
X6731039Y9784383D01*
X6707753Y9786457D01*
X6688377Y9789650D01*
X6658564Y9794478D01*
X6625956Y9799706D01*
X6516766Y9824814D01*
X6406208Y9864721D01*
X6297668Y9917677D01*
X6194534Y9981931D01*
X6100192Y10055730D01*
X6061548Y10091549D01*
X5969724Y10192929D01*
X5892594Y10302916D01*
X5829841Y10422074D01*
X5781149Y10550964D01*
X5760450Y10625380D01*
X5750200Y10679561D01*
X5742510Y10745388D01*
X5737617Y10817440D01*
X5735764Y10890299D01*
X5737188Y10958547D01*
X5742131Y11016764D01*
X5742877Y11022168D01*
X5770810Y11157895D01*
X5814209Y11286309D01*
X5872832Y11406917D01*
X5946440Y11519230D01*
X6034794Y11622758D01*
X6038185Y11626251D01*
X6136658Y11717097D01*
X6240815Y11792798D01*
X6352783Y11854577D01*
X6474686Y11903658D01*
X6568037Y11931367D01*
X6602140Y11939871D01*
X6631429Y11946078D01*
X6659716Y11950343D01*
X6690811Y11953016D01*
X6728526Y11954450D01*
X6776672Y11954998D01*
X6823990Y11955036D01*
X6884910Y11954699D01*
G36*
X6884910Y11954699D02*
G01*
X6932379Y11953657D01*
X6970164Y11951599D01*
X7002028Y11948211D01*
X7031739Y11943182D01*
X7063061Y11936197D01*
X7069380Y11934654D01*
X7152719Y11911642D01*
X7227028Y11885213D01*
X7300496Y11852273D01*
X7338055Y11833142D01*
X7452470Y11763443D01*
X7556359Y11680806D01*
X7648847Y11586555D01*
X7729058Y11482017D01*
X7796116Y11368516D01*
X7849145Y11247377D01*
X7887268Y11119925D01*
X7909611Y10987485D01*
X7911699Y10965482D01*
X7914858Y10829638D01*
X7901616Y10696431D01*
X7872602Y10567174D01*
X7828445Y10443180D01*
X7769772Y10325761D01*
X7697214Y10216232D01*
X7611398Y10115904D01*
X7512953Y10026092D01*
X7434525Y9968622D01*
X7326506Y9903991D01*
X7217398Y9854000D01*
X7102194Y9816520D01*
X7043549Y9802410D01*
X7013107Y9797538D01*
X6970991Y9793102D01*
X6921367Y9789300D01*
X6868396Y9786329D01*
X6816242Y9784388D01*
X6769069Y9783673D01*
X6731039Y9784383D01*
X6707753Y9786457D01*
X6688377Y9789650D01*
X6658564Y9794478D01*
X6625956Y9799706D01*
X6516766Y9824814D01*
X6406208Y9864721D01*
X6297668Y9917677D01*
X6194534Y9981931D01*
X6100192Y10055730D01*
X6061548Y10091549D01*
X5969724Y10192929D01*
X5892594Y10302916D01*
X5829841Y10422074D01*
X5781149Y10550964D01*
X5760450Y10625380D01*
X5750200Y10679561D01*
X5742510Y10745388D01*
X5737617Y10817440D01*
X5735764Y10890299D01*
X5737188Y10958547D01*
X5742131Y11016764D01*
X5742877Y11022168D01*
X5770810Y11157895D01*
X5814209Y11286309D01*
X5872832Y11406917D01*
X5946440Y11519230D01*
X6034794Y11622758D01*
X6038185Y11626251D01*
X6136658Y11717097D01*
X6240815Y11792798D01*
X6352783Y11854577D01*
X6474686Y11903658D01*
X6568037Y11931367D01*
X6602140Y11939871D01*
X6631429Y11946078D01*
X6659716Y11950343D01*
X6690811Y11953016D01*
X6728526Y11954450D01*
X6776672Y11954998D01*
X6823990Y11955036D01*
X6884910Y11954699D01*
G37*
X5287075Y11767278D02*
X5287100Y11610465D01*
X5287197Y11469808D01*
X5287397Y11344239D01*
X5287731Y11232694D01*
X5288230Y11134107D01*
X5288926Y11047413D01*
X5289850Y10971546D01*
X5291034Y10905441D01*
X5292509Y10848031D01*
X5294305Y10798252D01*
X5296455Y10755038D01*
X5298990Y10717323D01*
X5301940Y10684042D01*
X5305338Y10654129D01*
X5309215Y10626519D01*
X5313601Y10600146D01*
X5318529Y10573945D01*
X5322762Y10552974D01*
X5354671Y10429877D01*
X5399372Y10304569D01*
X5454862Y10181279D01*
X5519137Y10064237D01*
X5590194Y9957674D01*
X5627216Y9910158D01*
X5662759Y9869553D01*
X5706859Y9822972D01*
X5755055Y9774829D01*
X5802885Y9729537D01*
X5845890Y9691509D01*
X5859651Y9680190D01*
X5888211Y9657200D01*
X5912671Y9637277D01*
X5929114Y9623620D01*
X5932530Y9620663D01*
X5932151Y9618810D01*
X5926058Y9617163D01*
X5913383Y9615710D01*
X5893257Y9614440D01*
X5864814Y9613343D01*
X5827184Y9612407D01*
X5779501Y9611620D01*
X5720896Y9610973D01*
X5650502Y9610453D01*
X5567451Y9610050D01*
X5470875Y9609753D01*
X5359906Y9609549D01*
X5233676Y9609430D01*
X5091318Y9609382D01*
X5051852Y9609380D01*
X4158566Y9609380D01*
X4244240Y9678293D01*
X4363845Y9785446D01*
X4471336Y9904358D01*
X4565868Y10033770D01*
X4646595Y10172418D01*
X4712673Y10319042D01*
X4753573Y10438382D01*
X4761578Y10465037D01*
X4768758Y10488955D01*
X4775163Y10511167D01*
X4780840Y10532700D01*
X4785839Y10554584D01*
X4790208Y10577847D01*
X4793997Y10603519D01*
X4797255Y10632628D01*
X4800030Y10666204D01*
X4802372Y10705274D01*
X4804328Y10750869D01*
X4805949Y10804016D01*
X4807282Y10865746D01*
X4808377Y10937086D01*
X4809283Y11019065D01*
X4810049Y11112713D01*
X4810723Y11219058D01*
X4811354Y11339130D01*
X4811992Y11473956D01*
X4812684Y11624567D01*
X4812984Y11688736D01*
X4817821Y12713346D01*
X5287075Y12717928D01*
X5287075Y11767278D01*
G36*
X5287075Y11767278D02*
G01*
X5287100Y11610465D01*
X5287197Y11469808D01*
X5287397Y11344239D01*
X5287731Y11232694D01*
X5288230Y11134107D01*
X5288926Y11047413D01*
X5289850Y10971546D01*
X5291034Y10905441D01*
X5292509Y10848031D01*
X5294305Y10798252D01*
X5296455Y10755038D01*
X5298990Y10717323D01*
X5301940Y10684042D01*
X5305338Y10654129D01*
X5309215Y10626519D01*
X5313601Y10600146D01*
X5318529Y10573945D01*
X5322762Y10552974D01*
X5354671Y10429877D01*
X5399372Y10304569D01*
X5454862Y10181279D01*
X5519137Y10064237D01*
X5590194Y9957674D01*
X5627216Y9910158D01*
X5662759Y9869553D01*
X5706859Y9822972D01*
X5755055Y9774829D01*
X5802885Y9729537D01*
X5845890Y9691509D01*
X5859651Y9680190D01*
X5888211Y9657200D01*
X5912671Y9637277D01*
X5929114Y9623620D01*
X5932530Y9620663D01*
X5932151Y9618810D01*
X5926058Y9617163D01*
X5913383Y9615710D01*
X5893257Y9614440D01*
X5864814Y9613343D01*
X5827184Y9612407D01*
X5779501Y9611620D01*
X5720896Y9610973D01*
X5650502Y9610453D01*
X5567451Y9610050D01*
X5470875Y9609753D01*
X5359906Y9609549D01*
X5233676Y9609430D01*
X5091318Y9609382D01*
X5051852Y9609380D01*
X4158566Y9609380D01*
X4244240Y9678293D01*
X4363845Y9785446D01*
X4471336Y9904358D01*
X4565868Y10033770D01*
X4646595Y10172418D01*
X4712673Y10319042D01*
X4753573Y10438382D01*
X4761578Y10465037D01*
X4768758Y10488955D01*
X4775163Y10511167D01*
X4780840Y10532700D01*
X4785839Y10554584D01*
X4790208Y10577847D01*
X4793997Y10603519D01*
X4797255Y10632628D01*
X4800030Y10666204D01*
X4802372Y10705274D01*
X4804328Y10750869D01*
X4805949Y10804016D01*
X4807282Y10865746D01*
X4808377Y10937086D01*
X4809283Y11019065D01*
X4810049Y11112713D01*
X4810723Y11219058D01*
X4811354Y11339130D01*
X4811992Y11473956D01*
X4812684Y11624567D01*
X4812984Y11688736D01*
X4817821Y12713346D01*
X5287075Y12717928D01*
X5287075Y11767278D01*
G37*
D13*
X20116800Y1524000D02*
X20116800Y1778000D01*
X20370800Y1524000D02*
X20116800Y1524000D01*
X22656800Y1524000D02*
X20370800Y1524000D01*
X15036800Y1778000D02*
X20116800Y1778000D01*
X15036800Y1778000D02*
X15290800Y2032000D01*
X15671800Y1778000D02*
X15036800Y2413000D01*
X22656800Y1778000D02*
X22656800Y1524000D01*
X27736800Y1778000D02*
X22656800Y1778000D01*
X27736800Y1778000D02*
X27736800Y6858000D01*
X15036800Y6223000D02*
X15671800Y6858000D01*
X15036800Y6858000D02*
X15036800Y1778000D01*
X15036800Y6858000D02*
X15290800Y6604000D01*
X27736800Y6858000D02*
X15036800Y6858000D01*
D14*
X25509239Y12333112D02*
X25527033Y12246855D01*
X25548881Y12137324D01*
X25560302Y12078729D01*
X25590320Y11923125D01*
X25753095Y11860007D01*
X25842435Y11826744D01*
X25910655Y11803875D01*
X25939396Y11796889D01*
X25972331Y11812137D01*
X26037696Y11852410D01*
X26122294Y11909503D01*
X26135838Y11919019D01*
X26224490Y11981096D01*
X26297645Y12031351D01*
X26340891Y12059895D01*
X26343293Y12061338D01*
X26377041Y12052111D01*
X26437682Y12012201D01*
X26513283Y11951897D01*
X26591910Y11881484D01*
X26661629Y11811249D01*
X26710506Y11751479D01*
X26719229Y11737295D01*
X26721956Y11698727D01*
X26696040Y11636240D01*
X26637903Y11542325D01*
X26600627Y11488305D01*
X26457248Y11284799D01*
X26534467Y11103109D01*
X26589825Y10989291D01*
X26638937Y10925447D01*
X26671887Y10907471D01*
X26730565Y10894966D01*
X26823229Y10876338D01*
X26915533Y10858372D01*
X27098977Y10823223D01*
X27098977Y10287000D01*
X26865411Y10241582D01*
X26758005Y10219668D01*
X26674377Y10200663D01*
X26627986Y10187703D01*
X26623007Y10185138D01*
X26609003Y10155267D01*
X26580571Y10087212D01*
X26543730Y9995397D01*
X26541865Y9990667D01*
X26469560Y9807223D01*
X26588898Y9637889D01*
X26649766Y9550824D01*
X26698348Y9480055D01*
X26724880Y9439818D01*
X26725837Y9438207D01*
X26714720Y9406555D01*
X26670409Y9346430D01*
X26600886Y9267964D01*
X26553264Y9219140D01*
X26363089Y9030423D01*
X26182244Y9157767D01*
X26074074Y9230227D01*
X25997165Y9269676D01*
X25939434Y9279257D01*
X25888797Y9262114D01*
X25858861Y9241881D01*
X25809316Y9209805D01*
X25784724Y9200445D01*
X25767974Y9225158D01*
X25734096Y9293478D01*
X25687104Y9396680D01*
X25631014Y9526037D01*
X25590688Y9622158D01*
X25416006Y10043872D01*
X25532597Y10149204D01*
X25639571Y10260807D01*
X25702053Y10367944D01*
X25728141Y10486650D01*
X25730200Y10540505D01*
X25705928Y10713618D01*
X25632820Y10858753D01*
X25571398Y10927261D01*
X25437390Y11018905D01*
X25292558Y11061825D01*
X25146168Y11060043D01*
X25007488Y11017582D01*
X24885784Y10938466D01*
X24790322Y10826717D01*
X24730369Y10686358D01*
X24714200Y10555112D01*
X24734920Y10403719D01*
X24800870Y10270538D01*
X24909315Y10151325D01*
X25028393Y10043872D01*
X24853711Y9622158D01*
X24793796Y9480250D01*
X24740311Y9358698D01*
X24697273Y9266229D01*
X24668695Y9211570D01*
X24659676Y9200445D01*
X24624492Y9215724D01*
X24585538Y9241881D01*
X24519824Y9277165D01*
X24453345Y9275105D01*
X24370939Y9233539D01*
X24330378Y9205554D01*
X24221978Y9126566D01*
X24147576Y9077958D01*
X24093250Y9060284D01*
X24045079Y9074100D01*
X23989140Y9119958D01*
X23911512Y9198413D01*
X23887068Y9223201D01*
X23697511Y9414222D01*
X23824855Y9595067D01*
X23885601Y9687083D01*
X23930596Y9766198D01*
X23951601Y9817656D01*
X23952200Y9823082D01*
X23942454Y9867825D01*
X23917955Y9945010D01*
X23885811Y10035039D01*
X23853127Y10118314D01*
X23827011Y10175236D01*
X23820935Y10185046D01*
X23791420Y10195178D01*
X23719851Y10212707D01*
X23619616Y10234444D01*
X23579080Y10242688D01*
X23345422Y10289395D01*
X23345422Y10823223D01*
X23528866Y10858372D01*
X23633656Y10878809D01*
X23723304Y10896919D01*
X23772512Y10907471D01*
X23819523Y10939409D01*
X23870039Y11017358D01*
X23910025Y11103329D01*
X23987338Y11285239D01*
X23862834Y11463453D01*
X23800513Y11553134D01*
X23749889Y11626851D01*
X23720554Y11670618D01*
X23718458Y11673938D01*
X23727917Y11707168D01*
X23770075Y11765659D01*
X23834177Y11838650D01*
X23909466Y11915381D01*
X23985186Y11985091D01*
X24050582Y12037019D01*
X24094897Y12060404D01*
X24103940Y12059587D01*
X24141341Y12035094D01*
X24210592Y11987589D01*
X24297552Y11926787D01*
X24308561Y11919019D01*
X24394907Y11860108D01*
X24464001Y11816787D01*
X24502647Y11797259D01*
X24505004Y11796889D01*
X24542006Y11806430D01*
X24614491Y11831232D01*
X24691304Y11860007D01*
X24854080Y11923125D01*
X24884097Y12078729D01*
X24905418Y12187334D01*
X24926245Y12290393D01*
X24935160Y12333112D01*
X24956206Y12431889D01*
X25488193Y12431889D01*
X25509239Y12333112D01*
G36*
X25509239Y12333112D02*
G01*
X25527033Y12246855D01*
X25548881Y12137324D01*
X25560302Y12078729D01*
X25590320Y11923125D01*
X25753095Y11860007D01*
X25842435Y11826744D01*
X25910655Y11803875D01*
X25939396Y11796889D01*
X25972331Y11812137D01*
X26037696Y11852410D01*
X26122294Y11909503D01*
X26135838Y11919019D01*
X26224490Y11981096D01*
X26297645Y12031351D01*
X26340891Y12059895D01*
X26343293Y12061338D01*
X26377041Y12052111D01*
X26437682Y12012201D01*
X26513283Y11951897D01*
X26591910Y11881484D01*
X26661629Y11811249D01*
X26710506Y11751479D01*
X26719229Y11737295D01*
X26721956Y11698727D01*
X26696040Y11636240D01*
X26637903Y11542325D01*
X26600627Y11488305D01*
X26457248Y11284799D01*
X26534467Y11103109D01*
X26589825Y10989291D01*
X26638937Y10925447D01*
X26671887Y10907471D01*
X26730565Y10894966D01*
X26823229Y10876338D01*
X26915533Y10858372D01*
X27098977Y10823223D01*
X27098977Y10287000D01*
X26865411Y10241582D01*
X26758005Y10219668D01*
X26674377Y10200663D01*
X26627986Y10187703D01*
X26623007Y10185138D01*
X26609003Y10155267D01*
X26580571Y10087212D01*
X26543730Y9995397D01*
X26541865Y9990667D01*
X26469560Y9807223D01*
X26588898Y9637889D01*
X26649766Y9550824D01*
X26698348Y9480055D01*
X26724880Y9439818D01*
X26725837Y9438207D01*
X26714720Y9406555D01*
X26670409Y9346430D01*
X26600886Y9267964D01*
X26553264Y9219140D01*
X26363089Y9030423D01*
X26182244Y9157767D01*
X26074074Y9230227D01*
X25997165Y9269676D01*
X25939434Y9279257D01*
X25888797Y9262114D01*
X25858861Y9241881D01*
X25809316Y9209805D01*
X25784724Y9200445D01*
X25767974Y9225158D01*
X25734096Y9293478D01*
X25687104Y9396680D01*
X25631014Y9526037D01*
X25590688Y9622158D01*
X25416006Y10043872D01*
X25532597Y10149204D01*
X25639571Y10260807D01*
X25702053Y10367944D01*
X25728141Y10486650D01*
X25730200Y10540505D01*
X25705928Y10713618D01*
X25632820Y10858753D01*
X25571398Y10927261D01*
X25437390Y11018905D01*
X25292558Y11061825D01*
X25146168Y11060043D01*
X25007488Y11017582D01*
X24885784Y10938466D01*
X24790322Y10826717D01*
X24730369Y10686358D01*
X24714200Y10555112D01*
X24734920Y10403719D01*
X24800870Y10270538D01*
X24909315Y10151325D01*
X25028393Y10043872D01*
X24853711Y9622158D01*
X24793796Y9480250D01*
X24740311Y9358698D01*
X24697273Y9266229D01*
X24668695Y9211570D01*
X24659676Y9200445D01*
X24624492Y9215724D01*
X24585538Y9241881D01*
X24519824Y9277165D01*
X24453345Y9275105D01*
X24370939Y9233539D01*
X24330378Y9205554D01*
X24221978Y9126566D01*
X24147576Y9077958D01*
X24093250Y9060284D01*
X24045079Y9074100D01*
X23989140Y9119958D01*
X23911512Y9198413D01*
X23887068Y9223201D01*
X23697511Y9414222D01*
X23824855Y9595067D01*
X23885601Y9687083D01*
X23930596Y9766198D01*
X23951601Y9817656D01*
X23952200Y9823082D01*
X23942454Y9867825D01*
X23917955Y9945010D01*
X23885811Y10035039D01*
X23853127Y10118314D01*
X23827011Y10175236D01*
X23820935Y10185046D01*
X23791420Y10195178D01*
X23719851Y10212707D01*
X23619616Y10234444D01*
X23579080Y10242688D01*
X23345422Y10289395D01*
X23345422Y10823223D01*
X23528866Y10858372D01*
X23633656Y10878809D01*
X23723304Y10896919D01*
X23772512Y10907471D01*
X23819523Y10939409D01*
X23870039Y11017358D01*
X23910025Y11103329D01*
X23987338Y11285239D01*
X23862834Y11463453D01*
X23800513Y11553134D01*
X23749889Y11626851D01*
X23720554Y11670618D01*
X23718458Y11673938D01*
X23727917Y11707168D01*
X23770075Y11765659D01*
X23834177Y11838650D01*
X23909466Y11915381D01*
X23985186Y11985091D01*
X24050582Y12037019D01*
X24094897Y12060404D01*
X24103940Y12059587D01*
X24141341Y12035094D01*
X24210592Y11987589D01*
X24297552Y11926787D01*
X24308561Y11919019D01*
X24394907Y11860108D01*
X24464001Y11816787D01*
X24502647Y11797259D01*
X24505004Y11796889D01*
X24542006Y11806430D01*
X24614491Y11831232D01*
X24691304Y11860007D01*
X24854080Y11923125D01*
X24884097Y12078729D01*
X24905418Y12187334D01*
X24926245Y12290393D01*
X24935160Y12333112D01*
X24956206Y12431889D01*
X25488193Y12431889D01*
X25509239Y12333112D01*
G37*
X23573387Y8651435D02*
X23648828Y8616134D01*
X23690291Y8545909D01*
X23705599Y8432357D01*
X23706263Y8391548D01*
X23702261Y8292910D01*
X23686335Y8231424D01*
X23652602Y8188123D01*
X23639786Y8177175D01*
X23552911Y8136874D01*
X23494643Y8139078D01*
X23449529Y8145671D01*
X23426137Y8133758D01*
X23417331Y8090815D01*
X23415977Y8004319D01*
X23415977Y8001000D01*
X23417220Y7913039D01*
X23425706Y7868999D01*
X23448570Y7856355D01*
X23492946Y7862583D01*
X23494643Y7862923D01*
X23586692Y7856269D01*
X23640817Y7823991D01*
X23676265Y7788919D01*
X23696918Y7744944D01*
X23706876Y7676521D01*
X23710242Y7568106D01*
X23710318Y7560608D01*
X23710076Y7453255D01*
X23704510Y7389885D01*
X23690181Y7358067D01*
X23663652Y7345372D01*
X23650141Y7343045D01*
X23617113Y7342489D01*
X23597569Y7360400D01*
X23586986Y7408535D01*
X23580843Y7498649D01*
X23579585Y7526490D01*
X23573911Y7628051D01*
X23564622Y7685625D01*
X23546611Y7711652D01*
X23514772Y7718569D01*
X23500644Y7718778D01*
X23463093Y7715342D01*
X23441146Y7696704D01*
X23429629Y7650368D01*
X23423367Y7563841D01*
X23421743Y7528278D01*
X23415289Y7426036D01*
X23404570Y7368226D01*
X23385673Y7342838D01*
X23359652Y7337778D01*
X23328418Y7346003D01*
X23310353Y7379173D01*
X23300571Y7450034D01*
X23297441Y7500056D01*
X23295091Y7583000D01*
X23293984Y7709030D01*
X23294125Y7864805D01*
X23295517Y8036980D01*
X23297242Y8160374D01*
X23301706Y8429420D01*
X23421212Y8429420D01*
X23426461Y8338468D01*
X23453772Y8270428D01*
X23496490Y8241092D01*
X23500644Y8240889D01*
X23534604Y8260003D01*
X23555454Y8281253D01*
X23575285Y8334579D01*
X23580989Y8413931D01*
X23580076Y8429420D01*
X23569247Y8500467D01*
X23544823Y8531067D01*
X23500644Y8537223D01*
X23453518Y8529615D01*
X23430735Y8496148D01*
X23421212Y8429420D01*
X23301706Y8429420D01*
X23305507Y8658414D01*
X23456146Y8660213D01*
X23573387Y8651435D01*
G36*
X23573387Y8651435D02*
G01*
X23648828Y8616134D01*
X23690291Y8545909D01*
X23705599Y8432357D01*
X23706263Y8391548D01*
X23702261Y8292910D01*
X23686335Y8231424D01*
X23652602Y8188123D01*
X23639786Y8177175D01*
X23552911Y8136874D01*
X23494643Y8139078D01*
X23449529Y8145671D01*
X23426137Y8133758D01*
X23417331Y8090815D01*
X23415977Y8004319D01*
X23415977Y8001000D01*
X23417220Y7913039D01*
X23425706Y7868999D01*
X23448570Y7856355D01*
X23492946Y7862583D01*
X23494643Y7862923D01*
X23586692Y7856269D01*
X23640817Y7823991D01*
X23676265Y7788919D01*
X23696918Y7744944D01*
X23706876Y7676521D01*
X23710242Y7568106D01*
X23710318Y7560608D01*
X23710076Y7453255D01*
X23704510Y7389885D01*
X23690181Y7358067D01*
X23663652Y7345372D01*
X23650141Y7343045D01*
X23617113Y7342489D01*
X23597569Y7360400D01*
X23586986Y7408535D01*
X23580843Y7498649D01*
X23579585Y7526490D01*
X23573911Y7628051D01*
X23564622Y7685625D01*
X23546611Y7711652D01*
X23514772Y7718569D01*
X23500644Y7718778D01*
X23463093Y7715342D01*
X23441146Y7696704D01*
X23429629Y7650368D01*
X23423367Y7563841D01*
X23421743Y7528278D01*
X23415289Y7426036D01*
X23404570Y7368226D01*
X23385673Y7342838D01*
X23359652Y7337778D01*
X23328418Y7346003D01*
X23310353Y7379173D01*
X23300571Y7450034D01*
X23297441Y7500056D01*
X23295091Y7583000D01*
X23293984Y7709030D01*
X23294125Y7864805D01*
X23295517Y8036980D01*
X23297242Y8160374D01*
X23301706Y8429420D01*
X23421212Y8429420D01*
X23426461Y8338468D01*
X23453772Y8270428D01*
X23496490Y8241092D01*
X23500644Y8240889D01*
X23534604Y8260003D01*
X23555454Y8281253D01*
X23575285Y8334579D01*
X23580989Y8413931D01*
X23580076Y8429420D01*
X23569247Y8500467D01*
X23544823Y8531067D01*
X23500644Y8537223D01*
X23453518Y8529615D01*
X23430735Y8496148D01*
X23421212Y8429420D01*
X23301706Y8429420D01*
X23305507Y8658414D01*
X23456146Y8660213D01*
X23573387Y8651435D01*
G37*
X25804402Y7867428D02*
X25814866Y7858396D01*
X25807271Y7826241D01*
X25786888Y7752856D01*
X25757321Y7651021D01*
X25738904Y7589030D01*
X25701387Y7469058D01*
X25672686Y7394342D01*
X25647690Y7355441D01*
X25621286Y7342913D01*
X25606020Y7343579D01*
X25565543Y7365915D01*
X25530732Y7426391D01*
X25503261Y7507112D01*
X25457424Y7662334D01*
X25405213Y7500056D01*
X25365718Y7395958D01*
X25328516Y7342558D01*
X25290926Y7340900D01*
X25250269Y7392027D01*
X25203863Y7496981D01*
X25170397Y7591423D01*
X25132603Y7714131D01*
X25111470Y7805069D01*
X25108860Y7855498D01*
X25112782Y7862035D01*
X25165562Y7868711D01*
X25211537Y7819719D01*
X25250341Y7715467D01*
X25252484Y7707262D01*
X25275541Y7630547D01*
X25295799Y7585562D01*
X25305017Y7580166D01*
X25322699Y7614023D01*
X25349844Y7682742D01*
X25365747Y7727830D01*
X25399421Y7805257D01*
X25434520Y7852522D01*
X25450297Y7859889D01*
X25481274Y7834677D01*
X25519296Y7767317D01*
X25548434Y7695333D01*
X25606790Y7530778D01*
X25654502Y7702389D01*
X25685432Y7800209D01*
X25713838Y7853398D01*
X25746422Y7873010D01*
X25758540Y7874000D01*
X25804402Y7867428D01*
G36*
X25804402Y7867428D02*
G01*
X25814866Y7858396D01*
X25807271Y7826241D01*
X25786888Y7752856D01*
X25757321Y7651021D01*
X25738904Y7589030D01*
X25701387Y7469058D01*
X25672686Y7394342D01*
X25647690Y7355441D01*
X25621286Y7342913D01*
X25606020Y7343579D01*
X25565543Y7365915D01*
X25530732Y7426391D01*
X25503261Y7507112D01*
X25457424Y7662334D01*
X25405213Y7500056D01*
X25365718Y7395958D01*
X25328516Y7342558D01*
X25290926Y7340900D01*
X25250269Y7392027D01*
X25203863Y7496981D01*
X25170397Y7591423D01*
X25132603Y7714131D01*
X25111470Y7805069D01*
X25108860Y7855498D01*
X25112782Y7862035D01*
X25165562Y7868711D01*
X25211537Y7819719D01*
X25250341Y7715467D01*
X25252484Y7707262D01*
X25275541Y7630547D01*
X25295799Y7585562D01*
X25305017Y7580166D01*
X25322699Y7614023D01*
X25349844Y7682742D01*
X25365747Y7727830D01*
X25399421Y7805257D01*
X25434520Y7852522D01*
X25450297Y7859889D01*
X25481274Y7834677D01*
X25519296Y7767317D01*
X25548434Y7695333D01*
X25606790Y7530778D01*
X25654502Y7702389D01*
X25685432Y7800209D01*
X25713838Y7853398D01*
X25746422Y7873010D01*
X25758540Y7874000D01*
X25804402Y7867428D01*
G37*
X25019571Y8068416D02*
X25035348Y8052968D01*
X25045159Y8016168D01*
X25050410Y7948973D01*
X25052510Y7842339D01*
X25052866Y7708663D01*
X25052866Y7345770D01*
X24884011Y7343376D01*
X24784359Y7345223D01*
X24723971Y7357433D01*
X24685951Y7384692D01*
X24672345Y7402104D01*
X24639809Y7483472D01*
X24628092Y7589469D01*
X24628550Y7595407D01*
X24742422Y7595407D01*
X24758603Y7512987D01*
X24798616Y7464169D01*
X24849664Y7454577D01*
X24898951Y7489837D01*
X24915942Y7519142D01*
X24933581Y7599861D01*
X24922031Y7678953D01*
X24885845Y7734040D01*
X24870482Y7742688D01*
X24816161Y7737771D01*
X24769646Y7691750D01*
X24744056Y7619718D01*
X24742422Y7595407D01*
X24628550Y7595407D01*
X24636466Y7697918D01*
X24664204Y7786640D01*
X24685977Y7817556D01*
X24761231Y7867209D01*
X24842301Y7863774D01*
X24885388Y7844785D01*
X24918729Y7831993D01*
X24934756Y7848311D01*
X24939704Y7905018D01*
X24939977Y7943563D01*
X24943611Y8023307D01*
X24958725Y8061172D01*
X24991639Y8071488D01*
X24996422Y8071556D01*
X25019571Y8068416D01*
G36*
X25019571Y8068416D02*
G01*
X25035348Y8052968D01*
X25045159Y8016168D01*
X25050410Y7948973D01*
X25052510Y7842339D01*
X25052866Y7708663D01*
X25052866Y7345770D01*
X24884011Y7343376D01*
X24784359Y7345223D01*
X24723971Y7357433D01*
X24685951Y7384692D01*
X24672345Y7402104D01*
X24639809Y7483472D01*
X24628092Y7589469D01*
X24628550Y7595407D01*
X24742422Y7595407D01*
X24758603Y7512987D01*
X24798616Y7464169D01*
X24849664Y7454577D01*
X24898951Y7489837D01*
X24915942Y7519142D01*
X24933581Y7599861D01*
X24922031Y7678953D01*
X24885845Y7734040D01*
X24870482Y7742688D01*
X24816161Y7737771D01*
X24769646Y7691750D01*
X24744056Y7619718D01*
X24742422Y7595407D01*
X24628550Y7595407D01*
X24636466Y7697918D01*
X24664204Y7786640D01*
X24685977Y7817556D01*
X24761231Y7867209D01*
X24842301Y7863774D01*
X24885388Y7844785D01*
X24918729Y7831993D01*
X24934756Y7848311D01*
X24939704Y7905018D01*
X24939977Y7943563D01*
X24943611Y8023307D01*
X24958725Y8061172D01*
X24991639Y8071488D01*
X24996422Y8071556D01*
X25019571Y8068416D01*
G37*
X26972902Y7848250D02*
X27053269Y7780687D01*
X27103266Y7685846D01*
X27113089Y7618673D01*
X27106057Y7586931D01*
X27076149Y7570301D01*
X27010146Y7564151D01*
X26955797Y7563556D01*
X26865757Y7561131D01*
X26820072Y7551181D01*
X26806763Y7529692D01*
X26808344Y7514167D01*
X26830457Y7480674D01*
X26887802Y7466363D01*
X26934806Y7464778D01*
X27030613Y7457082D01*
X27076234Y7435119D01*
X27069549Y7400577D01*
X27044150Y7377804D01*
X26962814Y7346016D01*
X26862368Y7341254D01*
X26773861Y7364662D01*
X26768477Y7367639D01*
X26723734Y7420428D01*
X26690818Y7507578D01*
X26675842Y7607295D01*
X26680709Y7680603D01*
X26694428Y7710871D01*
X26803816Y7710871D01*
X26809492Y7675339D01*
X26855389Y7651323D01*
X26887311Y7648223D01*
X26952704Y7660031D01*
X26971977Y7687537D01*
X26948463Y7730914D01*
X26893281Y7750327D01*
X26844977Y7743095D01*
X26803816Y7710871D01*
X26694428Y7710871D01*
X26714274Y7754652D01*
X26774278Y7822845D01*
X26842196Y7866806D01*
X26875678Y7874000D01*
X26972902Y7848250D01*
G36*
X26972902Y7848250D02*
G01*
X27053269Y7780687D01*
X27103266Y7685846D01*
X27113089Y7618673D01*
X27106057Y7586931D01*
X27076149Y7570301D01*
X27010146Y7564151D01*
X26955797Y7563556D01*
X26865757Y7561131D01*
X26820072Y7551181D01*
X26806763Y7529692D01*
X26808344Y7514167D01*
X26830457Y7480674D01*
X26887802Y7466363D01*
X26934806Y7464778D01*
X27030613Y7457082D01*
X27076234Y7435119D01*
X27069549Y7400577D01*
X27044150Y7377804D01*
X26962814Y7346016D01*
X26862368Y7341254D01*
X26773861Y7364662D01*
X26768477Y7367639D01*
X26723734Y7420428D01*
X26690818Y7507578D01*
X26675842Y7607295D01*
X26680709Y7680603D01*
X26694428Y7710871D01*
X26803816Y7710871D01*
X26809492Y7675339D01*
X26855389Y7651323D01*
X26887311Y7648223D01*
X26952704Y7660031D01*
X26971977Y7687537D01*
X26948463Y7730914D01*
X26893281Y7750327D01*
X26844977Y7743095D01*
X26803816Y7710871D01*
X26694428Y7710871D01*
X26714274Y7754652D01*
X26774278Y7822845D01*
X26842196Y7866806D01*
X26875678Y7874000D01*
X26972902Y7848250D01*
G37*
X24049057Y7861822D02*
X24115253Y7830067D01*
X24147242Y7801544D01*
X24166119Y7762106D01*
X24175229Y7697617D01*
X24177916Y7593938D01*
X24177977Y7564875D01*
X24177977Y7343616D01*
X24021703Y7341749D01*
X23915815Y7346558D01*
X23847315Y7367126D01*
X23810036Y7395275D01*
X23762800Y7460148D01*
X23763520Y7500056D01*
X23900983Y7500056D01*
X23907158Y7464528D01*
X23952398Y7451395D01*
X23978352Y7450667D01*
X24040951Y7458842D01*
X24063727Y7490142D01*
X24065089Y7508986D01*
X24053965Y7550663D01*
X24010152Y7560302D01*
X23987719Y7558375D01*
X23923376Y7534282D01*
X23900983Y7500056D01*
X23763520Y7500056D01*
X23763946Y7523639D01*
X23798578Y7585499D01*
X23849109Y7630749D01*
X23927159Y7647522D01*
X23955869Y7648223D01*
X24028844Y7652603D01*
X24058494Y7669788D01*
X24059415Y7697612D01*
X24034002Y7733276D01*
X23969129Y7746560D01*
X23947129Y7747000D01*
X23858387Y7755448D01*
X23818408Y7779042D01*
X23830068Y7815156D01*
X23851805Y7833975D01*
X23945031Y7870118D01*
X24049057Y7861822D01*
G36*
X24049057Y7861822D02*
G01*
X24115253Y7830067D01*
X24147242Y7801544D01*
X24166119Y7762106D01*
X24175229Y7697617D01*
X24177916Y7593938D01*
X24177977Y7564875D01*
X24177977Y7343616D01*
X24021703Y7341749D01*
X23915815Y7346558D01*
X23847315Y7367126D01*
X23810036Y7395275D01*
X23762800Y7460148D01*
X23763520Y7500056D01*
X23900983Y7500056D01*
X23907158Y7464528D01*
X23952398Y7451395D01*
X23978352Y7450667D01*
X24040951Y7458842D01*
X24063727Y7490142D01*
X24065089Y7508986D01*
X24053965Y7550663D01*
X24010152Y7560302D01*
X23987719Y7558375D01*
X23923376Y7534282D01*
X23900983Y7500056D01*
X23763520Y7500056D01*
X23763946Y7523639D01*
X23798578Y7585499D01*
X23849109Y7630749D01*
X23927159Y7647522D01*
X23955869Y7648223D01*
X24028844Y7652603D01*
X24058494Y7669788D01*
X24059415Y7697612D01*
X24034002Y7733276D01*
X23969129Y7746560D01*
X23947129Y7747000D01*
X23858387Y7755448D01*
X23818408Y7779042D01*
X23830068Y7815156D01*
X23851805Y7833975D01*
X23945031Y7870118D01*
X24049057Y7861822D01*
G37*
X27536727Y8638638D02*
X27608269Y8571824D01*
X27646403Y8478692D01*
X27649311Y8443682D01*
X27649311Y8353778D01*
X27491737Y8353778D01*
X27392038Y8347083D01*
X27347152Y8326982D01*
X27357055Y8293448D01*
X27403949Y8257223D01*
X27461774Y8243229D01*
X27510314Y8263882D01*
X27564309Y8286251D01*
X27608370Y8267889D01*
X27612086Y8264871D01*
X27637316Y8234699D01*
X27622162Y8204318D01*
X27592637Y8178585D01*
X27496390Y8133409D01*
X27393263Y8138454D01*
X27299982Y8192667D01*
X27295250Y8197273D01*
X27238653Y8286345D01*
X27221146Y8389191D01*
X27236477Y8481081D01*
X27351614Y8481081D01*
X27374471Y8469022D01*
X27433303Y8466667D01*
X27500337Y8472002D01*
X27521882Y8491401D01*
X27518406Y8509000D01*
X27479737Y8545470D01*
X27452191Y8551334D01*
X27392611Y8530960D01*
X27367089Y8509000D01*
X27351614Y8481081D01*
X27236477Y8481081D01*
X27238316Y8492099D01*
X27285747Y8581354D01*
X27359027Y8643243D01*
X27445553Y8664223D01*
X27536727Y8638638D01*
G36*
X27536727Y8638638D02*
G01*
X27608269Y8571824D01*
X27646403Y8478692D01*
X27649311Y8443682D01*
X27649311Y8353778D01*
X27491737Y8353778D01*
X27392038Y8347083D01*
X27347152Y8326982D01*
X27357055Y8293448D01*
X27403949Y8257223D01*
X27461774Y8243229D01*
X27510314Y8263882D01*
X27564309Y8286251D01*
X27608370Y8267889D01*
X27612086Y8264871D01*
X27637316Y8234699D01*
X27622162Y8204318D01*
X27592637Y8178585D01*
X27496390Y8133409D01*
X27393263Y8138454D01*
X27299982Y8192667D01*
X27295250Y8197273D01*
X27238653Y8286345D01*
X27221146Y8389191D01*
X27236477Y8481081D01*
X27351614Y8481081D01*
X27374471Y8469022D01*
X27433303Y8466667D01*
X27500337Y8472002D01*
X27521882Y8491401D01*
X27518406Y8509000D01*
X27479737Y8545470D01*
X27452191Y8551334D01*
X27392611Y8530960D01*
X27367089Y8509000D01*
X27351614Y8481081D01*
X27236477Y8481081D01*
X27238316Y8492099D01*
X27285747Y8581354D01*
X27359027Y8643243D01*
X27445553Y8664223D01*
X27536727Y8638638D01*
G37*
X26108097Y7854555D02*
X26183299Y7819945D01*
X26209634Y7789975D01*
X26224143Y7735465D01*
X26234426Y7644528D01*
X26238200Y7540223D01*
X26238200Y7343845D01*
X26072605Y7341514D01*
X25965170Y7345215D01*
X25897893Y7362408D01*
X25860938Y7390092D01*
X25816444Y7470394D01*
X25817255Y7481747D01*
X25940130Y7481747D01*
X25940916Y7480427D01*
X25984193Y7455852D01*
X26046521Y7458849D01*
X26100910Y7484334D01*
X26120083Y7514167D01*
X26111067Y7553108D01*
X26063880Y7563124D01*
X25988348Y7550780D01*
X25942751Y7520730D01*
X25940130Y7481747D01*
X25817255Y7481747D01*
X25821867Y7546284D01*
X25870999Y7607326D01*
X25957634Y7643084D01*
X26014438Y7648223D01*
X26092560Y7655641D01*
X26123861Y7679880D01*
X26125311Y7690018D01*
X26099780Y7727883D01*
X26031567Y7750163D01*
X25933242Y7752817D01*
X25930612Y7752606D01*
X25869257Y7761536D01*
X25852858Y7792267D01*
X25883357Y7830048D01*
X25918112Y7847477D01*
X26012682Y7865117D01*
X26108097Y7854555D01*
G36*
X26108097Y7854555D02*
G01*
X26183299Y7819945D01*
X26209634Y7789975D01*
X26224143Y7735465D01*
X26234426Y7644528D01*
X26238200Y7540223D01*
X26238200Y7343845D01*
X26072605Y7341514D01*
X25965170Y7345215D01*
X25897893Y7362408D01*
X25860938Y7390092D01*
X25816444Y7470394D01*
X25817255Y7481747D01*
X25940130Y7481747D01*
X25940916Y7480427D01*
X25984193Y7455852D01*
X26046521Y7458849D01*
X26100910Y7484334D01*
X26120083Y7514167D01*
X26111067Y7553108D01*
X26063880Y7563124D01*
X25988348Y7550780D01*
X25942751Y7520730D01*
X25940130Y7481747D01*
X25817255Y7481747D01*
X25821867Y7546284D01*
X25870999Y7607326D01*
X25957634Y7643084D01*
X26014438Y7648223D01*
X26092560Y7655641D01*
X26123861Y7679880D01*
X26125311Y7690018D01*
X26099780Y7727883D01*
X26031567Y7750163D01*
X25933242Y7752817D01*
X25930612Y7752606D01*
X25869257Y7761536D01*
X25852858Y7792267D01*
X25883357Y7830048D01*
X25918112Y7847477D01*
X26012682Y7865117D01*
X26108097Y7854555D01*
G37*
X25243590Y8657540D02*
X25319429Y8631571D01*
X25368273Y8596304D01*
X25368538Y8564140D01*
X25327959Y8542045D01*
X25254268Y8536984D01*
X25218904Y8541023D01*
X25146783Y8548308D01*
X25115036Y8536736D01*
X25109311Y8512608D01*
X25131627Y8476120D01*
X25187698Y8466667D01*
X25288095Y8445821D01*
X25360080Y8390135D01*
X25391148Y8309882D01*
X25391533Y8299189D01*
X25378244Y8228917D01*
X25351718Y8186535D01*
X25267802Y8148352D01*
X25160012Y8140434D01*
X25052709Y8163734D01*
X25030000Y8173943D01*
X24971369Y8207982D01*
X24957344Y8233971D01*
X24977319Y8262104D01*
X25024015Y8287870D01*
X25075941Y8271867D01*
X25156353Y8244787D01*
X25227880Y8246808D01*
X25266483Y8272267D01*
X25265027Y8310355D01*
X25219186Y8339721D01*
X25140999Y8353152D01*
X25131128Y8353346D01*
X25050503Y8378012D01*
X24997835Y8439684D01*
X24984541Y8521399D01*
X24993510Y8557786D01*
X25047738Y8629104D01*
X25134973Y8663232D01*
X25243590Y8657540D01*
G36*
X25243590Y8657540D02*
G01*
X25319429Y8631571D01*
X25368273Y8596304D01*
X25368538Y8564140D01*
X25327959Y8542045D01*
X25254268Y8536984D01*
X25218904Y8541023D01*
X25146783Y8548308D01*
X25115036Y8536736D01*
X25109311Y8512608D01*
X25131627Y8476120D01*
X25187698Y8466667D01*
X25288095Y8445821D01*
X25360080Y8390135D01*
X25391148Y8309882D01*
X25391533Y8299189D01*
X25378244Y8228917D01*
X25351718Y8186535D01*
X25267802Y8148352D01*
X25160012Y8140434D01*
X25052709Y8163734D01*
X25030000Y8173943D01*
X24971369Y8207982D01*
X24957344Y8233971D01*
X24977319Y8262104D01*
X25024015Y8287870D01*
X25075941Y8271867D01*
X25156353Y8244787D01*
X25227880Y8246808D01*
X25266483Y8272267D01*
X25265027Y8310355D01*
X25219186Y8339721D01*
X25140999Y8353152D01*
X25131128Y8353346D01*
X25050503Y8378012D01*
X24997835Y8439684D01*
X24984541Y8521399D01*
X24993510Y8557786D01*
X25047738Y8629104D01*
X25134973Y8663232D01*
X25243590Y8657540D01*
G37*
X24084717Y8637563D02*
X24153810Y8571531D01*
X24194942Y8469282D01*
X24196640Y8459612D01*
X24213585Y8353778D01*
X24054670Y8353778D01*
X23958501Y8349799D01*
X23908753Y8336240D01*
X23895755Y8313347D01*
X23919351Y8272069D01*
X23975451Y8251672D01*
X24042019Y8258490D01*
X24059699Y8266227D01*
X24118344Y8278587D01*
X24145432Y8262146D01*
X24174619Y8221005D01*
X24158414Y8189388D01*
X24106094Y8160753D01*
X24004606Y8130712D01*
X23918188Y8147151D01*
X23859395Y8184789D01*
X23788997Y8273921D01*
X23763637Y8388898D01*
X23781756Y8501945D01*
X23902811Y8501945D01*
X23917497Y8475182D01*
X23980422Y8466667D01*
X24045115Y8475986D01*
X24058033Y8501945D01*
X24024016Y8529493D01*
X23980422Y8537223D01*
X23924564Y8523919D01*
X23902811Y8501945D01*
X23781756Y8501945D01*
X23782906Y8509119D01*
X23836760Y8603158D01*
X23913485Y8654897D01*
X24000373Y8665859D01*
X24084717Y8637563D01*
G36*
X24084717Y8637563D02*
G01*
X24153810Y8571531D01*
X24194942Y8469282D01*
X24196640Y8459612D01*
X24213585Y8353778D01*
X24054670Y8353778D01*
X23958501Y8349799D01*
X23908753Y8336240D01*
X23895755Y8313347D01*
X23919351Y8272069D01*
X23975451Y8251672D01*
X24042019Y8258490D01*
X24059699Y8266227D01*
X24118344Y8278587D01*
X24145432Y8262146D01*
X24174619Y8221005D01*
X24158414Y8189388D01*
X24106094Y8160753D01*
X24004606Y8130712D01*
X23918188Y8147151D01*
X23859395Y8184789D01*
X23788997Y8273921D01*
X23763637Y8388898D01*
X23781756Y8501945D01*
X23902811Y8501945D01*
X23917497Y8475182D01*
X23980422Y8466667D01*
X24045115Y8475986D01*
X24058033Y8501945D01*
X24024016Y8529493D01*
X23980422Y8537223D01*
X23924564Y8523919D01*
X23902811Y8501945D01*
X23781756Y8501945D01*
X23782906Y8509119D01*
X23836760Y8603158D01*
X23913485Y8654897D01*
X24000373Y8665859D01*
X24084717Y8637563D01*
G37*
X26321009Y8660131D02*
X26337591Y8640835D01*
X26346635Y8595802D01*
X26350385Y8514503D01*
X26351089Y8399368D01*
X26351089Y8134513D01*
X26209082Y8134513D01*
X26077665Y8149647D01*
X26004471Y8185188D01*
X25971383Y8219278D01*
X25952395Y8264756D01*
X25943795Y8336906D01*
X25941866Y8442987D01*
X25943147Y8549826D01*
X25949437Y8612741D01*
X25964410Y8644236D01*
X25991740Y8656816D01*
X26005366Y8659130D01*
X26038564Y8660418D01*
X26057568Y8644674D01*
X26066323Y8600217D01*
X26068770Y8515364D01*
X26068866Y8470982D01*
X26073617Y8351474D01*
X26090343Y8281707D01*
X26122754Y8255589D01*
X26174557Y8267026D01*
X26188811Y8273918D01*
X26216935Y8300476D01*
X26232248Y8352414D01*
X26237910Y8443034D01*
X26238200Y8481771D01*
X26239978Y8580723D01*
X26247890Y8635778D01*
X26265805Y8659437D01*
X26294644Y8664223D01*
X26321009Y8660131D01*
G36*
X26321009Y8660131D02*
G01*
X26337591Y8640835D01*
X26346635Y8595802D01*
X26350385Y8514503D01*
X26351089Y8399368D01*
X26351089Y8134513D01*
X26209082Y8134513D01*
X26077665Y8149647D01*
X26004471Y8185188D01*
X25971383Y8219278D01*
X25952395Y8264756D01*
X25943795Y8336906D01*
X25941866Y8442987D01*
X25943147Y8549826D01*
X25949437Y8612741D01*
X25964410Y8644236D01*
X25991740Y8656816D01*
X26005366Y8659130D01*
X26038564Y8660418D01*
X26057568Y8644674D01*
X26066323Y8600217D01*
X26068770Y8515364D01*
X26068866Y8470982D01*
X26073617Y8351474D01*
X26090343Y8281707D01*
X26122754Y8255589D01*
X26174557Y8267026D01*
X26188811Y8273918D01*
X26216935Y8300476D01*
X26232248Y8352414D01*
X26237910Y8443034D01*
X26238200Y8481771D01*
X26239978Y8580723D01*
X26247890Y8635778D01*
X26265805Y8659437D01*
X26294644Y8664223D01*
X26321009Y8660131D01*
G37*
X23122410Y8625143D02*
X23183634Y8547747D01*
X23215802Y8437408D01*
X23218422Y8391023D01*
X23198015Y8272349D01*
X23143373Y8186527D01*
X23064359Y8139338D01*
X22970838Y8136565D01*
X22872676Y8183989D01*
X22869450Y8186493D01*
X22824171Y8230948D01*
X22801957Y8284997D01*
X22795239Y8369684D01*
X22795089Y8393240D01*
X22795996Y8408622D01*
X22912812Y8408622D01*
X22919923Y8321302D01*
X22951988Y8278506D01*
X23016344Y8257001D01*
X23069821Y8283674D01*
X23101394Y8350260D01*
X23105533Y8393649D01*
X23088718Y8484311D01*
X23047510Y8534567D01*
X22995762Y8543340D01*
X22947328Y8509554D01*
X22916061Y8432131D01*
X22912812Y8408622D01*
X22795996Y8408622D01*
X22800964Y8492788D01*
X22822984Y8557848D01*
X22860407Y8602859D01*
X22951197Y8658379D01*
X23041731Y8663913D01*
X23122410Y8625143D01*
G36*
X23122410Y8625143D02*
G01*
X23183634Y8547747D01*
X23215802Y8437408D01*
X23218422Y8391023D01*
X23198015Y8272349D01*
X23143373Y8186527D01*
X23064359Y8139338D01*
X22970838Y8136565D01*
X22872676Y8183989D01*
X22869450Y8186493D01*
X22824171Y8230948D01*
X22801957Y8284997D01*
X22795239Y8369684D01*
X22795089Y8393240D01*
X22795996Y8408622D01*
X22912812Y8408622D01*
X22919923Y8321302D01*
X22951988Y8278506D01*
X23016344Y8257001D01*
X23069821Y8283674D01*
X23101394Y8350260D01*
X23105533Y8393649D01*
X23088718Y8484311D01*
X23047510Y8534567D01*
X22995762Y8543340D01*
X22947328Y8509554D01*
X22916061Y8432131D01*
X22912812Y8408622D01*
X22795996Y8408622D01*
X22800964Y8492788D01*
X22822984Y8557848D01*
X22860407Y8602859D01*
X22951197Y8658379D01*
X23041731Y8663913D01*
X23122410Y8625143D01*
G37*
X25749056Y8639247D02*
X25824172Y8569665D01*
X25865449Y8463496D01*
X25871311Y8396112D01*
X25851312Y8275398D01*
X25797598Y8187956D01*
X25719590Y8139444D01*
X25626711Y8135523D01*
X25528385Y8181852D01*
X25522339Y8186493D01*
X25477799Y8229838D01*
X25455507Y8282162D01*
X25448281Y8363910D01*
X25448033Y8391870D01*
X25560866Y8391870D01*
X25578246Y8311530D01*
X25620662Y8265066D01*
X25673534Y8256138D01*
X25722278Y8288407D01*
X25748136Y8344861D01*
X25749983Y8425073D01*
X25734387Y8482859D01*
X25690009Y8539805D01*
X25639779Y8548666D01*
X25594720Y8515222D01*
X25565852Y8445254D01*
X25560866Y8391870D01*
X25448033Y8391870D01*
X25447977Y8398160D01*
X25463789Y8530151D01*
X25511963Y8616622D01*
X25593607Y8659056D01*
X25646816Y8664223D01*
X25749056Y8639247D01*
G36*
X25749056Y8639247D02*
G01*
X25824172Y8569665D01*
X25865449Y8463496D01*
X25871311Y8396112D01*
X25851312Y8275398D01*
X25797598Y8187956D01*
X25719590Y8139444D01*
X25626711Y8135523D01*
X25528385Y8181852D01*
X25522339Y8186493D01*
X25477799Y8229838D01*
X25455507Y8282162D01*
X25448281Y8363910D01*
X25448033Y8391870D01*
X25560866Y8391870D01*
X25578246Y8311530D01*
X25620662Y8265066D01*
X25673534Y8256138D01*
X25722278Y8288407D01*
X25748136Y8344861D01*
X25749983Y8425073D01*
X25734387Y8482859D01*
X25690009Y8539805D01*
X25639779Y8548666D01*
X25594720Y8515222D01*
X25565852Y8445254D01*
X25560866Y8391870D01*
X25448033Y8391870D01*
X25447977Y8398160D01*
X25463789Y8530151D01*
X25511963Y8616622D01*
X25593607Y8659056D01*
X25646816Y8664223D01*
X25749056Y8639247D01*
G37*
X24535908Y8651905D02*
X24613017Y8624642D01*
X24658833Y8567624D01*
X24680699Y8472052D01*
X24685977Y8339667D01*
X24684590Y8231323D01*
X24678405Y8167743D01*
X24664385Y8137275D01*
X24639493Y8128266D01*
X24630822Y8128000D01*
X24600800Y8134649D01*
X24582841Y8162714D01*
X24572822Y8224376D01*
X24567322Y8315554D01*
X24558542Y8426169D01*
X24542030Y8493361D01*
X24514294Y8529994D01*
X24507936Y8534276D01*
X24453043Y8544254D01*
X24411062Y8503214D01*
X24384421Y8415605D01*
X24375533Y8291940D01*
X24373337Y8199205D01*
X24363745Y8149757D01*
X24342252Y8130512D01*
X24319089Y8128000D01*
X24292705Y8132098D01*
X24276119Y8151419D01*
X24267081Y8196502D01*
X24263341Y8277888D01*
X24262644Y8392399D01*
X24262644Y8656798D01*
X24420163Y8658214D01*
X24535908Y8651905D01*
G36*
X24535908Y8651905D02*
G01*
X24613017Y8624642D01*
X24658833Y8567624D01*
X24680699Y8472052D01*
X24685977Y8339667D01*
X24684590Y8231323D01*
X24678405Y8167743D01*
X24664385Y8137275D01*
X24639493Y8128266D01*
X24630822Y8128000D01*
X24600800Y8134649D01*
X24582841Y8162714D01*
X24572822Y8224376D01*
X24567322Y8315554D01*
X24558542Y8426169D01*
X24542030Y8493361D01*
X24514294Y8529994D01*
X24507936Y8534276D01*
X24453043Y8544254D01*
X24411062Y8503214D01*
X24384421Y8415605D01*
X24375533Y8291940D01*
X24373337Y8199205D01*
X24363745Y8149757D01*
X24342252Y8130512D01*
X24319089Y8128000D01*
X24292705Y8132098D01*
X24276119Y8151419D01*
X24267081Y8196502D01*
X24263341Y8277888D01*
X24262644Y8392399D01*
X24262644Y8656798D01*
X24420163Y8658214D01*
X24535908Y8651905D01*
G37*
X27104406Y8651824D02*
X27156018Y8624943D01*
X27191899Y8588355D01*
X27181228Y8551865D01*
X27173116Y8541541D01*
X27134019Y8512864D01*
X27085457Y8529315D01*
X27082362Y8531225D01*
X27014864Y8548717D01*
X26960310Y8516323D01*
X26926618Y8440376D01*
X26920995Y8402155D01*
X26931948Y8313871D01*
X26976194Y8261850D01*
X27044173Y8253811D01*
X27085450Y8269424D01*
X27150409Y8286231D01*
X27190675Y8261371D01*
X27197755Y8229643D01*
X27173547Y8192525D01*
X27115140Y8156461D01*
X27043859Y8132654D01*
X27005927Y8128859D01*
X26941548Y8143510D01*
X26905833Y8159963D01*
X26847353Y8221073D01*
X26805318Y8314524D01*
X26788459Y8416740D01*
X26792588Y8465774D01*
X26835818Y8561030D01*
X26912452Y8628281D01*
X27007108Y8660791D01*
X27104406Y8651824D01*
G36*
X27104406Y8651824D02*
G01*
X27156018Y8624943D01*
X27191899Y8588355D01*
X27181228Y8551865D01*
X27173116Y8541541D01*
X27134019Y8512864D01*
X27085457Y8529315D01*
X27082362Y8531225D01*
X27014864Y8548717D01*
X26960310Y8516323D01*
X26926618Y8440376D01*
X26920995Y8402155D01*
X26931948Y8313871D01*
X26976194Y8261850D01*
X27044173Y8253811D01*
X27085450Y8269424D01*
X27150409Y8286231D01*
X27190675Y8261371D01*
X27197755Y8229643D01*
X27173547Y8192525D01*
X27115140Y8156461D01*
X27043859Y8132654D01*
X27005927Y8128859D01*
X26941548Y8143510D01*
X26905833Y8159963D01*
X26847353Y8221073D01*
X26805318Y8314524D01*
X26788459Y8416740D01*
X26792588Y8465774D01*
X26835818Y8561030D01*
X26912452Y8628281D01*
X27007108Y8660791D01*
X27104406Y8651824D01*
G37*
X24393147Y7860754D02*
X24403755Y7842323D01*
X24417153Y7827197D01*
X24445722Y7845474D01*
X24494814Y7863225D01*
X24557852Y7862122D01*
X24610678Y7845452D01*
X24629533Y7820474D01*
X24604315Y7776458D01*
X24540529Y7741131D01*
X24488422Y7728538D01*
X24450750Y7719340D01*
X24428698Y7696031D01*
X24417079Y7645449D01*
X24410707Y7554428D01*
X24409521Y7528278D01*
X24403156Y7426251D01*
X24392607Y7368566D01*
X24373839Y7343119D01*
X24346021Y7337778D01*
X24320365Y7342125D01*
X24304170Y7362127D01*
X24295288Y7408228D01*
X24291571Y7490868D01*
X24290866Y7605889D01*
X24291719Y7730502D01*
X24295745Y7809148D01*
X24305150Y7852299D01*
X24322138Y7870424D01*
X24347311Y7874000D01*
X24393147Y7860754D01*
G36*
X24393147Y7860754D02*
G01*
X24403755Y7842323D01*
X24417153Y7827197D01*
X24445722Y7845474D01*
X24494814Y7863225D01*
X24557852Y7862122D01*
X24610678Y7845452D01*
X24629533Y7820474D01*
X24604315Y7776458D01*
X24540529Y7741131D01*
X24488422Y7728538D01*
X24450750Y7719340D01*
X24428698Y7696031D01*
X24417079Y7645449D01*
X24410707Y7554428D01*
X24409521Y7528278D01*
X24403156Y7426251D01*
X24392607Y7368566D01*
X24373839Y7343119D01*
X24346021Y7337778D01*
X24320365Y7342125D01*
X24304170Y7362127D01*
X24295288Y7408228D01*
X24291571Y7490868D01*
X24290866Y7605889D01*
X24291719Y7730502D01*
X24295745Y7809148D01*
X24305150Y7852299D01*
X24322138Y7870424D01*
X24347311Y7874000D01*
X24393147Y7860754D01*
G37*
X26570848Y7862542D02*
X26640810Y7853119D01*
X26662006Y7845486D01*
X26682675Y7811389D01*
X26661019Y7773511D01*
X26609005Y7743512D01*
X26546478Y7732889D01*
X26504063Y7730480D01*
X26479479Y7714900D01*
X26466921Y7673623D01*
X26460585Y7594123D01*
X26458211Y7542389D01*
X26452057Y7440551D01*
X26441623Y7382112D01*
X26422143Y7354028D01*
X26388855Y7343258D01*
X26385279Y7342729D01*
X26355187Y7340573D01*
X26336690Y7351366D01*
X26327497Y7385399D01*
X26325316Y7452964D01*
X26327856Y7564353D01*
X26328835Y7596220D01*
X26336977Y7858872D01*
X26480376Y7863993D01*
X26570848Y7862542D01*
G36*
X26570848Y7862542D02*
G01*
X26640810Y7853119D01*
X26662006Y7845486D01*
X26682675Y7811389D01*
X26661019Y7773511D01*
X26609005Y7743512D01*
X26546478Y7732889D01*
X26504063Y7730480D01*
X26479479Y7714900D01*
X26466921Y7673623D01*
X26460585Y7594123D01*
X26458211Y7542389D01*
X26452057Y7440551D01*
X26441623Y7382112D01*
X26422143Y7354028D01*
X26388855Y7343258D01*
X26385279Y7342729D01*
X26355187Y7340573D01*
X26336690Y7351366D01*
X26327497Y7385399D01*
X26325316Y7452964D01*
X26327856Y7564353D01*
X26328835Y7596220D01*
X26336977Y7858872D01*
X26480376Y7863993D01*
X26570848Y7862542D01*
G37*
X26707606Y8654392D02*
X26771160Y8643135D01*
X26790730Y8632445D01*
X26790501Y8589987D01*
X26756854Y8552103D01*
X26710411Y8539669D01*
X26701443Y8542058D01*
X26641162Y8542510D01*
X26600548Y8490315D01*
X26579774Y8385796D01*
X26576866Y8307989D01*
X26575040Y8209848D01*
X26566933Y8155527D01*
X26548601Y8132450D01*
X26520422Y8128000D01*
X26494038Y8132098D01*
X26477452Y8151419D01*
X26468414Y8196502D01*
X26464674Y8277888D01*
X26463977Y8392399D01*
X26463977Y8656798D01*
X26618968Y8658191D01*
X26707606Y8654392D01*
G36*
X26707606Y8654392D02*
G01*
X26771160Y8643135D01*
X26790730Y8632445D01*
X26790501Y8589987D01*
X26756854Y8552103D01*
X26710411Y8539669D01*
X26701443Y8542058D01*
X26641162Y8542510D01*
X26600548Y8490315D01*
X26579774Y8385796D01*
X26576866Y8307989D01*
X26575040Y8209848D01*
X26566933Y8155527D01*
X26548601Y8132450D01*
X26520422Y8128000D01*
X26494038Y8132098D01*
X26477452Y8151419D01*
X26468414Y8196502D01*
X26464674Y8277888D01*
X26463977Y8392399D01*
X26463977Y8656798D01*
X26618968Y8658191D01*
X26707606Y8654392D01*
G37*
D13*
X778000Y1794000D02*
X12778000Y1794000D01*
X778000Y3794000D02*
X778000Y1794000D01*
X778000Y3794000D02*
X12778000Y3794000D01*
X12778000Y3794000D02*
X12778000Y1794000D01*
X18310000Y12807000D02*
X18310000Y33167000D01*
X18310000Y12807000D02*
X27410000Y12807000D01*
X18840000Y32737000D02*
X26840000Y32737000D01*
X18840000Y25237000D02*
X18340000Y25237000D01*
X18840000Y25237000D02*
X18840000Y32737000D01*
X18840000Y20737000D02*
X18340000Y20737000D01*
X18840000Y13237000D02*
X18840000Y20737000D01*
X26840000Y32737000D02*
X26840000Y13237000D01*
X26840000Y13237000D02*
X18840000Y13237000D01*
X27410000Y33167000D02*
X18310000Y33167000D01*
X27410000Y12807000D02*
X27410000Y33167000D01*
X27410000Y12807000D02*
X27410000Y33167000D01*
M02*
