M48
; DRILL file {KiCad 7.0.8} date Thu Dec 28 22:15:15 2023
; FORMAT={3:3/ absolute / metric / suppress leading zeros}
; #@! TF.CreationDate,2023-12-28T22:15:15-05:00
; #@! TF.GenerationSoftware,Kicad,Pcbnew,7.0.8
; #@! TF.FileFunction,MixedPlating,1,2
FMAT,2
METRIC,TZ
; #@! TA.AperFunction,Plated,PTH,ViaDrill
T1C0.254
; #@! TA.AperFunction,Plated,PTH,ComponentDrill
T2C0.650
; #@! TA.AperFunction,Plated,PTH,ComponentDrill
T3C1.016
; #@! TA.AperFunction,Plated,PTH,ComponentDrill
T4C2.330
%
G90
G05
T1
X8509Y1981
X10795Y3454
X12764Y23559
X16408Y19583
T2
X13462Y5334
X13462Y4064
X13462Y2794
X14732Y5334
X14732Y4064
X14732Y2794
T3
X5715Y19050
X5715Y16510
X5715Y13970
X8001Y30988
X8021Y28270
X8021Y26270
X10521Y28270
X10521Y26270
X10541Y30988
X21590Y27178
X21590Y24638
X21590Y22098
X21590Y19558
X21590Y17018
X24130Y27178
X24130Y24638
X24130Y22098
X24130Y19558
X24130Y17018
T4
X3251Y30980
X15291Y30980
T0
M30
