%TF.GenerationSoftware,KiCad,Pcbnew,7.0.8*%
%TF.CreationDate,2023-12-28T22:14:51-05:00*%
%TF.ProjectId,petit-jtag,70657469-742d-46a7-9461-672e6b696361,1.0*%
%TF.SameCoordinates,PX8aadb58PY71d9820*%
%TF.FileFunction,Copper,L1,Top*%
%TF.FilePolarity,Positive*%
%FSLAX46Y46*%
G04 Gerber Fmt 4.6, Leading zero omitted, Abs format (unit mm)*
G04 Created by KiCad (PCBNEW 7.0.8) date 2023-12-28 22:14:51*
%MOMM*%
%LPD*%
G01*
G04 APERTURE LIST*
%TA.AperFunction,ComponentPad*%
%ADD10C,1.000000*%
%TD*%
%TA.AperFunction,ComponentPad*%
%ADD11C,1.524000*%
%TD*%
%TA.AperFunction,ComponentPad*%
%ADD12C,3.000000*%
%TD*%
%TA.AperFunction,SMDPad,CuDef*%
%ADD13R,1.016000X1.270000*%
%TD*%
%TA.AperFunction,SMDPad,CuDef*%
%ADD14R,1.200000X2.200000*%
%TD*%
%TA.AperFunction,SMDPad,CuDef*%
%ADD15R,3.500000X2.200000*%
%TD*%
%TA.AperFunction,ViaPad*%
%ADD16C,0.508000*%
%TD*%
%TA.AperFunction,Conductor*%
%ADD17C,0.304800*%
%TD*%
%TA.AperFunction,Conductor*%
%ADD18C,0.177800*%
%TD*%
G04 APERTURE END LIST*
D10*
%TO.P,CON101,1,TDO*%
%TO.N,/TDO*%
X13462000Y5334000D03*
%TO.P,CON101,2,GND*%
%TO.N,GND*%
X14732000Y5334000D03*
%TO.P,CON101,3,TCK*%
%TO.N,/TCK*%
X13462000Y4064000D03*
%TO.P,CON101,4,Vcc*%
%TO.N,VCC*%
X14732000Y4064000D03*
%TO.P,CON101,5,TDI*%
%TO.N,/TDI*%
X13462000Y2794000D03*
%TO.P,CON101,6,TMS*%
%TO.N,/TMS*%
X14732000Y2794000D03*
%TD*%
D11*
%TO.P,CON102,1,+5V*%
%TO.N,+5V*%
X8021000Y26270000D03*
%TO.P,CON102,2,D-*%
%TO.N,unconnected-(CON102-D--Pad2)*%
X10521000Y26270000D03*
%TO.P,CON102,3,D+*%
%TO.N,unconnected-(CON102-D+-Pad3)*%
X10521000Y28270000D03*
%TO.P,CON102,4,GND*%
%TO.N,GND*%
X8021000Y28270000D03*
D12*
%TO.P,CON102,5,CASE*%
X3251000Y30980000D03*
X15291000Y30980000D03*
%TD*%
D11*
%TO.P,CON104,1,1*%
%TO.N,+3V3*%
X5715000Y13970000D03*
%TO.P,CON104,2,2*%
%TO.N,VCC*%
X5715000Y16510000D03*
%TO.P,CON104,3,3*%
%TO.N,+5V*%
X5715000Y19050000D03*
%TD*%
D13*
%TO.P,C102,1*%
%TO.N,+3V3*%
X12763500Y22225000D03*
%TO.P,C102,2*%
%TO.N,GND*%
X14922500Y22225000D03*
%TD*%
D14*
%TO.P,U101,1,GND*%
%TO.N,GND*%
X15000000Y19558000D03*
D15*
%TO.P,U101,2,Vout*%
%TO.N,+3V3*%
X12700000Y13358000D03*
D14*
X12700000Y19558000D03*
%TO.P,U101,3,Vin*%
%TO.N,+5V*%
X10400000Y19558000D03*
%TD*%
D13*
%TO.P,C101,1*%
%TO.N,+5V*%
X6032500Y22352000D03*
%TO.P,C101,2*%
%TO.N,GND*%
X3873500Y22352000D03*
%TD*%
D11*
%TO.P,CON103,1,TCK*%
%TO.N,/TCK*%
X21590000Y27178000D03*
%TO.P,CON103,2,GND*%
%TO.N,GND*%
X24130000Y27178000D03*
%TO.P,CON103,3,TDO*%
%TO.N,/TDO*%
X21590000Y24638000D03*
%TO.P,CON103,4,Vcc*%
%TO.N,+3V3*%
X24130000Y24638000D03*
%TO.P,CON103,5,TMS*%
%TO.N,/TMS*%
X21590000Y22098000D03*
%TO.P,CON103,6,NC*%
%TO.N,unconnected-(CON103-NC-Pad6)*%
X24130000Y22098000D03*
%TO.P,CON103,7,NC*%
%TO.N,unconnected-(CON103-NC-Pad7)*%
X21590000Y19558000D03*
%TO.P,CON103,8,NC*%
%TO.N,unconnected-(CON103-NC-Pad8)*%
X24130000Y19558000D03*
%TO.P,CON103,9,TDI*%
%TO.N,/TDI*%
X21590000Y17018000D03*
%TO.P,CON103,10,GND*%
%TO.N,GND*%
X24130000Y17018000D03*
%TD*%
%TO.P,CON105,1,1*%
%TO.N,+5V*%
X8001000Y30988000D03*
%TO.P,CON105,2,2*%
%TO.N,GND*%
X10541000Y30988000D03*
%TD*%
D16*
%TO.N,GND*%
X8509000Y1981200D03*
X10795000Y3454400D03*
X16408400Y19583400D03*
%TO.N,+3V3*%
X12763500Y23558500D03*
%TD*%
D17*
%TO.N,+5V*%
X8021000Y26270000D02*
X6477000Y27814000D01*
X6477000Y27814000D02*
X6477000Y29464000D01*
X6032500Y22352000D02*
X9906000Y22352000D01*
X6477000Y29464000D02*
X8001000Y30988000D01*
X8021000Y26270000D02*
X6032500Y24281500D01*
X9906000Y22352000D02*
X10400000Y21858000D01*
X6032500Y19367500D02*
X5715000Y19050000D01*
X6032500Y22352000D02*
X6032500Y19367500D01*
X6032500Y24281500D02*
X6032500Y22352000D01*
X10400000Y21858000D02*
X10400000Y19558000D01*
%TO.N,GND*%
X16408400Y19558000D02*
X16433800Y19532600D01*
%TO.N,+3V3*%
X12700000Y13358000D02*
X9375000Y13358000D01*
X12763500Y23558500D02*
X12763500Y22225000D01*
X12763500Y22225000D02*
X12763500Y19621500D01*
X9375000Y13358000D02*
X8763000Y13970000D01*
X12700000Y19558000D02*
X12700000Y13358000D01*
X8763000Y13970000D02*
X5715000Y13970000D01*
X12763500Y19621500D02*
X12700000Y19558000D01*
D18*
%TO.N,/TDO*%
X13462000Y7289800D02*
X20904200Y14732000D01*
X20904200Y14732000D02*
X24333200Y14732000D01*
X21590000Y24638000D02*
X20142200Y26085800D01*
X13462000Y7289800D02*
X13462000Y5334000D01*
X20828000Y28676600D02*
X24815800Y28676600D01*
X25654000Y27838400D02*
X25654000Y16052800D01*
X24333200Y14732000D02*
X25654000Y16052800D01*
X24815800Y28676600D02*
X25654000Y27838400D01*
X20142200Y26085800D02*
X20142200Y27990800D01*
X20142200Y27990800D02*
X20828000Y28676600D01*
%TO.N,/TCK*%
X22860000Y25908000D02*
X21590000Y27178000D01*
X12522200Y6858000D02*
X20751800Y15087600D01*
X20751800Y15087600D02*
X21945600Y15087600D01*
X22860000Y16002000D02*
X22860000Y25908000D01*
X13462000Y4064000D02*
X12522200Y5003800D01*
X21945600Y15087600D02*
X22860000Y16002000D01*
X12522200Y5003800D02*
X12522200Y6858000D01*
D17*
%TO.N,VCC*%
X3683000Y12446000D02*
X3683000Y14478000D01*
X15240000Y4064000D02*
X16002000Y3302000D01*
X9652000Y6477000D02*
X3683000Y12446000D01*
X14884400Y1143000D02*
X10795000Y1143000D01*
X3683000Y14478000D02*
X5715000Y16510000D01*
X16002000Y3302000D02*
X16002000Y2260600D01*
X16002000Y2260600D02*
X14884400Y1143000D01*
X10795000Y1143000D02*
X9652000Y2286000D01*
X14732000Y4064000D02*
X15240000Y4064000D01*
X9652000Y2286000D02*
X9652000Y6477000D01*
D18*
%TO.N,/TDI*%
X12166600Y7035800D02*
X12166600Y4089400D01*
X21590000Y17018000D02*
X21590000Y16459200D01*
X12166600Y4089400D02*
X13462000Y2794000D01*
X21590000Y16459200D02*
X12166600Y7035800D01*
%TO.N,/TMS*%
X20167600Y15544800D02*
X11811000Y7188200D01*
X11811000Y3073400D02*
X12852011Y2032389D01*
X11811000Y7188200D02*
X11811000Y3073400D01*
X21590000Y22098000D02*
X20167600Y20675600D01*
X12852011Y2032389D02*
X13970389Y2032389D01*
X20167600Y20675600D02*
X20167600Y15544800D01*
X13970389Y2032389D02*
X14732000Y2794000D01*
%TD*%
%TA.AperFunction,Conductor*%
%TO.N,GND*%
G36*
X27908101Y32998935D02*
G01*
X27938165Y32946864D01*
X27939500Y32931600D01*
X27939500Y723400D01*
X27918935Y666899D01*
X27866864Y636835D01*
X27851600Y635500D01*
X15236395Y635500D01*
X15179894Y656065D01*
X15149830Y708136D01*
X15160271Y767350D01*
X15174236Y785552D01*
X15201994Y813309D01*
X15246286Y854405D01*
X15246287Y854406D01*
X15250395Y859557D01*
X15250589Y859403D01*
X15258830Y870146D01*
X16305720Y1917037D01*
X16309394Y1920319D01*
X16341308Y1945768D01*
X16375354Y1995706D01*
X16411230Y2044315D01*
X16414309Y2050140D01*
X16414529Y2050024D01*
X16416397Y2053726D01*
X16416172Y2053834D01*
X16419024Y2059759D01*
X16419031Y2059768D01*
X16436843Y2117515D01*
X16456800Y2174547D01*
X16456800Y2174552D01*
X16458026Y2181024D01*
X16458271Y2180978D01*
X16458965Y2185059D01*
X16458718Y2185096D01*
X16459700Y2191611D01*
X16459700Y2252052D01*
X16461959Y2312425D01*
X16461958Y2312430D01*
X16461222Y2318970D01*
X16461467Y2318998D01*
X16459700Y2332429D01*
X16459700Y3273824D01*
X16459977Y3278749D01*
X16464547Y3319307D01*
X16453311Y3378687D01*
X16444306Y3438433D01*
X16444305Y3438436D01*
X16442364Y3444729D01*
X16442601Y3444803D01*
X16441305Y3448740D01*
X16441070Y3448657D01*
X16438896Y3454868D01*
X16438895Y3454876D01*
X16410662Y3508295D01*
X16384441Y3562744D01*
X16384440Y3562745D01*
X16384440Y3562746D01*
X16380730Y3568188D01*
X16380933Y3568328D01*
X16378534Y3571710D01*
X16378335Y3571562D01*
X16374422Y3576864D01*
X16331704Y3619581D01*
X16290595Y3663886D01*
X16290592Y3663888D01*
X16285445Y3667993D01*
X16285599Y3668187D01*
X16274851Y3676434D01*
X15583564Y4367721D01*
X15580281Y4371395D01*
X15554832Y4403308D01*
X15548365Y4407717D01*
X15504894Y4437355D01*
X15456283Y4473232D01*
X15450461Y4476309D01*
X15450575Y4476526D01*
X15446865Y4478400D01*
X15446758Y4478177D01*
X15435262Y4483714D01*
X15398978Y4516142D01*
X15365595Y4569271D01*
X15365594Y4569272D01*
X15365593Y4569274D01*
X15237274Y4697593D01*
X15083618Y4794142D01*
X15083617Y4794143D01*
X15083616Y4794143D01*
X15083614Y4794144D01*
X15060582Y4802203D01*
X15027459Y4823015D01*
X14829326Y5021148D01*
X14844871Y5023888D01*
X14944129Y5081195D01*
X15017801Y5168993D01*
X15043079Y5238448D01*
X15362036Y4919491D01*
X15415629Y5004784D01*
X15415630Y5004786D01*
X15471746Y5165157D01*
X15471748Y5165163D01*
X15490771Y5333998D01*
X15490771Y5334003D01*
X15471748Y5502838D01*
X15471746Y5502844D01*
X15415630Y5663215D01*
X15415627Y5663221D01*
X15362036Y5748512D01*
X15043079Y5429555D01*
X15017801Y5499007D01*
X14944129Y5586805D01*
X14844871Y5644112D01*
X14829324Y5646854D01*
X15146509Y5964038D01*
X15061220Y6017628D01*
X15061214Y6017631D01*
X14900843Y6073747D01*
X14900837Y6073749D01*
X14732002Y6092771D01*
X14731998Y6092771D01*
X14563162Y6073749D01*
X14563156Y6073747D01*
X14402784Y6017631D01*
X14317489Y5964038D01*
X14634674Y5646853D01*
X14619129Y5644112D01*
X14519871Y5586805D01*
X14446199Y5499007D01*
X14420920Y5429554D01*
X14221014Y5629460D01*
X14200203Y5662581D01*
X14192142Y5685618D01*
X14095593Y5839274D01*
X13967274Y5967593D01*
X13967271Y5967595D01*
X13967270Y5967596D01*
X13897334Y6011540D01*
X13860435Y6059013D01*
X13856200Y6085967D01*
X13856200Y7090107D01*
X13876765Y7146608D01*
X13881945Y7152262D01*
X21041738Y14312055D01*
X21096232Y14337466D01*
X21103893Y14337800D01*
X24395634Y14337800D01*
X24395635Y14337800D01*
X24418929Y14345370D01*
X24432338Y14348589D01*
X24456533Y14352420D01*
X24478359Y14363542D01*
X24491097Y14368818D01*
X24514394Y14376387D01*
X24534215Y14390789D01*
X24545961Y14397987D01*
X24567793Y14409110D01*
X24656090Y14497407D01*
X25285217Y15126534D01*
X25954680Y15795996D01*
X25965785Y15807103D01*
X25976890Y15818207D01*
X25988011Y15840033D01*
X25995219Y15851795D01*
X26009613Y15871606D01*
X26017185Y15894913D01*
X26022454Y15907634D01*
X26033580Y15929467D01*
X26037412Y15953672D01*
X26040626Y15967059D01*
X26048200Y15990364D01*
X26048200Y16115235D01*
X26048200Y27869426D01*
X26048200Y27900835D01*
X26040630Y27924133D01*
X26037411Y27937543D01*
X26033580Y27961732D01*
X26033580Y27961733D01*
X26022457Y27983563D01*
X26017180Y27996304D01*
X26016938Y27997048D01*
X26009613Y28019594D01*
X25995214Y28039413D01*
X25988012Y28051166D01*
X25985141Y28056799D01*
X25976890Y28072993D01*
X25888593Y28161290D01*
X25564355Y28485528D01*
X25072604Y28977280D01*
X25050392Y28999491D01*
X25040346Y29004610D01*
X25028565Y29010613D01*
X25016814Y29017814D01*
X24996994Y29032213D01*
X24996991Y29032214D01*
X24973693Y29039785D01*
X24960958Y29045060D01*
X24939134Y29056180D01*
X24935507Y29056755D01*
X24914926Y29060015D01*
X24901535Y29063230D01*
X24878235Y29070800D01*
X24846826Y29070800D01*
X20890436Y29070800D01*
X20765565Y29070800D01*
X20765561Y29070800D01*
X20742264Y29063231D01*
X20728860Y29060013D01*
X20704666Y29056181D01*
X20704665Y29056180D01*
X20682838Y29045059D01*
X20670100Y29039783D01*
X20646806Y29032214D01*
X20626986Y29017815D01*
X20615234Y29010613D01*
X20593406Y28999490D01*
X19819310Y28225394D01*
X19808187Y28203566D01*
X19800985Y28191814D01*
X19786586Y28171994D01*
X19779017Y28148700D01*
X19773741Y28135962D01*
X19762620Y28114135D01*
X19762619Y28114134D01*
X19758787Y28089940D01*
X19755569Y28076536D01*
X19748000Y28053239D01*
X19748000Y28053235D01*
X19748000Y28021826D01*
X19748000Y26148235D01*
X19748000Y26023365D01*
X19755570Y26000065D01*
X19758785Y25986674D01*
X19761358Y25970436D01*
X19762620Y25962466D01*
X19773740Y25940642D01*
X19779015Y25927907D01*
X19784544Y25910894D01*
X19786587Y25904607D01*
X19786587Y25904605D01*
X19800986Y25884786D01*
X19808187Y25873035D01*
X19819309Y25851209D01*
X19819309Y25851208D01*
X19841520Y25828996D01*
X20567255Y25103262D01*
X20592666Y25048768D01*
X20589215Y25015591D01*
X20538144Y24847234D01*
X20538143Y24847229D01*
X20538143Y24847227D01*
X20517536Y24638000D01*
X20532157Y24489546D01*
X20538144Y24428767D01*
X20599170Y24227591D01*
X20599170Y24227590D01*
X20599171Y24227587D01*
X20599172Y24227586D01*
X20698279Y24042171D01*
X20831653Y23879653D01*
X20994171Y23746279D01*
X21179586Y23647172D01*
X21380773Y23586143D01*
X21590000Y23565536D01*
X21799227Y23586143D01*
X22000414Y23647172D01*
X22185829Y23746279D01*
X22322138Y23858145D01*
X22378859Y23878091D01*
X22435132Y23856911D01*
X22464626Y23804514D01*
X22465800Y23790196D01*
X22465800Y22945805D01*
X22445235Y22889304D01*
X22393164Y22859240D01*
X22333950Y22869681D01*
X22322137Y22877857D01*
X22185829Y22989721D01*
X22100136Y23035525D01*
X22000414Y23088828D01*
X22000413Y23088829D01*
X22000410Y23088830D01*
X21799233Y23149856D01*
X21799228Y23149857D01*
X21799227Y23149857D01*
X21590000Y23170464D01*
X21380773Y23149857D01*
X21380771Y23149857D01*
X21380766Y23149856D01*
X21179590Y23088830D01*
X21179589Y23088830D01*
X20994170Y22989721D01*
X20831655Y22856349D01*
X20831651Y22856345D01*
X20698279Y22693830D01*
X20599170Y22508411D01*
X20599170Y22508410D01*
X20538144Y22307234D01*
X20538143Y22307229D01*
X20538143Y22307227D01*
X20517536Y22098000D01*
X20537730Y21892965D01*
X20538144Y21888767D01*
X20589214Y21720410D01*
X20585936Y21660372D01*
X20567254Y21632739D01*
X19933007Y20998490D01*
X19844710Y20910194D01*
X19833587Y20888366D01*
X19826385Y20876614D01*
X19811986Y20856794D01*
X19804417Y20833500D01*
X19799141Y20820762D01*
X19788020Y20798935D01*
X19788019Y20798934D01*
X19784187Y20774740D01*
X19780969Y20761336D01*
X19773400Y20738039D01*
X19773400Y15744493D01*
X19752835Y15687992D01*
X19747655Y15682338D01*
X11488110Y7422794D01*
X11476987Y7400966D01*
X11469785Y7389214D01*
X11455386Y7369394D01*
X11447817Y7346100D01*
X11442541Y7333362D01*
X11431420Y7311535D01*
X11431419Y7311534D01*
X11427587Y7287340D01*
X11424369Y7273936D01*
X11416800Y7250639D01*
X11416800Y7250635D01*
X11416800Y7219226D01*
X11416800Y3135835D01*
X11416800Y3010965D01*
X11424370Y2987665D01*
X11427585Y2974274D01*
X11427942Y2972025D01*
X11431420Y2950066D01*
X11442540Y2928242D01*
X11447815Y2915507D01*
X11449228Y2911161D01*
X11455387Y2892207D01*
X11455387Y2892205D01*
X11469786Y2872386D01*
X11476987Y2860635D01*
X11488109Y2838809D01*
X11488109Y2838808D01*
X11510320Y2816596D01*
X12529120Y1797796D01*
X12576162Y1750755D01*
X12601573Y1696262D01*
X12586012Y1638183D01*
X12536759Y1603695D01*
X12514008Y1600700D01*
X11020996Y1600700D01*
X10964495Y1621265D01*
X10958841Y1626445D01*
X10135445Y2449841D01*
X10110034Y2504335D01*
X10109700Y2511996D01*
X10109700Y6448824D01*
X10109977Y6453749D01*
X10114547Y6494307D01*
X10103311Y6553687D01*
X10094306Y6613433D01*
X10094305Y6613436D01*
X10092364Y6619729D01*
X10092601Y6619803D01*
X10091305Y6623740D01*
X10091070Y6623657D01*
X10088896Y6629868D01*
X10088895Y6629876D01*
X10060662Y6683295D01*
X10034441Y6737744D01*
X10034440Y6737745D01*
X10034440Y6737746D01*
X10030730Y6743188D01*
X10030933Y6743328D01*
X10028534Y6746710D01*
X10028335Y6746562D01*
X10024422Y6751864D01*
X9981704Y6794581D01*
X9940595Y6838886D01*
X9940592Y6838888D01*
X9935445Y6842993D01*
X9935599Y6843187D01*
X9924851Y6851434D01*
X4166445Y12609840D01*
X4141034Y12664334D01*
X4140700Y12671995D01*
X4140700Y13970000D01*
X4642536Y13970000D01*
X4663144Y13760767D01*
X4724170Y13559591D01*
X4724170Y13559590D01*
X4724171Y13559587D01*
X4724172Y13559586D01*
X4823279Y13374171D01*
X4956653Y13211653D01*
X5119171Y13078279D01*
X5304586Y12979172D01*
X5304588Y12979172D01*
X5304589Y12979171D01*
X5489230Y12923161D01*
X5505773Y12918143D01*
X5715000Y12897536D01*
X5924227Y12918143D01*
X6125414Y12979172D01*
X6310829Y13078279D01*
X6473347Y13211653D01*
X6606721Y13374171D01*
X6655717Y13465837D01*
X6700488Y13505971D01*
X6733238Y13512300D01*
X8537004Y13512300D01*
X8593505Y13491735D01*
X8599159Y13486555D01*
X9031435Y13054280D01*
X9034719Y13050605D01*
X9060168Y13018692D01*
X9110105Y12984646D01*
X9158715Y12948770D01*
X9158720Y12948769D01*
X9164543Y12945690D01*
X9164426Y12945470D01*
X9168124Y12943604D01*
X9168233Y12943828D01*
X9174163Y12940973D01*
X9174168Y12940969D01*
X9231900Y12923161D01*
X9288947Y12903199D01*
X9288948Y12903199D01*
X9295425Y12901973D01*
X9295378Y12901728D01*
X9299458Y12901035D01*
X9299496Y12901282D01*
X9306011Y12900300D01*
X9366425Y12900300D01*
X9426825Y12898040D01*
X9426828Y12898042D01*
X9426830Y12898041D01*
X9433372Y12898777D01*
X9433399Y12898532D01*
X9446833Y12900300D01*
X10556801Y12900300D01*
X10613302Y12879735D01*
X10643366Y12827664D01*
X10644701Y12812400D01*
X10644701Y12212422D01*
X10647662Y12186891D01*
X10647662Y12186890D01*
X10647663Y12186888D01*
X10693042Y12084114D01*
X10693766Y12082475D01*
X10774475Y12001766D01*
X10878891Y11955662D01*
X10904421Y11952700D01*
X14495578Y11952701D01*
X14521109Y11955662D01*
X14625525Y12001766D01*
X14706234Y12082475D01*
X14752338Y12186891D01*
X14755300Y12212421D01*
X14755299Y14503578D01*
X14752338Y14529109D01*
X14706234Y14633525D01*
X14625525Y14714234D01*
X14593562Y14728347D01*
X14521110Y14760338D01*
X14521107Y14760339D01*
X14495590Y14763299D01*
X14495585Y14763300D01*
X14495579Y14763300D01*
X14495572Y14763300D01*
X13245600Y14763300D01*
X13189099Y14783865D01*
X13159035Y14835936D01*
X13157700Y14851200D01*
X13157700Y18064801D01*
X13178265Y18121302D01*
X13230336Y18151366D01*
X13245600Y18152701D01*
X13345575Y18152701D01*
X13345578Y18152701D01*
X13371109Y18155662D01*
X13475525Y18201766D01*
X13556234Y18282475D01*
X13602338Y18386891D01*
X13605300Y18412421D01*
X13605300Y18432982D01*
X14146001Y18432982D01*
X14160737Y18358894D01*
X14216875Y18274878D01*
X14216877Y18274876D01*
X14300894Y18218738D01*
X14374981Y18204001D01*
X14847600Y18204001D01*
X14847600Y18204002D01*
X15152400Y18204002D01*
X15152401Y18204001D01*
X15625018Y18204001D01*
X15699106Y18218738D01*
X15783122Y18274876D01*
X15783124Y18274878D01*
X15839262Y18358895D01*
X15854000Y18432985D01*
X15854000Y19405599D01*
X15853999Y19405600D01*
X15152401Y19405600D01*
X15152400Y19405599D01*
X15152400Y18204002D01*
X14847600Y18204002D01*
X14847600Y19405599D01*
X14847599Y19405600D01*
X14146002Y19405600D01*
X14146001Y19405599D01*
X14146001Y18432982D01*
X13605300Y18432982D01*
X13605299Y19710401D01*
X14146000Y19710401D01*
X14146001Y19710400D01*
X14847599Y19710400D01*
X14847600Y19710401D01*
X15152400Y19710401D01*
X15152401Y19710400D01*
X15853998Y19710400D01*
X15853999Y19710401D01*
X15853999Y20683019D01*
X15839262Y20757107D01*
X15783124Y20841123D01*
X15783122Y20841125D01*
X15699105Y20897263D01*
X15625015Y20912000D01*
X15152401Y20912000D01*
X15152400Y20911999D01*
X15152400Y19710401D01*
X14847600Y19710401D01*
X14847600Y20911999D01*
X14847599Y20912000D01*
X14374981Y20912000D01*
X14300893Y20897263D01*
X14216877Y20841125D01*
X14216875Y20841123D01*
X14160737Y20757106D01*
X14146000Y20683016D01*
X14146000Y19710401D01*
X13605299Y19710401D01*
X13605299Y20703578D01*
X13602338Y20729109D01*
X13556234Y20833525D01*
X13475525Y20914234D01*
X13475523Y20914235D01*
X13371110Y20960338D01*
X13371107Y20960339D01*
X13345590Y20963299D01*
X13345585Y20963300D01*
X13345579Y20963300D01*
X13345572Y20963300D01*
X13309100Y20963300D01*
X13252599Y20983865D01*
X13222535Y21035936D01*
X13221200Y21051200D01*
X13221200Y21196801D01*
X13241765Y21253302D01*
X13293836Y21283366D01*
X13309100Y21284701D01*
X13317075Y21284701D01*
X13317078Y21284701D01*
X13342609Y21287662D01*
X13447025Y21333766D01*
X13527734Y21414475D01*
X13573838Y21518891D01*
X13576800Y21544421D01*
X13576800Y21564982D01*
X14160501Y21564982D01*
X14175237Y21490894D01*
X14231375Y21406878D01*
X14231377Y21406876D01*
X14315394Y21350738D01*
X14389481Y21336001D01*
X14770100Y21336001D01*
X14770100Y21336002D01*
X15074900Y21336002D01*
X15074901Y21336001D01*
X15455518Y21336001D01*
X15529606Y21350738D01*
X15613622Y21406876D01*
X15613624Y21406878D01*
X15669762Y21490895D01*
X15684500Y21564985D01*
X15684500Y22072599D01*
X15684499Y22072600D01*
X15074901Y22072600D01*
X15074900Y22072599D01*
X15074900Y21336002D01*
X14770100Y21336002D01*
X14770100Y22072599D01*
X14770099Y22072600D01*
X14160502Y22072600D01*
X14160501Y22072599D01*
X14160501Y21564982D01*
X13576800Y21564982D01*
X13576799Y22377401D01*
X14160500Y22377401D01*
X14160501Y22377400D01*
X14770099Y22377400D01*
X14770100Y22377401D01*
X15074900Y22377401D01*
X15074901Y22377400D01*
X15684498Y22377400D01*
X15684499Y22377401D01*
X15684499Y22885019D01*
X15669762Y22959107D01*
X15613624Y23043123D01*
X15613622Y23043125D01*
X15529605Y23099263D01*
X15455515Y23114000D01*
X15074901Y23114000D01*
X15074900Y23113999D01*
X15074900Y22377401D01*
X14770100Y22377401D01*
X14770100Y23113999D01*
X14770099Y23114000D01*
X14389481Y23114000D01*
X14315393Y23099263D01*
X14231377Y23043125D01*
X14231375Y23043123D01*
X14175237Y22959106D01*
X14160500Y22885016D01*
X14160500Y22377401D01*
X13576799Y22377401D01*
X13576799Y22905578D01*
X13573838Y22931109D01*
X13527734Y23035525D01*
X13447025Y23116234D01*
X13342609Y23162338D01*
X13340997Y23162525D01*
X13326725Y23164181D01*
X13272971Y23191121D01*
X13249110Y23246311D01*
X13255646Y23285129D01*
X13308404Y23412493D01*
X13327626Y23558500D01*
X13308404Y23704507D01*
X13252047Y23840563D01*
X13252045Y23840566D01*
X13252042Y23840571D01*
X13162402Y23957391D01*
X13162400Y23957393D01*
X13162397Y23957397D01*
X13162392Y23957401D01*
X13162390Y23957403D01*
X13045570Y24047043D01*
X13045563Y24047047D01*
X12909507Y24103404D01*
X12763500Y24122626D01*
X12617492Y24103404D01*
X12481436Y24047047D01*
X12481429Y24047043D01*
X12364609Y23957403D01*
X12364597Y23957391D01*
X12274957Y23840571D01*
X12274953Y23840564D01*
X12218596Y23704508D01*
X12199374Y23558501D01*
X12199374Y23558500D01*
X12218596Y23412493D01*
X12271351Y23285133D01*
X12273974Y23225063D01*
X12237371Y23177361D01*
X12200271Y23164181D01*
X12184398Y23162340D01*
X12184387Y23162337D01*
X12079976Y23116235D01*
X11999265Y23035524D01*
X11953162Y22931111D01*
X11953161Y22931108D01*
X11950201Y22905591D01*
X11950200Y22905572D01*
X11950200Y21544426D01*
X11951424Y21533878D01*
X11953162Y21518891D01*
X11953162Y21518890D01*
X11953163Y21518888D01*
X11999183Y21414663D01*
X11999266Y21414475D01*
X12079975Y21333766D01*
X12184391Y21287662D01*
X12209921Y21284700D01*
X12217894Y21284701D01*
X12274395Y21264142D01*
X12304463Y21212073D01*
X12305800Y21196801D01*
X12305800Y21051200D01*
X12285235Y20994699D01*
X12233164Y20964635D01*
X12217901Y20963300D01*
X12054424Y20963300D01*
X12028892Y20960339D01*
X12028887Y20960337D01*
X11924476Y20914235D01*
X11843765Y20833524D01*
X11797662Y20729111D01*
X11797661Y20729108D01*
X11794701Y20703591D01*
X11794700Y20703572D01*
X11794700Y18412426D01*
X11794701Y18412421D01*
X11797662Y18386891D01*
X11797662Y18386890D01*
X11797663Y18386888D01*
X11839714Y18291652D01*
X11843766Y18282475D01*
X11924475Y18201766D01*
X12028891Y18155662D01*
X12054421Y18152700D01*
X12154400Y18152701D01*
X12210900Y18132137D01*
X12240964Y18080066D01*
X12242300Y18064801D01*
X12242300Y14851200D01*
X12221735Y14794699D01*
X12169664Y14764635D01*
X12154400Y14763300D01*
X10904425Y14763300D01*
X10882747Y14760786D01*
X10878891Y14760338D01*
X10878890Y14760338D01*
X10878887Y14760337D01*
X10774476Y14714235D01*
X10693765Y14633524D01*
X10647662Y14529111D01*
X10647661Y14529108D01*
X10644701Y14503591D01*
X10644700Y14503572D01*
X10644700Y13903600D01*
X10624135Y13847099D01*
X10572064Y13817035D01*
X10556800Y13815700D01*
X9600995Y13815700D01*
X9544494Y13836265D01*
X9538840Y13841445D01*
X9106564Y14273721D01*
X9103281Y14277395D01*
X9077832Y14309308D01*
X9027894Y14343355D01*
X8979283Y14379232D01*
X8973461Y14382309D01*
X8973575Y14382526D01*
X8969868Y14384398D01*
X8969762Y14384175D01*
X8963830Y14387032D01*
X8906085Y14404844D01*
X8849052Y14424801D01*
X8842583Y14426025D01*
X8842628Y14426266D01*
X8838535Y14426962D01*
X8838499Y14426719D01*
X8831990Y14427700D01*
X8831987Y14427700D01*
X8771563Y14427700D01*
X8711175Y14429960D01*
X8711174Y14429960D01*
X8711168Y14429960D01*
X8704628Y14429223D01*
X8704600Y14429469D01*
X8691167Y14427700D01*
X6733238Y14427700D01*
X6676737Y14448265D01*
X6655717Y14474164D01*
X6649089Y14486564D01*
X6606721Y14565829D01*
X6473347Y14728347D01*
X6310829Y14861721D01*
X6125414Y14960828D01*
X6125413Y14960829D01*
X6125410Y14960830D01*
X5924233Y15021856D01*
X5924228Y15021857D01*
X5924227Y15021857D01*
X5715000Y15042464D01*
X5505773Y15021857D01*
X5505771Y15021857D01*
X5505766Y15021856D01*
X5304590Y14960830D01*
X5304589Y14960830D01*
X5119170Y14861721D01*
X4956655Y14728349D01*
X4956651Y14728345D01*
X4823279Y14565830D01*
X4724170Y14380411D01*
X4724170Y14380410D01*
X4663144Y14179234D01*
X4642536Y13970000D01*
X4140700Y13970000D01*
X4140700Y14252006D01*
X4161265Y14308507D01*
X4166434Y14314150D01*
X5318639Y15466356D01*
X5373132Y15491766D01*
X5406309Y15488315D01*
X5505766Y15458145D01*
X5505773Y15458143D01*
X5715000Y15437536D01*
X5924227Y15458143D01*
X6125414Y15519172D01*
X6310829Y15618279D01*
X6473347Y15751653D01*
X6606721Y15914171D01*
X6705828Y16099586D01*
X6766857Y16300773D01*
X6787464Y16510000D01*
X6766857Y16719227D01*
X6705828Y16920414D01*
X6606721Y17105829D01*
X6473347Y17268347D01*
X6310829Y17401721D01*
X6125414Y17500828D01*
X6125413Y17500829D01*
X6125410Y17500830D01*
X5924233Y17561856D01*
X5924228Y17561857D01*
X5924227Y17561857D01*
X5715000Y17582464D01*
X5505773Y17561857D01*
X5505771Y17561857D01*
X5505766Y17561856D01*
X5304590Y17500830D01*
X5304589Y17500830D01*
X5119170Y17401721D01*
X4956655Y17268349D01*
X4956651Y17268345D01*
X4823279Y17105830D01*
X4724170Y16920411D01*
X4724170Y16920410D01*
X4663144Y16719234D01*
X4663143Y16719229D01*
X4663143Y16719227D01*
X4642536Y16510000D01*
X4660762Y16324944D01*
X4663144Y16300767D01*
X4693314Y16201312D01*
X4690036Y16141275D01*
X4671354Y16113641D01*
X3379279Y14821568D01*
X3375603Y14818282D01*
X3343695Y14792836D01*
X3343689Y14792829D01*
X3309645Y14742895D01*
X3273768Y14694284D01*
X3270692Y14688463D01*
X3270476Y14688578D01*
X3268604Y14684871D01*
X3268825Y14684764D01*
X3265970Y14678836D01*
X3248156Y14621086D01*
X3228199Y14564055D01*
X3226975Y14557583D01*
X3226734Y14557629D01*
X3226039Y14553539D01*
X3226281Y14553502D01*
X3225300Y14546990D01*
X3225300Y14546987D01*
X3225300Y14486564D01*
X3223044Y14426266D01*
X3223040Y14426169D01*
X3223777Y14419628D01*
X3223531Y14419601D01*
X3225300Y14406168D01*
X3225300Y12474177D01*
X3225023Y12469252D01*
X3220453Y12428693D01*
X3231688Y12369314D01*
X3240693Y12309571D01*
X3242636Y12303274D01*
X3242398Y12303201D01*
X3243695Y12299260D01*
X3243929Y12299341D01*
X3246104Y12293125D01*
X3246105Y12293124D01*
X3274339Y12239701D01*
X3300560Y12185253D01*
X3304270Y12179812D01*
X3304067Y12179674D01*
X3306467Y12176292D01*
X3306665Y12176437D01*
X3310573Y12171142D01*
X3310574Y12171141D01*
X3310576Y12171138D01*
X3353308Y12128406D01*
X3394407Y12084112D01*
X3399557Y12080005D01*
X3399401Y12079811D01*
X3410146Y12071568D01*
X9168555Y6313160D01*
X9193966Y6258666D01*
X9194300Y6251005D01*
X9194300Y2314177D01*
X9194023Y2309252D01*
X9189453Y2268693D01*
X9192602Y2252052D01*
X9200688Y2209314D01*
X9209693Y2149571D01*
X9211636Y2143274D01*
X9211398Y2143201D01*
X9212695Y2139260D01*
X9212929Y2139341D01*
X9215104Y2133125D01*
X9215105Y2133124D01*
X9243339Y2079701D01*
X9255796Y2053834D01*
X9269560Y2025253D01*
X9273270Y2019812D01*
X9273067Y2019674D01*
X9275467Y2016292D01*
X9275665Y2016437D01*
X9279573Y2011142D01*
X9279574Y2011141D01*
X9279576Y2011138D01*
X9305446Y1985268D01*
X9322308Y1968406D01*
X9363407Y1924112D01*
X9368557Y1920005D01*
X9368401Y1919811D01*
X9379146Y1911568D01*
X10451435Y839280D01*
X10454722Y835601D01*
X10480168Y803692D01*
X10491411Y796027D01*
X10526510Y747208D01*
X10522018Y687249D01*
X10480035Y644205D01*
X10441896Y635500D01*
X723400Y635500D01*
X666899Y656065D01*
X636835Y708136D01*
X635500Y723400D01*
X635500Y19050000D01*
X4642536Y19050000D01*
X4651505Y18958932D01*
X4663144Y18840767D01*
X4724170Y18639591D01*
X4724170Y18639590D01*
X4724171Y18639587D01*
X4724172Y18639586D01*
X4823279Y18454171D01*
X4956653Y18291653D01*
X5119171Y18158279D01*
X5304586Y18059172D01*
X5304588Y18059172D01*
X5304589Y18059171D01*
X5436033Y18019298D01*
X5505773Y17998143D01*
X5715000Y17977536D01*
X5924227Y17998143D01*
X6125414Y18059172D01*
X6310829Y18158279D01*
X6473347Y18291653D01*
X6606721Y18454171D01*
X6705828Y18639586D01*
X6766857Y18840773D01*
X6787464Y19050000D01*
X6766857Y19259227D01*
X6705828Y19460414D01*
X6606721Y19645829D01*
X6606718Y19645833D01*
X6510152Y19763502D01*
X6490200Y19819264D01*
X6490200Y21323801D01*
X6510765Y21380302D01*
X6562836Y21410366D01*
X6578100Y21411701D01*
X6586075Y21411701D01*
X6586078Y21411701D01*
X6611609Y21414662D01*
X6716025Y21460766D01*
X6796734Y21541475D01*
X6842838Y21645891D01*
X6845800Y21671421D01*
X6845800Y21806400D01*
X6866365Y21862901D01*
X6918436Y21892965D01*
X6933700Y21894300D01*
X9680004Y21894300D01*
X9736505Y21873735D01*
X9742159Y21868555D01*
X9916555Y21694159D01*
X9941966Y21639665D01*
X9942300Y21632004D01*
X9942300Y21051200D01*
X9921735Y20994699D01*
X9869664Y20964635D01*
X9854401Y20963300D01*
X9754424Y20963300D01*
X9728892Y20960339D01*
X9728887Y20960337D01*
X9624476Y20914235D01*
X9543765Y20833524D01*
X9497662Y20729111D01*
X9497661Y20729108D01*
X9494701Y20703591D01*
X9494700Y20703572D01*
X9494700Y18412426D01*
X9494701Y18412421D01*
X9497662Y18386891D01*
X9497662Y18386890D01*
X9497663Y18386888D01*
X9539714Y18291652D01*
X9543766Y18282475D01*
X9624475Y18201766D01*
X9728891Y18155662D01*
X9754421Y18152700D01*
X11045578Y18152701D01*
X11071109Y18155662D01*
X11175525Y18201766D01*
X11256234Y18282475D01*
X11302338Y18386891D01*
X11305300Y18412421D01*
X11305299Y20703578D01*
X11302338Y20729109D01*
X11256234Y20833525D01*
X11175525Y20914234D01*
X11175523Y20914235D01*
X11071110Y20960338D01*
X11071107Y20960339D01*
X11045590Y20963299D01*
X11045585Y20963300D01*
X11045579Y20963300D01*
X11045572Y20963300D01*
X10945600Y20963300D01*
X10889099Y20983865D01*
X10859035Y21035936D01*
X10857700Y21051200D01*
X10857700Y21829830D01*
X10857977Y21834756D01*
X10862546Y21875307D01*
X10851313Y21934671D01*
X10851313Y21934672D01*
X10842306Y21994433D01*
X10842304Y21994436D01*
X10840364Y22000729D01*
X10840601Y22000803D01*
X10839304Y22004744D01*
X10839069Y22004661D01*
X10836896Y22010870D01*
X10836895Y22010876D01*
X10808660Y22064300D01*
X10782441Y22118744D01*
X10782438Y22118747D01*
X10782438Y22118748D01*
X10778730Y22124188D01*
X10778935Y22124328D01*
X10776533Y22127713D01*
X10776333Y22127565D01*
X10772421Y22132866D01*
X10729692Y22175594D01*
X10688595Y22219886D01*
X10688591Y22219889D01*
X10683447Y22223991D01*
X10683601Y22224185D01*
X10672853Y22232433D01*
X10249563Y22655722D01*
X10246288Y22659387D01*
X10220832Y22691308D01*
X10217134Y22693829D01*
X10170894Y22725355D01*
X10122283Y22761232D01*
X10116461Y22764309D01*
X10116575Y22764526D01*
X10112868Y22766398D01*
X10112762Y22766175D01*
X10106830Y22769032D01*
X10049085Y22786844D01*
X9992052Y22806801D01*
X9985583Y22808025D01*
X9985628Y22808266D01*
X9981535Y22808962D01*
X9981499Y22808719D01*
X9974990Y22809700D01*
X9974987Y22809700D01*
X9914563Y22809700D01*
X9854175Y22811960D01*
X9854174Y22811960D01*
X9854168Y22811960D01*
X9847628Y22811223D01*
X9847600Y22811469D01*
X9834167Y22809700D01*
X6933699Y22809700D01*
X6877198Y22830265D01*
X6847134Y22882336D01*
X6845799Y22897600D01*
X6845799Y23032575D01*
X6845457Y23035525D01*
X6842838Y23058109D01*
X6796734Y23162525D01*
X6716025Y23243234D01*
X6716023Y23243235D01*
X6611610Y23289338D01*
X6611607Y23289339D01*
X6586090Y23292299D01*
X6586085Y23292300D01*
X6586079Y23292300D01*
X6586072Y23292300D01*
X6578100Y23292300D01*
X6521599Y23312865D01*
X6491535Y23364936D01*
X6490200Y23380200D01*
X6490200Y24055506D01*
X6510765Y24112007D01*
X6515934Y24117650D01*
X7624639Y25226356D01*
X7679132Y25251766D01*
X7712309Y25248315D01*
X7811766Y25218145D01*
X7811773Y25218143D01*
X8021000Y25197536D01*
X8230227Y25218143D01*
X8431414Y25279172D01*
X8616829Y25378279D01*
X8779347Y25511653D01*
X8912721Y25674171D01*
X9011828Y25859586D01*
X9072857Y26060773D01*
X9093464Y26270000D01*
X9448536Y26270000D01*
X9466344Y26089190D01*
X9469144Y26060767D01*
X9530170Y25859591D01*
X9530170Y25859590D01*
X9530171Y25859587D01*
X9530172Y25859586D01*
X9629279Y25674171D01*
X9762653Y25511653D01*
X9925171Y25378279D01*
X10110586Y25279172D01*
X10110588Y25279172D01*
X10110589Y25279171D01*
X10260062Y25233829D01*
X10311773Y25218143D01*
X10521000Y25197536D01*
X10730227Y25218143D01*
X10931414Y25279172D01*
X11116829Y25378279D01*
X11279347Y25511653D01*
X11412721Y25674171D01*
X11511828Y25859586D01*
X11572857Y26060773D01*
X11593464Y26270000D01*
X11572857Y26479227D01*
X11511828Y26680414D01*
X11412721Y26865829D01*
X11279347Y27028347D01*
X11116829Y27161721D01*
X11059282Y27192481D01*
X11019149Y27237250D01*
X11017182Y27297345D01*
X11054303Y27344645D01*
X11059269Y27347513D01*
X11116829Y27378279D01*
X11279347Y27511653D01*
X11412721Y27674171D01*
X11511828Y27859586D01*
X11572857Y28060773D01*
X11593464Y28270000D01*
X11572857Y28479227D01*
X11511828Y28680414D01*
X11412721Y28865829D01*
X11279347Y29028347D01*
X11116829Y29161721D01*
X10931414Y29260828D01*
X10931413Y29260829D01*
X10931410Y29260830D01*
X10730233Y29321856D01*
X10730228Y29321857D01*
X10730227Y29321857D01*
X10521000Y29342464D01*
X10311773Y29321857D01*
X10311771Y29321857D01*
X10311766Y29321856D01*
X10110590Y29260830D01*
X10110589Y29260830D01*
X9925170Y29161721D01*
X9762655Y29028349D01*
X9762651Y29028345D01*
X9629279Y28865830D01*
X9530170Y28680411D01*
X9530170Y28680410D01*
X9469144Y28479234D01*
X9469143Y28479229D01*
X9469143Y28479227D01*
X9448536Y28270000D01*
X9468153Y28070823D01*
X9469144Y28060767D01*
X9530170Y27859591D01*
X9530170Y27859590D01*
X9530171Y27859587D01*
X9530172Y27859586D01*
X9629279Y27674171D01*
X9762653Y27511653D01*
X9925171Y27378279D01*
X9982715Y27347521D01*
X10022850Y27302749D01*
X10024817Y27242654D01*
X9987696Y27195355D01*
X9982715Y27192479D01*
X9925170Y27161721D01*
X9762655Y27028349D01*
X9762651Y27028345D01*
X9629279Y26865830D01*
X9530170Y26680411D01*
X9530170Y26680410D01*
X9469144Y26479234D01*
X9469143Y26479229D01*
X9469143Y26479227D01*
X9448536Y26270000D01*
X9093464Y26270000D01*
X9072857Y26479227D01*
X9011828Y26680414D01*
X8912721Y26865829D01*
X8779347Y27028347D01*
X8616829Y27161721D01*
X8504870Y27221565D01*
X8464737Y27266334D01*
X8462770Y27326429D01*
X8499891Y27373729D01*
X8504872Y27376605D01*
X8588194Y27421142D01*
X8624519Y27450954D01*
X8624519Y27450955D01*
X8256426Y27819048D01*
X8298470Y27838248D01*
X8408869Y27933910D01*
X8472932Y28033595D01*
X8840046Y27666481D01*
X8869858Y27702806D01*
X8964203Y27879314D01*
X9022297Y28070823D01*
X9041915Y28270000D01*
X9022297Y28469178D01*
X8964203Y28660687D01*
X8869860Y28837192D01*
X8840046Y28873521D01*
X8472931Y28506407D01*
X8408869Y28606090D01*
X8298470Y28701752D01*
X8256424Y28720954D01*
X8624519Y29089048D01*
X8588191Y29118861D01*
X8411686Y29213204D01*
X8220177Y29271298D01*
X8021000Y29290916D01*
X7821822Y29271298D01*
X7630313Y29213204D01*
X7630309Y29213203D01*
X7453813Y29118865D01*
X7417479Y29089048D01*
X7785574Y28720953D01*
X7743530Y28701752D01*
X7633131Y28606090D01*
X7569067Y28506406D01*
X7201952Y28873521D01*
X7172135Y28837187D01*
X7100121Y28702455D01*
X7055350Y28662319D01*
X6995255Y28660351D01*
X6947955Y28697472D01*
X6934700Y28743890D01*
X6934700Y29238005D01*
X6955265Y29294506D01*
X6960434Y29300149D01*
X7604640Y29944356D01*
X7659133Y29969766D01*
X7692306Y29966316D01*
X7791773Y29936143D01*
X8001000Y29915536D01*
X8210227Y29936143D01*
X8411414Y29997172D01*
X8596829Y30096279D01*
X8759347Y30229653D01*
X8892721Y30392171D01*
X8991828Y30577586D01*
X9052857Y30778773D01*
X9073464Y30988000D01*
X9520084Y30988000D01*
X9539702Y30788823D01*
X9597796Y30597314D01*
X9692139Y30420809D01*
X9721952Y30384481D01*
X10089066Y30751596D01*
X10153131Y30651910D01*
X10263530Y30556248D01*
X10305573Y30537048D01*
X9937479Y30168954D01*
X9973808Y30139140D01*
X10150313Y30044797D01*
X10341822Y29986703D01*
X10541000Y29967085D01*
X10740177Y29986703D01*
X10931686Y30044797D01*
X11108194Y30139142D01*
X11144519Y30168954D01*
X10776426Y30537048D01*
X10818470Y30556248D01*
X10928869Y30651910D01*
X10992932Y30751595D01*
X11360046Y30384481D01*
X11389858Y30420806D01*
X11484203Y30597314D01*
X11542297Y30788823D01*
X11561127Y30979998D01*
X13532082Y30979998D01*
X13551727Y30717850D01*
X13551729Y30717842D01*
X13610225Y30461554D01*
X13610227Y30461549D01*
X13706269Y30216835D01*
X13706270Y30216834D01*
X13837716Y29989164D01*
X13947264Y29851794D01*
X14363558Y30268088D01*
X14502782Y30115366D01*
X14582039Y30055514D01*
X14161663Y29635137D01*
X14194327Y29604828D01*
X14194333Y29604823D01*
X14411535Y29456736D01*
X14411545Y29456730D01*
X14648391Y29342671D01*
X14899608Y29265182D01*
X15159553Y29226001D01*
X15159561Y29226000D01*
X15422439Y29226000D01*
X15422446Y29226001D01*
X15682391Y29265182D01*
X15933608Y29342671D01*
X16170454Y29456730D01*
X16170464Y29456736D01*
X16387669Y29604825D01*
X16420335Y29635137D01*
X15999959Y30055513D01*
X16079218Y30115366D01*
X16218441Y30268087D01*
X16634734Y29851794D01*
X16744283Y29989164D01*
X16875729Y30216834D01*
X16875730Y30216835D01*
X16971772Y30461549D01*
X16971774Y30461554D01*
X17030270Y30717842D01*
X17030272Y30717850D01*
X17049918Y30979998D01*
X17049918Y30980003D01*
X17030272Y31242151D01*
X17030270Y31242159D01*
X16971774Y31498447D01*
X16971772Y31498452D01*
X16875730Y31743166D01*
X16875729Y31743167D01*
X16744283Y31970837D01*
X16634733Y32108208D01*
X16218439Y31691915D01*
X16079218Y31844634D01*
X15999958Y31904488D01*
X16420335Y32324865D01*
X16387672Y32355173D01*
X16387666Y32355178D01*
X16170464Y32503265D01*
X16170454Y32503271D01*
X15933608Y32617330D01*
X15682391Y32694819D01*
X15422446Y32734000D01*
X15159553Y32734000D01*
X14899608Y32694819D01*
X14648391Y32617330D01*
X14411545Y32503271D01*
X14411535Y32503265D01*
X14194334Y32355179D01*
X14194328Y32355174D01*
X14161663Y32324865D01*
X14582040Y31904488D01*
X14502782Y31844634D01*
X14363558Y31691914D01*
X13947264Y32108208D01*
X13947263Y32108208D01*
X13837721Y31970844D01*
X13837716Y31970837D01*
X13706270Y31743167D01*
X13706269Y31743166D01*
X13610227Y31498452D01*
X13610225Y31498447D01*
X13551729Y31242159D01*
X13551727Y31242151D01*
X13532082Y30980003D01*
X13532082Y30979998D01*
X11561127Y30979998D01*
X11561915Y30988000D01*
X11542297Y31187178D01*
X11484203Y31378687D01*
X11389860Y31555192D01*
X11360046Y31591521D01*
X10992931Y31224407D01*
X10928869Y31324090D01*
X10818470Y31419752D01*
X10776424Y31438954D01*
X11144519Y31807048D01*
X11108191Y31836861D01*
X10931686Y31931204D01*
X10740177Y31989298D01*
X10541000Y32008916D01*
X10341822Y31989298D01*
X10150313Y31931204D01*
X10150309Y31931203D01*
X9973813Y31836865D01*
X9937479Y31807048D01*
X10305574Y31438953D01*
X10263530Y31419752D01*
X10153131Y31324090D01*
X10089067Y31224406D01*
X9721952Y31591521D01*
X9692135Y31555187D01*
X9597797Y31378691D01*
X9597796Y31378687D01*
X9539702Y31187178D01*
X9520084Y30988000D01*
X9073464Y30988000D01*
X9052857Y31197227D01*
X8991828Y31398414D01*
X8892721Y31583829D01*
X8759347Y31746347D01*
X8596829Y31879721D01*
X8411414Y31978828D01*
X8411413Y31978829D01*
X8411410Y31978830D01*
X8210233Y32039856D01*
X8210228Y32039857D01*
X8210227Y32039857D01*
X8001000Y32060464D01*
X7791773Y32039857D01*
X7791771Y32039857D01*
X7791766Y32039856D01*
X7590590Y31978830D01*
X7590589Y31978830D01*
X7405170Y31879721D01*
X7242655Y31746349D01*
X7242651Y31746345D01*
X7109279Y31583830D01*
X7010170Y31398411D01*
X7010170Y31398410D01*
X6949144Y31197234D01*
X6949143Y31197229D01*
X6949143Y31197227D01*
X6928536Y30988000D01*
X6948153Y30788823D01*
X6949144Y30778767D01*
X6979314Y30679312D01*
X6976036Y30619275D01*
X6957354Y30591641D01*
X6173277Y29807565D01*
X6169599Y29804278D01*
X6137697Y29778838D01*
X6137690Y29778830D01*
X6103645Y29728895D01*
X6067768Y29680284D01*
X6064692Y29674463D01*
X6064476Y29674578D01*
X6062604Y29670871D01*
X6062825Y29670764D01*
X6059970Y29664836D01*
X6042156Y29607086D01*
X6022199Y29550055D01*
X6020975Y29543583D01*
X6020734Y29543629D01*
X6020039Y29539539D01*
X6020281Y29539502D01*
X6019300Y29532990D01*
X6019300Y29472564D01*
X6017040Y29412169D01*
X6017777Y29405628D01*
X6017531Y29405601D01*
X6019300Y29392168D01*
X6019300Y27842177D01*
X6019023Y27837252D01*
X6015375Y27804873D01*
X6014453Y27796693D01*
X6018779Y27773830D01*
X6025688Y27737314D01*
X6034693Y27677571D01*
X6036636Y27671274D01*
X6036398Y27671201D01*
X6037695Y27667260D01*
X6037929Y27667341D01*
X6040104Y27661125D01*
X6051952Y27638707D01*
X6068339Y27607701D01*
X6077629Y27588411D01*
X6094560Y27553253D01*
X6098270Y27547812D01*
X6098067Y27547674D01*
X6100467Y27544292D01*
X6100665Y27544437D01*
X6104573Y27539142D01*
X6104574Y27539141D01*
X6104576Y27539138D01*
X6127642Y27516072D01*
X6147308Y27496406D01*
X6188407Y27452112D01*
X6193557Y27448005D01*
X6193401Y27447811D01*
X6204146Y27439568D01*
X6977354Y26666361D01*
X7002765Y26611867D01*
X6999314Y26578690D01*
X6969145Y26479236D01*
X6969143Y26479229D01*
X6969143Y26479227D01*
X6948536Y26270000D01*
X6966344Y26089190D01*
X6969144Y26060767D01*
X6999314Y25961312D01*
X6996036Y25901275D01*
X6977354Y25873641D01*
X5728781Y24625069D01*
X5725105Y24621783D01*
X5709840Y24609609D01*
X5693192Y24596332D01*
X5693191Y24596331D01*
X5693189Y24596329D01*
X5676562Y24571942D01*
X5659145Y24546395D01*
X5643284Y24524905D01*
X5623268Y24497784D01*
X5620192Y24491963D01*
X5619976Y24492078D01*
X5618104Y24488371D01*
X5618325Y24488264D01*
X5615470Y24482336D01*
X5597656Y24424586D01*
X5577699Y24367555D01*
X5576475Y24361083D01*
X5576234Y24361129D01*
X5575539Y24357039D01*
X5575781Y24357002D01*
X5574800Y24350490D01*
X5574800Y24290064D01*
X5572540Y24229669D01*
X5573277Y24223128D01*
X5573031Y24223101D01*
X5574800Y24209668D01*
X5574800Y23380200D01*
X5554235Y23323699D01*
X5502164Y23293635D01*
X5486908Y23292300D01*
X5478926Y23292300D01*
X5453392Y23289339D01*
X5453387Y23289337D01*
X5348976Y23243235D01*
X5268265Y23162524D01*
X5222162Y23058111D01*
X5222161Y23058108D01*
X5219201Y23032591D01*
X5219200Y23032572D01*
X5219200Y21671426D01*
X5221267Y21653605D01*
X5222162Y21645891D01*
X5222162Y21645890D01*
X5222163Y21645888D01*
X5257885Y21564985D01*
X5268266Y21541475D01*
X5348975Y21460766D01*
X5453391Y21414662D01*
X5478921Y21411700D01*
X5486894Y21411701D01*
X5543395Y21391142D01*
X5573463Y21339073D01*
X5574800Y21323801D01*
X5574800Y20187726D01*
X5554235Y20131225D01*
X5509425Y20104692D01*
X5509905Y20103111D01*
X5304590Y20040830D01*
X5304589Y20040830D01*
X5119170Y19941721D01*
X4956655Y19808349D01*
X4956651Y19808345D01*
X4823279Y19645830D01*
X4724170Y19460411D01*
X4724170Y19460410D01*
X4663144Y19259234D01*
X4663143Y19259229D01*
X4663143Y19259227D01*
X4642536Y19050000D01*
X635500Y19050000D01*
X635500Y21691982D01*
X3111501Y21691982D01*
X3126237Y21617894D01*
X3182375Y21533878D01*
X3182377Y21533876D01*
X3266394Y21477738D01*
X3340481Y21463001D01*
X3721100Y21463001D01*
X3721100Y21463002D01*
X4025900Y21463002D01*
X4025901Y21463001D01*
X4406518Y21463001D01*
X4480606Y21477738D01*
X4564622Y21533876D01*
X4564624Y21533878D01*
X4620762Y21617895D01*
X4635500Y21691985D01*
X4635500Y22199599D01*
X4635499Y22199600D01*
X4025901Y22199600D01*
X4025900Y22199599D01*
X4025900Y21463002D01*
X3721100Y21463002D01*
X3721100Y22199599D01*
X3721099Y22199600D01*
X3111502Y22199600D01*
X3111501Y22199599D01*
X3111501Y21691982D01*
X635500Y21691982D01*
X635500Y22504401D01*
X3111500Y22504401D01*
X3111501Y22504400D01*
X3721099Y22504400D01*
X3721100Y22504401D01*
X4025900Y22504401D01*
X4025901Y22504400D01*
X4635498Y22504400D01*
X4635499Y22504401D01*
X4635499Y23012019D01*
X4620762Y23086107D01*
X4564624Y23170123D01*
X4564622Y23170125D01*
X4480605Y23226263D01*
X4406515Y23241000D01*
X4025901Y23241000D01*
X4025900Y23240999D01*
X4025900Y22504401D01*
X3721100Y22504401D01*
X3721100Y23240999D01*
X3721099Y23241000D01*
X3340481Y23241000D01*
X3266393Y23226263D01*
X3182377Y23170125D01*
X3182375Y23170123D01*
X3126237Y23086106D01*
X3111500Y23012016D01*
X3111500Y22504401D01*
X635500Y22504401D01*
X635500Y30979998D01*
X1492082Y30979998D01*
X1511727Y30717850D01*
X1511729Y30717842D01*
X1570225Y30461554D01*
X1570227Y30461549D01*
X1666269Y30216835D01*
X1666270Y30216834D01*
X1797716Y29989164D01*
X1907264Y29851794D01*
X2323558Y30268088D01*
X2462782Y30115366D01*
X2542039Y30055514D01*
X2121663Y29635137D01*
X2154327Y29604828D01*
X2154333Y29604823D01*
X2371535Y29456736D01*
X2371545Y29456730D01*
X2608391Y29342671D01*
X2859608Y29265182D01*
X3119553Y29226001D01*
X3119561Y29226000D01*
X3382439Y29226000D01*
X3382446Y29226001D01*
X3642391Y29265182D01*
X3893608Y29342671D01*
X4130454Y29456730D01*
X4130464Y29456736D01*
X4347669Y29604825D01*
X4380335Y29635137D01*
X3959959Y30055513D01*
X4039218Y30115366D01*
X4178441Y30268087D01*
X4594734Y29851794D01*
X4704283Y29989164D01*
X4835729Y30216834D01*
X4835730Y30216835D01*
X4931772Y30461549D01*
X4931774Y30461554D01*
X4990270Y30717842D01*
X4990272Y30717850D01*
X5009918Y30979998D01*
X5009918Y30980003D01*
X4990272Y31242151D01*
X4990270Y31242159D01*
X4931774Y31498447D01*
X4931772Y31498452D01*
X4835730Y31743166D01*
X4835729Y31743167D01*
X4704283Y31970837D01*
X4594733Y32108208D01*
X4178439Y31691915D01*
X4039218Y31844634D01*
X3959958Y31904488D01*
X4380335Y32324865D01*
X4347672Y32355173D01*
X4347666Y32355178D01*
X4130464Y32503265D01*
X4130454Y32503271D01*
X3893608Y32617330D01*
X3642391Y32694819D01*
X3382446Y32734000D01*
X3119553Y32734000D01*
X2859608Y32694819D01*
X2608391Y32617330D01*
X2371545Y32503271D01*
X2371535Y32503265D01*
X2154334Y32355179D01*
X2154328Y32355174D01*
X2121663Y32324865D01*
X2542040Y31904488D01*
X2462782Y31844634D01*
X2323558Y31691914D01*
X1907264Y32108208D01*
X1907263Y32108208D01*
X1797721Y31970844D01*
X1797716Y31970837D01*
X1666270Y31743167D01*
X1666269Y31743166D01*
X1570227Y31498452D01*
X1570225Y31498447D01*
X1511729Y31242159D01*
X1511727Y31242151D01*
X1492082Y30980003D01*
X1492082Y30979998D01*
X635500Y30979998D01*
X635500Y32931600D01*
X656065Y32988101D01*
X708136Y33018165D01*
X723400Y33019500D01*
X27851600Y33019500D01*
X27908101Y32998935D01*
G37*
%TD.AperFunction*%
%TA.AperFunction,Conductor*%
G36*
X23742131Y16681910D02*
G01*
X23852530Y16586248D01*
X23894573Y16567048D01*
X23526479Y16198954D01*
X23562808Y16169140D01*
X23739313Y16074797D01*
X23930822Y16016703D01*
X24130000Y15997085D01*
X24329177Y16016703D01*
X24520686Y16074797D01*
X24697194Y16169142D01*
X24733519Y16198954D01*
X24365426Y16567048D01*
X24407470Y16586248D01*
X24517869Y16681910D01*
X24581932Y16781595D01*
X24949046Y16414481D01*
X24978858Y16450806D01*
X25073203Y16627314D01*
X25087785Y16675381D01*
X25123866Y16723480D01*
X25182422Y16737133D01*
X25236055Y16709953D01*
X25259669Y16654657D01*
X25259800Y16649865D01*
X25259800Y16252493D01*
X25239235Y16195992D01*
X25234055Y16190338D01*
X24195662Y15151945D01*
X24141168Y15126534D01*
X24133507Y15126200D01*
X22753893Y15126200D01*
X22697392Y15146765D01*
X22667328Y15198836D01*
X22677769Y15258050D01*
X22691738Y15276255D01*
X23160680Y15745196D01*
X23168083Y15752601D01*
X23182890Y15767407D01*
X23194013Y15789239D01*
X23201211Y15800985D01*
X23215613Y15820806D01*
X23223182Y15844103D01*
X23228460Y15856844D01*
X23235982Y15871606D01*
X23239580Y15878667D01*
X23243411Y15902862D01*
X23246632Y15916275D01*
X23250919Y15929466D01*
X23254200Y15939565D01*
X23254200Y16064435D01*
X23254200Y16324944D01*
X23274765Y16381445D01*
X23283716Y16386614D01*
X23283401Y16386929D01*
X23678066Y16781596D01*
X23742131Y16681910D01*
G37*
%TD.AperFunction*%
%TA.AperFunction,Conductor*%
G36*
X25246545Y19103086D02*
G01*
X25259800Y19056669D01*
X25259800Y17386136D01*
X25239235Y17329635D01*
X25187164Y17299571D01*
X25127950Y17310012D01*
X25089301Y17356072D01*
X25087785Y17360620D01*
X25073203Y17408687D01*
X24978860Y17585192D01*
X24949046Y17621521D01*
X24581931Y17254407D01*
X24517869Y17354090D01*
X24407470Y17449752D01*
X24365424Y17468954D01*
X24733519Y17837048D01*
X24697191Y17866861D01*
X24520686Y17961204D01*
X24329177Y18019298D01*
X24130000Y18038916D01*
X23930822Y18019298D01*
X23739313Y17961204D01*
X23739309Y17961203D01*
X23562813Y17866865D01*
X23526479Y17837048D01*
X23894574Y17468953D01*
X23852530Y17449752D01*
X23742131Y17354090D01*
X23678067Y17254406D01*
X23292539Y17639934D01*
X23288955Y17641043D01*
X23284469Y17648004D01*
X23283401Y17649072D01*
X23283631Y17649303D01*
X23256384Y17691585D01*
X23254200Y17711058D01*
X23254200Y18710196D01*
X23274765Y18766697D01*
X23326836Y18796761D01*
X23386050Y18786320D01*
X23397856Y18778149D01*
X23534171Y18666279D01*
X23719586Y18567172D01*
X23920773Y18506143D01*
X24130000Y18485536D01*
X24339227Y18506143D01*
X24540414Y18567172D01*
X24725829Y18666279D01*
X24888347Y18799653D01*
X25021721Y18962171D01*
X25094380Y19098107D01*
X25139150Y19138240D01*
X25199245Y19140207D01*
X25246545Y19103086D01*
G37*
%TD.AperFunction*%
%TA.AperFunction,Conductor*%
G36*
X23746474Y28261835D02*
G01*
X23776538Y28209764D01*
X23766097Y28150550D01*
X23731408Y28116979D01*
X23562813Y28026865D01*
X23526479Y27997048D01*
X23894573Y27628953D01*
X23852530Y27609752D01*
X23742131Y27514090D01*
X23678067Y27414406D01*
X23310952Y27781521D01*
X23281135Y27745187D01*
X23186797Y27568691D01*
X23186796Y27568687D01*
X23128702Y27377178D01*
X23109084Y27178000D01*
X23128702Y26978823D01*
X23186796Y26787314D01*
X23281139Y26610809D01*
X23310952Y26574481D01*
X23678066Y26941596D01*
X23742131Y26841910D01*
X23852530Y26746248D01*
X23894573Y26727048D01*
X23526479Y26358954D01*
X23562808Y26329140D01*
X23739313Y26234797D01*
X23930822Y26176703D01*
X24130000Y26157085D01*
X24329177Y26176703D01*
X24520686Y26234797D01*
X24697194Y26329142D01*
X24733519Y26358954D01*
X24365426Y26727048D01*
X24407470Y26746248D01*
X24517869Y26841910D01*
X24581932Y26941594D01*
X24949045Y26574481D01*
X24949046Y26574481D01*
X24978858Y26610806D01*
X25073203Y26787314D01*
X25087785Y26835381D01*
X25123866Y26883480D01*
X25182422Y26897133D01*
X25236055Y26869953D01*
X25259669Y26814657D01*
X25259800Y26809865D01*
X25259800Y25139332D01*
X25239235Y25082831D01*
X25187164Y25052767D01*
X25127950Y25063208D01*
X25094379Y25097896D01*
X25041120Y25197536D01*
X25021721Y25233829D01*
X24888347Y25396347D01*
X24725829Y25529721D01*
X24540414Y25628828D01*
X24540413Y25628829D01*
X24540410Y25628830D01*
X24339233Y25689856D01*
X24339228Y25689857D01*
X24339227Y25689857D01*
X24130000Y25710464D01*
X23920773Y25689857D01*
X23920771Y25689857D01*
X23920766Y25689856D01*
X23719590Y25628830D01*
X23719589Y25628830D01*
X23534170Y25529721D01*
X23397863Y25417857D01*
X23341141Y25397910D01*
X23284867Y25419090D01*
X23255374Y25471487D01*
X23254200Y25485805D01*
X23254200Y25970437D01*
X23246632Y25993727D01*
X23243411Y26007142D01*
X23240842Y26023365D01*
X23239580Y26031333D01*
X23228457Y26053162D01*
X23223181Y26065903D01*
X23215615Y26089190D01*
X23215614Y26089192D01*
X23203739Y26105537D01*
X23201214Y26109013D01*
X23194012Y26120766D01*
X23191271Y26126145D01*
X23182890Y26142593D01*
X23094593Y26230890D01*
X22612744Y26712739D01*
X22587333Y26767233D01*
X22590783Y26800405D01*
X22641857Y26968773D01*
X22662464Y27178000D01*
X22641857Y27387227D01*
X22580828Y27588414D01*
X22481721Y27773829D01*
X22348347Y27936347D01*
X22185829Y28069721D01*
X22097414Y28116981D01*
X22057280Y28161750D01*
X22055313Y28221845D01*
X22092434Y28269145D01*
X22138851Y28282400D01*
X23689973Y28282400D01*
X23746474Y28261835D01*
G37*
%TD.AperFunction*%
%TD*%
M02*
